<svg version="1.1" viewBox="0.0 0.0 543.0 502.0" fill="none" stroke="none" stroke-linecap="square" stroke-miterlimit="10" xmlns:xlink="http://www.w3.org/1999/xlink" xmlns="http://www.w3.org/2000/svg"><clipPath id="p.0"><path d="m0 0l543.0 0l0 502.0l-543.0 0l0 -502.0z" clip-rule="nonzero"/></clipPath><g clip-path="url(#p.0)"><path fill="#000000" fill-opacity="0.0" d="m0 0l543.0 0l0 502.0l-543.0 0z" fill-rule="evenodd"/><path fill="#d9d9d9" d="m102.20735 297.33286l0 -159.811l40.661407 0l0 159.811z" fill-rule="evenodd"/><path fill="#434343" d="m125.75493 246.33363q1.1875 0 2.0625 0.578125q0.875 0.5625 1.359375 1.671875q0.46875 1.09375 0.46875 2.65625q0 0.6875 -0.09375 1.359375q-0.09375 0.65625 -0.265625 1.265625q-0.1875 0.59375 -0.453125 1.140625l-2.625 0q0.421875 -0.9375 0.765625 -1.953125q0.328125 -1.03125 0.328125 -2.03125q0 -0.6875 -0.171875 -1.109375q-0.1875 -0.4375 -0.5 -0.625q-0.328125 -0.1875 -0.734375 -0.1875q-0.5 0 -0.84375 0.34375q-0.359375 0.328125 -0.671875 0.921875q-0.3125 0.578125 -0.671875 1.3125q-0.21875 0.46875 -0.53125 1.015625q-0.3125 0.546875 -0.765625 1.046875q-0.453125 0.484375 -1.109375 0.796875q-0.65625 0.3125 -1.5625 0.3125q-1.1875 0 -2.03125 -0.546875q-0.859375 -0.546875 -1.3125 -1.5625q-0.453125 -1.015625 -0.453125 -2.390625q0 -1.046875 0.25 -1.984375q0.234375 -0.9375 0.6875 -1.96875l2.203125 0.90625q-0.375 0.921875 -0.578125 1.65625q-0.203125 0.71875 -0.203125 1.484375q0 0.515625 0.171875 0.890625q0.15625 0.375 0.46875 0.578125q0.296875 0.1875 0.703125 0.1875q0.46875 0 0.796875 -0.28125q0.328125 -0.28125 0.625 -0.84375q0.296875 -0.5625 0.703125 -1.390625q0.484375 -1.03125 1.015625 -1.75q0.515625 -0.71875 1.21875 -1.109375q0.703125 -0.390625 1.75 -0.390625zm-6.484375 -0.7442627l0 -3.046875l5.734375 -1.921875q0.265625 -0.09375 0.5625 -0.15625q0.28125 -0.0625 0.578125 -0.109375q0.296875 -0.046875 0.625 -0.0625l0 -0.0625q-0.484375 -0.046875 -0.90625 -0.140625q-0.4375 -0.109375 -0.859375 -0.25l-5.734375 -1.890625l0 -2.96875l11.484375 4.3125q1.0625 0.390625 1.765625 1.015625q0.703125 0.625 1.0625 1.4375q0.359375 0.8125 0.359375 1.796875q0 0.46875 -0.0625 0.8125q-0.046875 0.34375 -0.09375 0.59375l-2.203125 0q0.046875 -0.1875 0.078125 -0.46875q0.03125 -0.296875 0.03125 -0.625q0 -0.578125 -0.25 -1.0q-0.234375 -0.421875 -0.65625 -0.703125q-0.40625 -0.28125 -0.90625 -0.4375l-0.5 -0.171875l-10.109375 4.046875zm7.15625 -19.175064q1.046875 0 1.765625 0.484375q0.703125 0.484375 1.078125 1.453125q0.375 0.96875 0.375 2.40625q0 1.0625 -0.140625 1.828125q-0.140625 0.765625 -0.453125 1.53125l-2.296875 0q0.375 -0.828125 0.625 -1.78125q0.234375 -0.953125 0.234375 -1.671875q0 -0.8125 -0.234375 -1.15625q-0.25 -0.359375 -0.640625 -0.359375q-0.265625 0 -0.46875 0.15625q-0.203125 0.140625 -0.453125 0.609375q-0.265625 0.453125 -0.6875 1.453125q-0.40625 0.953125 -0.8125 1.5625q-0.40625 0.609375 -0.96875 0.90625q-0.5625 0.296875 -1.421875 0.296875q-1.421875 0 -2.125 -1.09375q-0.71875 -1.09375 -0.71875 -2.9375q0 -0.953125 0.1875 -1.8125q0.1875 -0.859375 0.609375 -1.765625l2.015625 0.84375q-0.328125 0.75 -0.53125 1.421875q-0.21875 0.671875 -0.21875 1.359375q0 0.609375 0.171875 0.921875q0.15625 0.3125 0.484375 0.3125q0.25 0 0.453125 -0.15625q0.1875 -0.171875 0.421875 -0.625q0.21875 -0.46875 0.59375 -1.359375q0.34375 -0.859375 0.734375 -1.5q0.390625 -0.640625 0.96875 -0.984375q0.5625 -0.34375 1.453125 -0.34375zm1.0 -6.460968q0 -0.453125 -0.09375 -0.875q-0.09375 -0.4375 -0.21875 -0.875l2.0625 0q0.203125 0.453125 0.328125 1.109375q0.140625 0.65625 0.140625 1.4375q0 0.921875 -0.296875 1.640625q-0.296875 0.71875 -1.03125 1.140625q-0.734375 0.40625 -2.046875 0.40625l-4.90625 0l0 1.34375l-1.1875 0l-0.921875 -1.53125l-2.15625 -0.8125l0 -1.765625l2.171875 0l0 -2.859375l2.09375 0l0 2.859375l4.90625 0q0.578125 0 0.875 -0.328125q0.28125 -0.34375 0.28125 -0.890625zm-8.34375 -8.004593q0 -1.40625 0.546875 -2.421875q0.53125 -1.03125 1.5625 -1.578125q1.03125 -0.5625 2.515625 -0.5625l1.34375 0l0 6.5625q1.1875 -0.046875 1.859375 -0.703125q0.65625 -0.65625 0.65625 -1.828125q0 -0.984375 -0.1875 -1.796875q-0.203125 -0.8125 -0.609375 -1.65625l2.15625 0q0.375 0.75 0.546875 1.578125q0.171875 0.828125 0.171875 2.0q0 1.53125 -0.5625 2.71875q-0.578125 1.171875 -1.734375 1.84375q-1.15625 0.65625 -2.90625 0.65625q-1.796875 0 -2.984375 -0.59375q-1.1875 -0.609375 -1.78125 -1.6875q-0.59375 -1.09375 -0.59375 -2.53125zm1.96875 -0.015625q0 0.8125 0.53125 1.34375q0.515625 0.53125 1.625 0.609375l0 -3.890625q-0.625 0 -1.09375 0.21875q-0.484375 0.21875 -0.765625 0.640625q-0.296875 0.421875 -0.296875 1.078125zm-1.96875 -18.772491q0 -1.734375 0.890625 -2.609375q0.890625 -0.890625 2.84375 -0.890625l6.640625 0l0 2.78125l-5.953125 0q-1.09375 0 -1.640625 0.375q-0.5625 0.375 -0.5625 1.15625q0 1.109375 0.796875 1.578125q0.78125 0.453125 2.25 0.453125l5.109375 0l0 2.78125l-5.953125 0q-0.71875 0 -1.203125 0.171875q-0.5 0.15625 -0.75 0.5q-0.25 0.328125 -0.25 0.859375q0 0.765625 0.390625 1.21875q0.390625 0.4375 1.140625 0.625q0.75 0.1875 1.828125 0.1875l4.796875 0l0 2.78125l-10.1875 0l0 -2.125l1.3125 -0.375l0 -0.15625q-0.53125 -0.3125 -0.859375 -0.78125q-0.328125 -0.46875 -0.484375 -1.03125q-0.15625 -0.5625 -0.15625 -1.140625q0 -1.125 0.375 -1.90625q0.359375 -0.78125 1.125 -1.203125l0 -0.234375q-0.796875 -0.46875 -1.140625 -1.296875q-0.359375 -0.828125 -0.359375 -1.71875zm7.34375 -13.459824q1.046875 0 1.765625 0.484375q0.703125 0.484375 1.078125 1.453125q0.375 0.96875 0.375 2.40625q0 1.0625 -0.140625 1.828125q-0.140625 0.765625 -0.453125 1.53125l-2.296875 0q0.375 -0.828125 0.625 -1.78125q0.234375 -0.953125 0.234375 -1.671875q0 -0.8125 -0.234375 -1.15625q-0.25 -0.359375 -0.640625 -0.359375q-0.265625 0 -0.46875 0.15625q-0.203125 0.140625 -0.453125 0.609375q-0.265625 0.453125 -0.6875 1.453125q-0.40625 0.953125 -0.8125 1.5625q-0.40625 0.609375 -0.96875 0.90625q-0.5625 0.296875 -1.421875 0.296875q-1.421875 0 -2.125 -1.09375q-0.71875 -1.09375 -0.71875 -2.9375q0 -0.953125 0.1875 -1.8125q0.1875 -0.859375 0.609375 -1.765625l2.015625 0.84375q-0.328125 0.75 -0.53125 1.421875q-0.21875 0.671875 -0.21875 1.359375q0 0.609375 0.171875 0.921875q0.15625 0.3125 0.484375 0.3125q0.25 0 0.453125 -0.15625q0.1875 -0.171875 0.421875 -0.625q0.21875 -0.46875 0.59375 -1.359375q0.34375 -0.859375 0.734375 -1.5q0.390625 -0.640625 0.96875 -0.984375q0.5625 -0.34375 1.453125 -0.34375z" fill-rule="nonzero"/><path fill="#d9d9d9" d="m102.20735 468.3969l0 -159.81104l40.661407 0l0 159.81104z" fill-rule="evenodd"/><path fill="#434343" d="m129.45805 442.3117l0 2.828125l-10.96875 0l0 3.609375l-2.34375 0l0 -10.0625l2.34375 0l0 3.625l10.96875 0zm-10.375 -9.647614q0 -1.40625 0.546875 -2.421875q0.53125 -1.03125 1.5625 -1.578125q1.03125 -0.5625 2.515625 -0.5625l1.34375 0l0 6.5625q1.1875 -0.046875 1.859375 -0.703125q0.65625 -0.65625 0.65625 -1.828125q0 -0.984375 -0.1875 -1.796875q-0.203125 -0.8125 -0.609375 -1.65625l2.15625 0q0.375 0.75 0.546875 1.578125q0.171875 0.828125 0.171875 2.0q0 1.53125 -0.5625 2.71875q-0.578125 1.171875 -1.734375 1.84375q-1.15625 0.65625 -2.90625 0.65625q-1.796875 0 -2.984375 -0.59375q-1.1875 -0.609375 -1.78125 -1.6875q-0.59375 -1.09375 -0.59375 -2.53125zm1.96875 -0.015625q0 0.8125 0.53125 1.34375q0.515625 0.53125 1.625 0.609375l0 -3.890625q-0.625 0 -1.09375 0.21875q-0.484375 0.21875 -0.765625 0.640625q-0.296875 0.421875 -0.296875 1.078125zm8.59375 -10.944366q0 1.515625 -0.546875 2.578125q-0.5625 1.0625 -1.71875 1.625q-1.15625 0.546875 -2.953125 0.546875q-1.875 0 -3.046875 -0.625q-1.1875 -0.640625 -1.734375 -1.765625q-0.5625 -1.125 -0.5625 -2.609375q0 -1.046875 0.203125 -1.8125q0.203125 -0.78125 0.484375 -1.359375l2.15625 0.828125q-0.265625 0.65625 -0.4375 1.21875q-0.171875 0.5625 -0.171875 1.125q0 0.734375 0.34375 1.21875q0.34375 0.484375 1.03125 0.71875q0.6875 0.234375 1.703125 0.234375q1.015625 0 1.6875 -0.25q0.65625 -0.265625 0.984375 -0.734375q0.328125 -0.484375 0.328125 -1.1875q0 -0.859375 -0.234375 -1.53125q-0.234375 -0.671875 -0.65625 -1.3125l2.375 0q0.40625 0.640625 0.578125 1.34375q0.1875 0.6875 0.1875 1.75zm-14.359375 -8.23291l2.890625 0q0.75 0 1.4375 0.046875q0.671875 0.046875 0.96875 0.078125l0 -0.140625q-0.53125 -0.328125 -0.859375 -0.78125q-0.328125 -0.453125 -0.484375 -1.0q-0.15625 -0.546875 -0.15625 -1.171875q0 -1.109375 0.390625 -1.921875q0.390625 -0.828125 1.21875 -1.28125q0.8125 -0.453125 2.125 -0.453125l6.640625 0l0 2.78125l-5.953125 0q-1.09375 0 -1.640625 0.40625q-0.5625 0.390625 -0.5625 1.234375q0 0.828125 0.390625 1.3125q0.390625 0.484375 1.140625 0.6875q0.75 0.203125 1.828125 0.203125l4.796875 0l0 2.78125l-14.171875 0l0 -2.78125zm3.796875 -15.261383q0 -1.640625 0.890625 -2.625q0.890625 -1.0 2.84375 -1.0l6.640625 0l0 2.78125l-5.953125 0q-1.09375 0 -1.640625 0.40625q-0.5625 0.390625 -0.5625 1.234375q0 1.265625 0.875 1.734375q0.859375 0.46875 2.484375 0.46875l4.796875 0l0 2.78125l-10.1875 0l0 -2.125l1.3125 -0.375l0 -0.15625q-0.53125 -0.328125 -0.859375 -0.8125q-0.328125 -0.484375 -0.484375 -1.078125q-0.15625 -0.609375 -0.15625 -1.234375zm5.265625 -15.745758q1.28125 0 2.265625 0.34375q0.96875 0.34375 1.65625 1.0q0.671875 0.640625 1.03125 1.5625q0.34375 0.921875 0.34375 2.0625q0 1.078125 -0.34375 1.984375q-0.359375 0.890625 -1.03125 1.546875q-0.6875 0.65625 -1.65625 1.015625q-0.984375 0.359375 -2.265625 0.359375q-1.703125 0 -2.875 -0.59375q-1.171875 -0.609375 -1.78125 -1.71875q-0.609375 -1.109375 -0.609375 -2.640625q0 -1.4375 0.609375 -2.546875q0.609375 -1.109375 1.78125 -1.734375q1.171875 -0.640625 2.875 -0.640625zm0 7.046875q1.0 0 1.6875 -0.21875q0.6875 -0.21875 1.03125 -0.671875q0.34375 -0.46875 0.34375 -1.21875q0 -0.734375 -0.34375 -1.1875q-0.34375 -0.46875 -1.03125 -0.6875q-0.6875 -0.21875 -1.6875 -0.21875q-1.015625 0 -1.671875 0.21875q-0.671875 0.21875 -1.015625 0.6875q-0.34375 0.453125 -0.34375 1.203125q0 1.09375 0.765625 1.59375q0.75 0.5 2.265625 0.5zm5.109375 -12.113342l0 2.78125l-14.171875 0l0 -2.78125l14.171875 0zm-5.109375 -12.177826q1.28125 0 2.265625 0.34375q0.96875 0.34375 1.65625 1.0q0.671875 0.640625 1.03125 1.5625q0.34375 0.921875 0.34375 2.0625q0 1.078125 -0.34375 1.984375q-0.359375 0.890625 -1.03125 1.546875q-0.6875 0.65625 -1.65625 1.015625q-0.984375 0.359375 -2.265625 0.359375q-1.703125 0 -2.875 -0.59375q-1.171875 -0.609375 -1.78125 -1.71875q-0.609375 -1.109375 -0.609375 -2.640625q0 -1.4375 0.609375 -2.546875q0.609375 -1.109375 1.78125 -1.734375q1.171875 -0.640625 2.875 -0.640625zm0 7.046875q1.0 0 1.6875 -0.21875q0.6875 -0.21875 1.03125 -0.671875q0.34375 -0.46875 0.34375 -1.21875q0 -0.734375 -0.34375 -1.1875q-0.34375 -0.46875 -1.03125 -0.6875q-0.6875 -0.21875 -1.6875 -0.21875q-1.015625 0 -1.671875 0.21875q-0.671875 0.21875 -1.015625 0.6875q-0.34375 0.453125 -0.34375 1.203125q0 1.09375 0.765625 1.59375q0.75 0.5 2.265625 0.5zm9.59375 -12.316467q0 2.125 -0.75 3.265625q-0.734375 1.125 -2.078125 1.125q-0.921875 0 -1.546875 -0.578125q-0.609375 -0.578125 -0.875 -1.6875q-0.1875 0.421875 -0.59375 0.75q-0.421875 0.3125 -0.875 0.3125q-0.59375 0 -0.96875 -0.328125q-0.390625 -0.34375 -0.765625 -0.984375q-0.34375 0.796875 -1.109375 1.28125q-0.765625 0.46875 -1.8125 0.46875q-1.109375 0 -1.890625 -0.484375q-0.78125 -0.5 -1.1875 -1.421875q-0.40625 -0.9375 -0.40625 -2.28125q0 -0.28125 0.046875 -0.65625q0.03125 -0.375 0.078125 -0.6875q0.03125 -0.3125 0.0625 -0.421875l0 -3.5625l1.421875 0l0.40625 1.59375q0.328125 -0.21875 0.71875 -0.328125q0.375 -0.109375 0.8125 -0.109375q1.640625 0 2.5625 1.15625q0.90625 1.140625 0.90625 3.171875q-0.03125 0.484375 -0.078125 0.90625q0.171875 0.21875 0.359375 0.328125q0.171875 0.109375 0.375 0.109375q0.203125 0 0.34375 -0.171875q0.125 -0.171875 0.1875 -0.515625q0.0625 -0.34375 0.0625 -0.84375l0 -1.734375q0 -1.671875 0.71875 -2.546875q0.71875 -0.890625 2.125 -0.890625q1.78125 0 2.765625 1.5q0.984375 1.484375 0.984375 4.265625zm-1.8125 -0.125q0 -0.984375 -0.1875 -1.703125q-0.1875 -0.71875 -0.53125 -1.09375q-0.34375 -0.390625 -0.8125 -0.390625q-0.390625 0 -0.609375 0.234375q-0.21875 0.21875 -0.3125 0.671875q-0.09375 0.453125 -0.09375 1.15625l0 1.4375q0 0.5 0.15625 0.90625q0.171875 0.40625 0.46875 0.65625q0.296875 0.234375 0.6875 0.234375q0.578125 0 0.90625 -0.546875q0.328125 -0.5625 0.328125 -1.5625zm-7.734375 -0.4375q0 -0.78125 -0.46875 -1.140625q-0.484375 -0.375 -1.3125 -0.375q-0.921875 0 -1.375 0.390625q-0.46875 0.375 -0.46875 1.125q0 0.765625 0.46875 1.15625q0.453125 0.375 1.375 0.375q0.828125 0 1.3125 -0.375q0.46875 -0.390625 0.46875 -1.15625zm-5.125 -9.774048l10.1875 0l0 2.78125l-10.1875 0l0 -2.78125zm-3.984375 1.390625q0 -0.625 0.296875 -1.0625q0.28125 -0.453125 1.0625 -0.453125q0.765625 0 1.0625 0.453125q0.296875 0.4375 0.296875 1.0625q0 0.625 -0.296875 1.0625q-0.296875 0.4375 -1.0625 0.4375q-0.78125 0 -1.0625 -0.4375q-0.296875 -0.4375 -0.296875 -1.0625zm3.796875 -8.505951q0 -1.40625 0.546875 -2.421875q0.53125 -1.03125 1.5625 -1.578125q1.03125 -0.5625 2.515625 -0.5625l1.34375 0l0 6.5625q1.1875 -0.046875 1.859375 -0.703125q0.65625 -0.65625 0.65625 -1.828125q0 -0.984375 -0.1875 -1.796875q-0.203125 -0.8125 -0.609375 -1.65625l2.15625 0q0.375 0.75 0.546875 1.578125q0.171875 0.828125 0.171875 2.0q0 1.53125 -0.5625 2.71875q-0.578125 1.171875 -1.734375 1.84375q-1.15625 0.65625 -2.90625 0.65625q-1.796875 0 -2.984375 -0.59375q-1.1875 -0.609375 -1.78125 -1.6875q-0.59375 -1.09375 -0.59375 -2.53125zm1.96875 -0.015625q0 0.8125 0.53125 1.34375q0.515625 0.53125 1.625 0.609375l0 -3.890625q-0.625 0 -1.09375 0.21875q-0.484375 0.21875 -0.765625 0.640625q-0.296875 0.421875 -0.296875 1.078125zm5.375 -13.913116q1.046875 0 1.765625 0.484375q0.703125 0.484375 1.078125 1.453125q0.375 0.96875 0.375 2.40625q0 1.0625 -0.140625 1.828125q-0.140625 0.765625 -0.453125 1.53125l-2.296875 0q0.375 -0.828125 0.625 -1.78125q0.234375 -0.953125 0.234375 -1.671875q0 -0.8125 -0.234375 -1.15625q-0.25 -0.359375 -0.640625 -0.359375q-0.265625 0 -0.46875 0.15625q-0.203125 0.140625 -0.453125 0.609375q-0.265625 0.453125 -0.6875 1.453125q-0.40625 0.953125 -0.8125 1.5625q-0.40625 0.609375 -0.96875 0.90625q-0.5625 0.296875 -1.421875 0.296875q-1.421875 0 -2.125 -1.09375q-0.71875 -1.09375 -0.71875 -2.9375q0 -0.953125 0.1875 -1.8125q0.1875 -0.859375 0.609375 -1.765625l2.015625 0.84375q-0.328125 0.75 -0.53125 1.421875q-0.21875 0.671875 -0.21875 1.359375q0 0.609375 0.171875 0.921875q0.15625 0.3125 0.484375 0.3125q0.25 0 0.453125 -0.15625q0.1875 -0.171875 0.421875 -0.625q0.21875 -0.46875 0.59375 -1.359375q0.34375 -0.859375 0.734375 -1.5q0.390625 -0.640625 0.96875 -0.984375q0.5625 -0.34375 1.453125 -0.34375z" fill-rule="nonzero"/><path fill="#d9d9d9" d="m156.89685 81.2336l159.81104 0l0 40.661415l-159.81104 0z" fill-rule="evenodd"/><path fill="#434343" d="m189.52817 97.32805q-0.8125 0 -1.4375 0.3125q-0.609375 0.3125 -1.046875 0.90625q-0.421875 0.59375 -0.640625 1.4375q-0.21875 0.828125 -0.21875 1.875q0 1.421875 0.34375 2.421875q0.359375 0.984375 1.09375 1.515625q0.75 0.515625 1.90625 0.515625q0.8125 0 1.625 -0.171875q0.828125 -0.1875 1.78125 -0.53125l0 2.375q-0.890625 0.359375 -1.75 0.515625q-0.84375 0.171875 -1.921875 0.171875q-2.046875 0 -3.375 -0.84375q-1.328125 -0.859375 -1.96875 -2.390625q-0.640625 -1.546875 -0.640625 -3.59375q0 -1.515625 0.40625 -2.765625q0.421875 -1.265625 1.203125 -2.171875q0.796875 -0.921875 1.96875 -1.421875q1.171875 -0.515625 2.671875 -0.515625q1.0 0 2.0 0.25q1.0 0.25 1.90625 0.6875l-0.90625 2.296875q-0.75 -0.34375 -1.515625 -0.609375q-0.75 -0.265625 -1.484375 -0.265625zm10.184769 0.765625q2.046875 0 3.140625 0.890625q1.09375 0.890625 1.09375 2.71875l0 6.78125l-1.9375 0l-0.53125 -1.390625l-0.078125 0q-0.4375 0.546875 -0.890625 0.90625q-0.453125 0.34375 -1.046875 0.5q-0.59375 0.171875 -1.4375 0.171875q-0.90625 0 -1.625 -0.34375q-0.703125 -0.359375 -1.125 -1.0625q-0.40625 -0.71875 -0.40625 -1.828125q0 -1.625 1.140625 -2.390625q1.140625 -0.765625 3.421875 -0.84375l1.765625 -0.0625l0 -0.4375q0 -0.8125 -0.421875 -1.171875q-0.421875 -0.375 -1.171875 -0.375q-0.734375 0 -1.453125 0.203125q-0.703125 0.203125 -1.40625 0.53125l-0.921875 -1.875q0.8125 -0.4375 1.8125 -0.671875q1.015625 -0.25 2.078125 -0.25zm1.484375 5.671875l-1.078125 0.03125q-1.34375 0.046875 -1.875 0.5q-0.515625 0.4375 -0.515625 1.15625q0 0.640625 0.359375 0.921875q0.375 0.265625 0.984375 0.265625q0.890625 0 1.5 -0.53125q0.625 -0.53125 0.625 -1.5l0 -0.84375zm11.284073 -5.65625q1.71875 0 2.78125 1.34375q1.0625 1.328125 1.0625 3.921875q0 1.734375 -0.5 2.921875q-0.5 1.171875 -1.390625 1.78125q-0.875 0.59375 -2.03125 0.59375q-0.734375 0 -1.265625 -0.1875q-0.53125 -0.1875 -0.90625 -0.484375q-0.359375 -0.296875 -0.640625 -0.640625l-0.140625 0q0.0625 0.375 0.09375 0.765625q0.046875 0.375 0.046875 0.734375l0 4.109375l-2.78125 0l0 -14.671875l2.265625 0l0.390625 1.328125l0.125 0q0.28125 -0.421875 0.671875 -0.765625q0.390625 -0.34375 0.9375 -0.546875q0.546875 -0.203125 1.28125 -0.203125zm-0.890625 2.21875q-0.734375 0 -1.171875 0.3125q-0.421875 0.296875 -0.625 0.90625q-0.1875 0.59375 -0.203125 1.515625l0 0.296875q0 0.984375 0.1875 1.671875q0.1875 0.671875 0.625 1.03125q0.453125 0.359375 1.21875 0.359375q0.640625 0 1.046875 -0.359375q0.40625 -0.359375 0.609375 -1.046875q0.21875 -0.6875 0.21875 -1.671875q0 -1.5 -0.46875 -2.25q-0.46875 -0.765625 -1.4375 -0.765625zm11.196533 -2.234375q2.046875 0 3.140625 0.890625q1.09375 0.890625 1.09375 2.71875l0 6.78125l-1.9375 0l-0.53125 -1.390625l-0.078125 0q-0.4375 0.546875 -0.890625 0.90625q-0.453125 0.34375 -1.046875 0.5q-0.59375 0.171875 -1.4375 0.171875q-0.90625 0 -1.625 -0.34375q-0.703125 -0.359375 -1.125 -1.0625q-0.40625 -0.71875 -0.40625 -1.828125q0 -1.625 1.140625 -2.390625q1.140625 -0.765625 3.421875 -0.84375l1.765625 -0.0625l0 -0.4375q0 -0.8125 -0.421875 -1.171875q-0.421875 -0.375 -1.171875 -0.375q-0.734375 0 -1.453125 0.203125q-0.703125 0.203125 -1.40625 0.53125l-0.921875 -1.875q0.8125 -0.4375 1.8125 -0.671875q1.015625 -0.25 2.078125 -0.25zm1.484375 5.671875l-1.078125 0.03125q-1.34375 0.046875 -1.875 0.5q-0.515625 0.4375 -0.515625 1.15625q0 0.640625 0.359375 0.921875q0.375 0.265625 0.984375 0.265625q0.890625 0 1.5 -0.53125q0.625 -0.53125 0.625 -1.5l0 -0.84375zm8.393448 -9.453125l0 3.296875q0 0.578125 -0.03125 1.140625q-0.03125 0.5625 -0.078125 0.875l0.109375 0q0.40625 -0.625 1.09375 -1.0625q0.6875 -0.453125 1.796875 -0.453125q1.71875 0 2.78125 1.34375q1.0625 1.328125 1.0625 3.921875q0 1.734375 -0.5 2.921875q-0.484375 1.171875 -1.375 1.78125q-0.875 0.59375 -2.046875 0.59375q-1.109375 0 -1.765625 -0.40625q-0.640625 -0.40625 -1.046875 -0.90625l-0.1875 0l-0.46875 1.125l-2.125 0l0 -14.171875l2.78125 0zm2.0 6.015625q-0.734375 0 -1.171875 0.3125q-0.421875 0.296875 -0.625 0.90625q-0.1875 0.59375 -0.203125 1.515625l0 0.296875q0 1.484375 0.4375 2.28125q0.4375 0.78125 1.59375 0.78125q0.859375 0 1.359375 -0.796875q0.515625 -0.796875 0.515625 -2.28125q0 -1.5 -0.515625 -2.25q-0.515625 -0.765625 -1.390625 -0.765625zm9.805908 -2.03125l0 10.1875l-2.78125 0l0 -10.1875l2.78125 0zm-1.390625 -3.984375q0.625 0 1.0625 0.296875q0.453125 0.28125 0.453125 1.0625q0 0.765625 -0.453125 1.0625q-0.4375 0.296875 -1.0625 0.296875q-0.625 0 -1.0625 -0.296875q-0.4375 -0.296875 -0.4375 -1.0625q0 -0.78125 0.4375 -1.0625q0.4375 -0.296875 1.0625 -0.296875zm7.0840607 14.171875l-2.78125 0l0 -14.171875l2.78125 0l0 14.171875zm5.6934357 -10.1875l0 10.1875l-2.78125 0l0 -10.1875l2.78125 0zm-1.390625 -3.984375q0.625 0 1.0625 0.296875q0.453125 0.28125 0.453125 1.0625q0 0.765625 -0.453125 1.0625q-0.4375 0.296875 -1.0625 0.296875q-0.625 0 -1.0625 -0.296875q-0.4375 -0.296875 -0.4375 -1.0625q0 -0.78125 0.4375 -1.0625q0.4375 -0.296875 1.0625 -0.296875zm8.599686 12.140625q0.453125 0 0.875 -0.09375q0.4375 -0.09375 0.875 -0.21875l0 2.0625q-0.453125 0.203125 -1.109375 0.328125q-0.65625 0.140625 -1.4375 0.140625q-0.921875 0 -1.640625 -0.296875q-0.71875 -0.296875 -1.140625 -1.03125q-0.40625 -0.734375 -0.40625 -2.046875l0 -4.90625l-1.34375 0l0 -1.1875l1.53125 -0.921875l0.8125 -2.15625l1.765625 0l0 2.171875l2.859375 0l0 2.09375l-2.859375 0l0 4.90625q0 0.578125 0.328125 0.875q0.34375 0.28125 0.890625 0.28125zm6.5827026 -8.15625l0 10.1875l-2.78125 0l0 -10.1875l2.78125 0zm-1.390625 -3.984375q0.625 0 1.0625 0.296875q0.453125 0.28125 0.453125 1.0625q0 0.765625 -0.453125 1.0625q-0.4375 0.296875 -1.0625 0.296875q-0.625 0 -1.0625 -0.296875q-0.4375 -0.296875 -0.4375 -1.0625q0 -0.78125 0.4375 -1.0625q0.4375 -0.296875 1.0625 -0.296875zm8.505951 3.796875q1.40625 0 2.421875 0.546875q1.03125 0.53125 1.578125 1.5625q0.5625 1.03125 0.5625 2.515625l0 1.34375l-6.5625 0q0.046875 1.1875 0.703125 1.859375q0.65625 0.65625 1.828125 0.65625q0.984375 0 1.796875 -0.1875q0.8125 -0.203125 1.65625 -0.609375l0 2.15625q-0.75 0.375 -1.578125 0.546875q-0.828125 0.171875 -2.0 0.171875q-1.53125 0 -2.71875 -0.5625q-1.171875 -0.578125 -1.84375 -1.734375q-0.65625 -1.15625 -0.65625 -2.90625q0 -1.796875 0.59375 -2.984375q0.609375 -1.1875 1.6875 -1.78125q1.09375 -0.59375 2.53125 -0.59375zm0.015625 1.96875q-0.8125 0 -1.34375 0.53125q-0.53125 0.515625 -0.609375 1.625l3.890625 0q0 -0.625 -0.21875 -1.09375q-0.21875 -0.484375 -0.640625 -0.765625q-0.421875 -0.296875 -1.078125 -0.296875zm13.913116 5.375q0 1.046875 -0.484375 1.765625q-0.484375 0.703125 -1.453125 1.078125q-0.96875 0.375 -2.40625 0.375q-1.0625 0 -1.828125 -0.140625q-0.765625 -0.140625 -1.53125 -0.453125l0 -2.296875q0.828125 0.375 1.78125 0.625q0.953125 0.234375 1.671875 0.234375q0.8125 0 1.15625 -0.234375q0.359375 -0.25 0.359375 -0.640625q0 -0.265625 -0.15625 -0.46875q-0.140625 -0.203125 -0.609375 -0.453125q-0.453125 -0.265625 -1.453125 -0.6875q-0.953125 -0.40625 -1.5625 -0.8125q-0.609375 -0.40625 -0.90625 -0.96875q-0.296875 -0.5625 -0.296875 -1.421875q0 -1.421875 1.09375 -2.125q1.09375 -0.71875 2.9375 -0.71875q0.953125 0 1.8125 0.1875q0.859375 0.1875 1.765625 0.609375l-0.84375 2.015625q-0.75 -0.328125 -1.421875 -0.53125q-0.671875 -0.21875 -1.359375 -0.21875q-0.609375 0 -0.921875 0.171875q-0.3125 0.15625 -0.3125 0.484375q0 0.25 0.15625 0.453125q0.171875 0.1875 0.625 0.421875q0.46875 0.21875 1.359375 0.59375q0.859375 0.34375 1.5 0.734375q0.640625 0.390625 0.984375 0.96875q0.34375 0.5625 0.34375 1.453125z" fill-rule="nonzero"/><path fill="#d9d9d9" d="m331.8195 81.2336l159.811 0l0 40.661415l-159.811 0z" fill-rule="evenodd"/><path fill="#434343" d="m387.9921 101.70305q0 2.25 -0.859375 3.765625q-0.859375 1.5 -2.484375 2.265625q-1.625 0.75 -3.921875 0.75l-3.78125 0l0 -13.3125l4.1875 0q2.09375 0 3.625 0.75q1.546875 0.734375 2.390625 2.1875q0.84375 1.453125 0.84375 3.59375zm-2.921875 0.0625q0 -1.46875 -0.4375 -2.421875q-0.4375 -0.953125 -1.28125 -1.40625q-0.84375 -0.453125 -2.078125 -0.453125l-1.5 0l0 8.671875l1.21875 0q2.0625 0 3.0625 -1.09375q1.015625 -1.109375 1.015625 -3.296875zm14.731873 1.609375q0 1.28125 -0.34375 2.265625q-0.34375 0.96875 -1.0 1.65625q-0.640625 0.671875 -1.5625 1.03125q-0.921875 0.34375 -2.0625 0.34375q-1.078125 0 -1.984375 -0.34375q-0.890625 -0.359375 -1.546875 -1.03125q-0.65625 -0.6875 -1.015625 -1.65625q-0.359375 -0.984375 -0.359375 -2.265625q0 -1.703125 0.59375 -2.875q0.609375 -1.171875 1.71875 -1.78125q1.109375 -0.609375 2.640625 -0.609375q1.4375 0 2.546875 0.609375q1.109375 0.609375 1.734375 1.78125q0.640625 1.171875 0.640625 2.875zm-7.046875 0q0 1.0 0.21875 1.6875q0.21875 0.6875 0.671875 1.03125q0.46875 0.34375 1.21875 0.34375q0.734375 0 1.1875 -0.34375q0.46875 -0.34375 0.6875 -1.03125q0.21875 -0.6875 0.21875 -1.6875q0 -1.015625 -0.21875 -1.671875q-0.21875 -0.671875 -0.6875 -1.015625q-0.453125 -0.34375 -1.203125 -0.34375q-1.09375 0 -1.59375 0.765625q-0.5 0.75 -0.5 2.265625zm21.300842 -5.265625q1.734375 0 2.609375 0.890625q0.890625 0.890625 0.890625 2.84375l0 6.640625l-2.78125 0l0 -5.953125q0 -1.09375 -0.375 -1.640625q-0.375 -0.5625 -1.15625 -0.5625q-1.109375 0 -1.578125 0.796875q-0.453125 0.78125 -0.453125 2.25l0 5.109375l-2.78125 0l0 -5.953125q0 -0.71875 -0.171875 -1.203125q-0.15625 -0.5 -0.5 -0.75q-0.328125 -0.25 -0.859375 -0.25q-0.765625 0 -1.21875 0.390625q-0.4375 0.390625 -0.625 1.140625q-0.1875 0.75 -0.1875 1.828125l0 4.796875l-2.78125 0l0 -10.1875l2.125 0l0.375 1.3125l0.15625 0q0.3125 -0.53125 0.78125 -0.859375q0.46875 -0.328125 1.03125 -0.484375q0.5625 -0.15625 1.140625 -0.15625q1.125 0 1.90625 0.375q0.78125 0.359375 1.203125 1.125l0.234375 0q0.46875 -0.796875 1.296875 -1.140625q0.828125 -0.359375 1.71875 -0.359375zm10.522308 -0.015625q2.046875 0 3.140625 0.890625q1.09375 0.890625 1.09375 2.71875l0 6.78125l-1.9375 0l-0.53125 -1.390625l-0.078125 0q-0.4375 0.546875 -0.890625 0.90625q-0.453125 0.34375 -1.046875 0.5q-0.59375 0.171875 -1.4375 0.171875q-0.90625 0 -1.625 -0.34375q-0.703125 -0.359375 -1.125 -1.0625q-0.40625 -0.71875 -0.40625 -1.828125q0 -1.625 1.140625 -2.390625q1.140625 -0.765625 3.421875 -0.84375l1.765625 -0.0625l0 -0.4375q0 -0.8125 -0.421875 -1.171875q-0.421875 -0.375 -1.171875 -0.375q-0.734375 0 -1.453125 0.203125q-0.703125 0.203125 -1.40625 0.53125l-0.921875 -1.875q0.8125 -0.4375 1.8125 -0.671875q1.015625 -0.25 2.078125 -0.25zm1.484375 5.671875l-1.078125 0.03125q-1.34375 0.046875 -1.875 0.5q-0.515625 0.4375 -0.515625 1.15625q0 0.640625 0.359375 0.921875q0.375 0.265625 0.984375 0.265625q0.890625 0 1.5 -0.53125q0.625 -0.53125 0.625 -1.5l0 -0.84375zm8.393463 -5.46875l0 10.1875l-2.78125 0l0 -10.1875l2.78125 0zm-1.390625 -3.984375q0.625 0 1.0625 0.296875q0.453125 0.28125 0.453125 1.0625q0 0.765625 -0.453125 1.0625q-0.4375 0.296875 -1.0625 0.296875q-0.625 0 -1.0625 -0.296875q-0.4375 -0.296875 -0.4375 -1.0625q0 -0.78125 0.4375 -1.0625q0.4375 -0.296875 1.0625 -0.296875zm10.084045 3.796875q1.640625 0 2.625 0.890625q1.0 0.890625 1.0 2.84375l0 6.640625l-2.78125 0l0 -5.953125q0 -1.09375 -0.40625 -1.640625q-0.390625 -0.5625 -1.234375 -0.5625q-1.265625 0 -1.734375 0.875q-0.46875 0.859375 -0.46875 2.484375l0 4.796875l-2.78125 0l0 -10.1875l2.125 0l0.375 1.3125l0.15625 0q0.328125 -0.53125 0.8125 -0.859375q0.484375 -0.328125 1.078125 -0.484375q0.609375 -0.15625 1.234375 -0.15625z" fill-rule="nonzero"/><path fill="#666666" d="m51.362206 470.30444l0 -332.56693l40.661415 0l0 332.56693z" fill-rule="evenodd"/><path fill="#ffffff" d="m78.61291 326.0264l0 2.78125l-13.3125 0l0 -7.640625l2.3125 0l0 4.859375l3.4375 0l0 -4.515625l2.296875 0l0 4.515625l5.265625 0zm-5.109375 -16.5047q1.28125 0 2.265625 0.34375q0.96875 0.34375 1.65625 1.0q0.671875 0.640625 1.03125 1.5625q0.34375 0.921875 0.34375 2.0625q0 1.078125 -0.34375 1.984375q-0.359375 0.890625 -1.03125 1.546875q-0.6875 0.65625 -1.65625 1.015625q-0.984375 0.359375 -2.265625 0.359375q-1.703125 0 -2.875 -0.59375q-1.171875 -0.609375 -1.78125 -1.71875q-0.609375 -1.109375 -0.609375 -2.640625q0 -1.4375 0.609375 -2.546875q0.609375 -1.109375 1.78125 -1.734375q1.171875 -0.640625 2.875 -0.640625zm0 7.046875q1.0 0 1.6875 -0.21875q0.6875 -0.21875 1.03125 -0.671875q0.34375 -0.46875 0.34375 -1.21875q0 -0.734375 -0.34375 -1.1875q-0.34375 -0.46875 -1.03125 -0.6875q-0.6875 -0.21875 -1.6875 -0.21875q-1.015625 0 -1.671875 0.21875q-0.671875 0.21875 -1.015625 0.6875q-0.34375 0.453125 -0.34375 1.203125q0 1.09375 0.765625 1.59375q0.75 0.5 2.265625 0.5zm5.296875 -13.472717q0 1.515625 -0.546875 2.578125q-0.5625 1.0625 -1.71875 1.625q-1.15625 0.546875 -2.953125 0.546875q-1.875 0 -3.046875 -0.625q-1.1875 -0.640625 -1.734375 -1.765625q-0.5625 -1.125 -0.5625 -2.609375q0 -1.046875 0.203125 -1.8125q0.203125 -0.78125 0.484375 -1.359375l2.15625 0.828125q-0.265625 0.65625 -0.4375 1.21875q-0.171875 0.5625 -0.171875 1.125q0 0.734375 0.34375 1.21875q0.34375 0.484375 1.03125 0.71875q0.6875 0.234375 1.703125 0.234375q1.015625 0 1.6875 -0.25q0.65625 -0.265625 0.984375 -0.734375q0.328125 -0.484375 0.328125 -1.1875q0 -0.859375 -0.234375 -1.53125q-0.234375 -0.671875 -0.65625 -1.3125l2.375 0q0.40625 0.640625 0.578125 1.34375q0.1875 0.6875 0.1875 1.75zm-10.375 -14.79541l10.1875 0l0 2.125l-1.296875 0.375l0 0.140625q0.515625 0.328125 0.84375 0.828125q0.328125 0.484375 0.484375 1.078125q0.15625 0.59375 0.15625 1.234375q0 1.09375 -0.390625 1.90625q-0.390625 0.796875 -1.203125 1.25q-0.828125 0.453125 -2.140625 0.453125l-6.640625 0l0 -2.78125l5.953125 0q1.09375 0 1.65625 -0.390625q0.546875 -0.390625 0.546875 -1.25q0 -0.84375 -0.390625 -1.328125q-0.390625 -0.484375 -1.140625 -0.671875q-0.75 -0.203125 -1.828125 -0.203125l-4.796875 0l0 -2.765625zm7.15625 -10.027008q1.046875 0 1.765625 0.484375q0.703125 0.484375 1.078125 1.453125q0.375 0.96875 0.375 2.40625q0 1.0625 -0.140625 1.828125q-0.140625 0.765625 -0.453125 1.53125l-2.296875 0q0.375 -0.828125 0.625 -1.78125q0.234375 -0.953125 0.234375 -1.671875q0 -0.8125 -0.234375 -1.15625q-0.25 -0.359375 -0.640625 -0.359375q-0.265625 0 -0.46875 0.15625q-0.203125 0.140625 -0.453125 0.609375q-0.265625 0.453125 -0.6875 1.453125q-0.40625 0.953125 -0.8125 1.5625q-0.40625 0.609375 -0.96875 0.90625q-0.5625 0.296875 -1.421875 0.296875q-1.421875 0 -2.125 -1.09375q-0.71875 -1.09375 -0.71875 -2.9375q0 -0.953125 0.1875 -1.8125q0.1875 -0.859375 0.609375 -1.765625l2.015625 0.84375q-0.328125 0.75 -0.53125 1.421875q-0.21875 0.671875 -0.21875 1.359375q0 0.609375 0.171875 0.921875q0.15625 0.3125 0.484375 0.3125q0.25 0 0.453125 -0.15625q0.1875 -0.171875 0.421875 -0.625q0.21875 -0.46875 0.59375 -1.359375q0.34375 -0.859375 0.734375 -1.5q0.390625 -0.640625 0.96875 -0.984375q0.5625 -0.34375 1.453125 -0.34375z" fill-rule="nonzero"/><path fill="#666666" d="m156.8985 31.696098l334.74014 0l0 40.661415l-334.74014 0z" fill-rule="evenodd"/><path fill="#ffffff" d="m283.4 52.27493q0 1.53125 -0.390625 2.796875q-0.375 1.265625 -1.15625 2.171875q-0.78125 0.90625 -1.96875 1.40625q-1.1875 0.484375 -2.828125 0.484375q-1.625 0 -2.828125 -0.484375q-1.1875 -0.5 -1.96875 -1.40625q-0.78125 -0.90625 -1.171875 -2.171875q-0.375 -1.265625 -0.375 -2.828125q0 -2.0625 0.671875 -3.59375q0.6875 -1.53125 2.09375 -2.375q1.421875 -0.859375 3.59375 -0.859375q2.171875 0 3.5625 0.859375q1.40625 0.84375 2.078125 2.390625q0.6875 1.53125 0.6875 3.609375zm-9.71875 0q0 1.390625 0.34375 2.40625q0.359375 1.0 1.09375 1.546875q0.75 0.53125 1.9375 0.53125q1.203125 0 1.953125 -0.53125q0.75 -0.546875 1.078125 -1.546875q0.34375 -1.015625 0.34375 -2.40625q0 -2.09375 -0.78125 -3.296875q-0.78125 -1.203125 -2.578125 -1.203125q-1.1875 0 -1.9375 0.546875q-0.75 0.53125 -1.109375 1.546875q-0.34375 1.0 -0.34375 2.40625zm17.94223 -3.703125q0.203125 0 0.484375 0.03125q0.28125 0.015625 0.453125 0.046875l-0.203125 2.609375q-0.140625 -0.046875 -0.390625 -0.0625q-0.25 -0.03125 -0.4375 -0.03125q-0.53125 0 -1.046875 0.140625q-0.5 0.140625 -0.90625 0.453125q-0.390625 0.296875 -0.625 0.796875q-0.234375 0.484375 -0.234375 1.203125l0 5.1875l-2.78125 0l0 -10.1875l2.109375 0l0.40625 1.71875l0.140625 0q0.296875 -0.515625 0.75 -0.953125q0.453125 -0.4375 1.03125 -0.6875q0.578125 -0.265625 1.25 -0.265625zm5.5655823 0.1875l0 10.1875l-2.78125 0l0 -10.1875l2.78125 0zm-1.390625 -3.984375q0.625 0 1.0625 0.296875q0.453125 0.28125 0.453125 1.0625q0 0.765625 -0.453125 1.0625q-0.4375 0.296875 -1.0625 0.296875q-0.625 0 -1.0625 -0.296875q-0.4375 -0.296875 -0.4375 -1.0625q0 -0.78125 0.4375 -1.0625q0.4375 -0.296875 1.0625 -0.296875zm8.50592 3.796875q1.40625 0 2.421875 0.546875q1.03125 0.53125 1.578125 1.5625q0.5625 1.03125 0.5625 2.515625l0 1.34375l-6.5625 0q0.046875 1.1875 0.703125 1.859375q0.65625 0.65625 1.828125 0.65625q0.984375 0 1.796875 -0.1875q0.8125 -0.203125 1.65625 -0.609375l0 2.15625q-0.75 0.375 -1.578125 0.546875q-0.828125 0.171875 -2.0 0.171875q-1.53125 0 -2.71875 -0.5625q-1.171875 -0.578125 -1.84375 -1.734375q-0.65625 -1.15625 -0.65625 -2.90625q0 -1.796875 0.59375 -2.984375q0.609375 -1.1875 1.6875 -1.78125q1.09375 -0.59375 2.53125 -0.59375zm0.015625 1.96875q-0.8125 0 -1.34375 0.53125q-0.53125 0.515625 -0.609375 1.625l3.890625 0q0 -0.625 -0.21875 -1.09375q-0.21875 -0.484375 -0.640625 -0.765625q-0.421875 -0.296875 -1.078125 -0.296875zm12.584991 -1.96875q1.640625 0 2.625 0.890625q1.0 0.890625 1.0 2.84375l0 6.640625l-2.78125 0l0 -5.953125q0 -1.09375 -0.40625 -1.640625q-0.390625 -0.5625 -1.234375 -0.5625q-1.265625 0 -1.734375 0.875q-0.46875 0.859375 -0.46875 2.484375l0 4.796875l-2.78125 0l0 -10.1875l2.125 0l0.375 1.3125l0.15625 0q0.328125 -0.53125 0.8125 -0.859375q0.484375 -0.328125 1.078125 -0.484375q0.609375 -0.15625 1.234375 -0.15625zm10.777008 8.34375q0.453125 0 0.875 -0.09375q0.4375 -0.09375 0.875 -0.21875l0 2.0625q-0.453125 0.203125 -1.109375 0.328125q-0.65625 0.140625 -1.4375 0.140625q-0.921875 0 -1.640625 -0.296875q-0.71875 -0.296875 -1.140625 -1.03125q-0.40625 -0.734375 -0.40625 -2.046875l0 -4.90625l-1.34375 0l0 -1.1875l1.53125 -0.921875l0.8125 -2.15625l1.765625 0l0 2.171875l2.859375 0l0 2.09375l-2.859375 0l0 4.90625q0 0.578125 0.328125 0.875q0.34375 0.28125 0.890625 0.28125zm7.973358 -8.359375q2.046875 0 3.140625 0.890625q1.09375 0.890625 1.09375 2.71875l0 6.78125l-1.9375 0l-0.53125 -1.390625l-0.078125 0q-0.4375 0.546875 -0.890625 0.90625q-0.453125 0.34375 -1.046875 0.5q-0.59375 0.171875 -1.4375 0.171875q-0.90625 0 -1.625 -0.34375q-0.703125 -0.359375 -1.125 -1.0625q-0.40625 -0.71875 -0.40625 -1.828125q0 -1.625 1.140625 -2.390625q1.140625 -0.765625 3.421875 -0.84375l1.765625 -0.0625l0 -0.4375q0 -0.8125 -0.421875 -1.171875q-0.421875 -0.375 -1.171875 -0.375q-0.734375 0 -1.453125 0.203125q-0.703125 0.203125 -1.40625 0.53125l-0.921875 -1.875q0.8125 -0.4375 1.8125 -0.671875q1.015625 -0.25 2.078125 -0.25zm1.484375 5.671875l-1.078125 0.03125q-1.34375 0.046875 -1.875 0.5q-0.515625 0.4375 -0.515625 1.15625q0 0.640625 0.359375 0.921875q0.375 0.265625 0.984375 0.265625q0.890625 0 1.5 -0.53125q0.625 -0.53125 0.625 -1.5l0 -0.84375zm9.909058 2.6875q0.453125 0 0.875 -0.09375q0.4375 -0.09375 0.875 -0.21875l0 2.0625q-0.453125 0.203125 -1.109375 0.328125q-0.65625 0.140625 -1.4375 0.140625q-0.921875 0 -1.640625 -0.296875q-0.71875 -0.296875 -1.140625 -1.03125q-0.40625 -0.734375 -0.40625 -2.046875l0 -4.90625l-1.34375 0l0 -1.1875l1.53125 -0.921875l0.8125 -2.15625l1.765625 0l0 2.171875l2.859375 0l0 2.09375l-2.859375 0l0 4.90625q0 0.578125 0.328125 0.875q0.34375 0.28125 0.890625 0.28125zm6.582733 -8.15625l0 10.1875l-2.78125 0l0 -10.1875l2.78125 0zm-1.390625 -3.984375q0.625 0 1.0625 0.296875q0.453125 0.28125 0.453125 1.0625q0 0.765625 -0.453125 1.0625q-0.4375 0.296875 -1.0625 0.296875q-0.625 0 -1.0625 -0.296875q-0.4375 -0.296875 -0.4375 -1.0625q0 -0.78125 0.4375 -1.0625q0.4375 -0.296875 1.0625 -0.296875zm13.56842 9.0625q0 1.28125 -0.34375 2.265625q-0.34375 0.96875 -1.0 1.65625q-0.640625 0.671875 -1.5625 1.03125q-0.921875 0.34375 -2.0625 0.34375q-1.078125 0 -1.984375 -0.34375q-0.890625 -0.359375 -1.546875 -1.03125q-0.65625 -0.6875 -1.015625 -1.65625q-0.359375 -0.984375 -0.359375 -2.265625q0 -1.703125 0.59375 -2.875q0.609375 -1.171875 1.71875 -1.78125q1.109375 -0.609375 2.640625 -0.609375q1.4375 0 2.546875 0.609375q1.109375 0.609375 1.734375 1.78125q0.640625 1.171875 0.640625 2.875zm-7.046875 0q0 1.0 0.21875 1.6875q0.21875 0.6875 0.671875 1.03125q0.46875 0.34375 1.21875 0.34375q0.734375 0 1.1875 -0.34375q0.46875 -0.34375 0.6875 -1.03125q0.21875 -0.6875 0.21875 -1.6875q0 -1.015625 -0.21875 -1.671875q-0.21875 -0.671875 -0.6875 -1.015625q-0.453125 -0.34375 -1.203125 -0.34375q-1.09375 0 -1.59375 0.765625q-0.5 0.75 -0.5 2.265625zm15.113342 -5.265625q1.640625 0 2.625 0.890625q1.0 0.890625 1.0 2.84375l0 6.640625l-2.78125 0l0 -5.953125q0 -1.09375 -0.40625 -1.640625q-0.390625 -0.5625 -1.234375 -0.5625q-1.265625 0 -1.734375 0.875q-0.46875 0.859375 -0.46875 2.484375l0 4.796875l-2.78125 0l0 -10.1875l2.125 0l0.375 1.3125l0.15625 0q0.328125 -0.53125 0.8125 -0.859375q0.484375 -0.328125 1.078125 -0.484375q0.609375 -0.15625 1.234375 -0.15625z" fill-rule="nonzero"/><path fill="#000000" fill-opacity="0.0" d="m156.89781 138.55272l162.07875 0l0 159.87401l-162.07875 0z" fill-rule="evenodd"/><path fill="#c77640" d="m262.24185 253.14972l-47.906235 0l0 -10.078125l17.203125 -17.390625q5.203125 -5.34375 8.359375 -8.921875q3.171875 -3.59375 4.59375 -6.546875q1.4375 -2.953125 1.4375 -6.328125q0 -4.078125 -2.28125 -6.109375q-2.265625 -2.046875 -6.0625 -2.046875q-3.984375 0 -7.734375 1.828125q-3.75 1.828125 -7.828125 5.203125l-7.875 -9.328125q2.953125 -2.53125 6.25 -4.78125q3.3125 -2.25 7.6875 -3.625q4.390625 -1.390625 10.53125 -1.390625q6.75 0 11.59375 2.4375q4.859375 2.4375 7.4843597 6.640625q2.625 4.1875 2.625 9.484375q0 5.671875 -2.25 10.359375q-2.2499847 4.6875 -6.5468597 9.28125q-4.28125 4.59375 -10.328125 10.171875l-8.8125 8.296875l0 0.65625l29.85936 0l0 12.1875z" fill-rule="nonzero"/><path fill="#000000" fill-opacity="0.0" d="m331.82 138.55272l162.07874 0l0 159.87401l-162.07874 0z" fill-rule="evenodd"/><path fill="#c77640" d="m425.0703 253.14972l-14.484375 0l0 -39.65625q0 -1.640625 0.046875 -4.046875q0.046875 -2.421875 0.140625 -4.96875q0.09375 -2.5625 0.1875 -4.625q-0.515625 0.609375 -2.09375 2.09375q-1.5625 1.46875 -2.921875 2.640625l-7.875 6.328125l-6.984375 -8.71875l22.078125 -17.578125l11.90625 0l0 68.53125z" fill-rule="nonzero"/><path fill="#000000" fill-opacity="0.0" d="m156.89796 309.61523l162.07875 0l0 159.87402l-162.07875 0z" fill-rule="evenodd"/><path fill="#c77640" d="m259.57016 371.00912q0 4.734375 -1.96875 8.203125q-1.9687653 3.46875 -5.3281403 5.671875q-3.34375 2.203125 -7.515625 3.234375l0 0.28125q8.25 1.03125 12.531265 5.0625q4.296875 4.03125 4.296875 10.78125q0 6.0 -2.9375 10.734375q-2.9218903 4.734375 -9.01564 7.453125q-6.09375 2.71875 -15.703125 2.71875q-5.671875 0 -10.578125 -0.921875q-4.890625 -0.90625 -9.203125 -2.78125l0 -12.328125q4.40625 2.25 9.234375 3.40625q4.828125 1.140625 9.0 1.140625q7.78125 0 10.890625 -2.6875q3.125 -2.703125 3.125 -7.578125q0 -2.859375 -1.453125 -4.828125q-1.453125 -1.96875 -5.046875 -3.0q-3.578125 -1.03125 -10.0 -1.03125l-5.203125 0l0 -11.109375l5.296875 0q6.328125 0 9.625 -1.1875q3.3125 -1.203125 4.5 -3.28125q1.203125 -2.09375 1.203125 -4.765625q0 -3.65625 -2.25 -5.71875q-2.25 -2.0625 -7.5 -2.0625q-3.28125 0 -5.984375 0.828125q-2.6875 0.8125 -4.84375 1.96875q-2.15625 1.140625 -3.796875 2.21875l-6.703125 -9.984375q4.03125 -2.90625 9.4375 -4.828125q5.421875 -1.921875 12.921875 -1.921875q10.59375 0 16.78125 4.265625q6.1875153 4.265625 6.1875153 12.046875z" fill-rule="nonzero"/><path fill="#000000" fill-opacity="0.0" d="m331.82 309.61557l162.07874 0l0 159.87402l-162.07874 0z" fill-rule="evenodd"/><path fill="#c77640" d="m438.71094 410.00943l-8.25 0l0 14.203125l-14.15625 0l0 -14.203125l-29.25 0l0 -10.078125l30.046875 -44.25l13.359375 0l0 43.078125l8.25 0l0 11.25zm-22.40625 -11.25l0 -11.625q0 -1.640625 0.0625 -3.890625q0.078125 -2.25 0.171875 -4.5q0.09375 -2.25 0.203125 -4.0q0.125 -1.765625 0.171875 -2.46875l-0.375 0q-0.890625 1.921875 -1.875 3.734375q-0.984375 1.796875 -2.296875 3.765625l-12.5625 18.984375l16.5 0z" fill-rule="nonzero"/><path fill="#000000" fill-opacity="0.0" d="m245.20227 138.37424l162.07874 0l0 159.87402l-162.07874 0z" fill-rule="evenodd"/><path fill="#c77640" d="m323.1142 211.8425l0 -3.421875l-7.21875 8.3125l7.21875 8.484375l0 -3.359375l16.140625 0l0 -10.015625l-16.140625 0zm20.453125 14.328125l-16.140625 0l0 11.21875l-17.5 -20.671875l17.5 -20.359375l0 11.171875l16.140625 0l0 18.640625z" fill-rule="nonzero"/><path fill="#000000" fill-opacity="0.0" d="m405.30725 469.14853l-162.07874 0l0 -159.87402l162.07874 0z" fill-rule="evenodd"/><path fill="#c77640" d="m327.39532 395.68027l0 3.421875l7.21875 -8.3125l-7.21875 -8.484375l0 3.359375l-16.140625 0l0 10.015625l16.140625 0zm-20.453125 -14.328125l16.140625 0l0 -11.21875l17.5 20.671875l-17.5 20.359375l0 -11.171875l-16.140625 0l0 -18.640625z" fill-rule="nonzero"/><path fill="#000000" fill-opacity="0.0" d="m153.05266 385.0593l0 -162.07875l159.87401 0l0 162.07875z" fill-rule="evenodd"/><path fill="#c77640" d="m226.52092 307.14737l-3.421875 0l8.3125 7.21875l8.484375 -7.21875l-3.359375 0l0 -16.140625l-10.015625 0l0 16.140625zm14.328125 -20.453125l0 16.140625l11.21875 0l-20.671875 17.5l-20.359375 -17.5l11.171875 0l0 -16.140625l18.640625 0z" fill-rule="nonzero"/></g></svg>