<?xml version="1.0" encoding="UTF-8" standalone="no"?> <!-- Created with Inkscape (http://www.inkscape.org/) --> <svg xmlns:dc="http://purl.org/dc/elements/1.1/" xmlns:cc="http://creativecommons.org/ns#" xmlns:rdf="http://www.w3.org/1999/02/22-rdf-syntax-ns#" xmlns:svg="http://www.w3.org/2000/svg" xmlns="http://www.w3.org/2000/svg" xmlns:sodipodi="http://sodipodi.sourceforge.net/DTD/sodipodi-0.dtd" xmlns:inkscape="http://www.inkscape.org/namespaces/inkscape" id="svg2" width="213.33333" height="213.33333" viewBox="0 0 213.33333 213.33333" sodipodi:docname="jitsi.meet.svg" inkscape:version="0.92.4 5da689c313, 2019-01-14"><metadata id="metadata8"></metadata><defs id="defs6"></defs><ellipse style="fill:#828282;fill-opacity:1;stroke:none;stroke-width:4.63701916;stroke-linecap:square;stroke-miterlimit:4;stroke-dasharray:none;stroke-dashoffset:0;stroke-opacity:1;paint-order:stroke markers fill" id="path825" cx="105.64674" cy="108.57057" rx="100.223" ry="100.243"></ellipse><path style="fill:#202025;stroke-width:0.21301192;fill-opacity:1" d="m 57.522397,172.77945 c -2.194418,-5.76958 -3.240438,-11.21201 -3.687629,-19.18667 -0.438214,-7.81464 0.403878,-13.34616 2.74589,-18.03717 1.517741,-3.04001 3.272916,-5.16634 5.467081,-6.62318 1.494928,-0.99258 3.002183,-1.18346 4.926847,-0.62395 1.842069,0.53551 3.020765,1.18924 6.907614,3.83115 5.135499,3.49062 7.90377,5.05779 9.144778,5.17703 0.935463,0.0899 1.076639,0.0385 1.753153,-0.63801 1.350035,-1.35003 2.511732,-4.52215 2.518672,-6.87748 l 0.003,-1.06818 -1.466451,-0.68322 c -4.626861,-2.15565 -8.875866,-9.73099 -10.049353,-17.91649 -0.318888,-2.22435 -0.143855,-6.70894 0.329671,-8.44657 0.62397,-2.289691 1.951879,-4.669571 3.575677,-6.408321 3.680496,-3.94104 7.935381,-5.89616 16.647975,-7.64978 5.013618,-1.0091 5.498978,-1.21851 5.514948,-2.3794 0.005,-0.3319 -0.21019,-1.60993 -0.47723,-2.84007 -0.43314,-1.99527 -0.47285,-2.61591 -0.36799,-5.75133 0.17617,-5.26791 1.37585,-10.41926 2.92431,-12.55684 0.85955,-1.18658 2.34446,-2.098085 8.39735,-5.1547 5.99361,-3.026675 8.0127,-4.285429 10.18714,-6.35094 3.45687,-3.283692 4.66325,-6.51522 4.97299,-13.321113 0.0693,-1.523031 0.19511,-2.899588 0.27955,-3.059017 0.30631,-0.578315 3.54377,9.452681 3.85697,11.950503 0.53746,4.286384 -1.00919,8.844389 -4.28575,12.630158 -0.46509,0.537368 -0.84561,1.157607 -0.84561,1.378319 0,0.22071 0.51912,1.38912 1.1536,2.59645 2.0748,3.94808 2.72052,7.1103 2.14355,10.49739 -0.18926,1.11109 -0.31359,2.2857 -0.2763,2.61028 l 0.0678,0.59012 3.6212,0.13062 c 5.32639,0.19213 7.5379,0.97158 10.13606,3.57248 3.97009,3.97429 5.06955,11.59356 3.4827,24.135411 -1.99132,15.73889 -7.94952,28.11811 -16.36997,34.01153 -0.69307,0.48509 -1.41199,0.87879 -1.59759,0.87489 -0.18559,-0.004 -1.00423,-0.58042 -1.81919,-1.28118 -0.81497,-0.70076 -1.57773,-1.24211 -1.69502,-1.20302 -0.1173,0.0391 -0.73129,0.97509 -1.36442,2.07998 -4.35315,7.59685 -10.74968,12.47569 -19.24047,14.67531 -4.37492,1.13337 -7.905632,1.55975 -15.093031,1.82269 -2.904939,0.10628 -3.680995,0.0699 -4.473253,-0.20968 -0.527204,-0.18604 -3.019444,-1.71659 -5.53831,-3.40123 -2.518866,-1.68464 -4.771463,-3.11832 -5.005778,-3.18595 -0.305172,-0.0881 -1.095251,0.34427 -2.785241,1.52419 -5.479587,3.82576 -7.472272,5.89934 -9.463949,9.84813 -0.885069,1.75477 -2.546769,6.81099 -3.307758,10.06481 -0.321955,1.37659 -0.660776,2.50289 -0.752938,2.50289 -0.09216,0 -0.450124,-0.74288 -0.795459,-1.65084 z m 16.892335,-27.48091 c 2.443077,-1.22257 7.903747,-5.20933 8.144107,-5.94591 0.04619,-0.14154 -0.725087,-0.62826 -1.775876,-1.12067 -2.062392,-0.96647 -4.314652,-2.28168 -7.923239,-4.62678 -1.323872,-0.86034 -2.54603,-1.56427 -2.715899,-1.56427 -0.245367,0 -0.308851,0.36912 -0.308851,1.79586 0,0.98771 -0.195354,3.29974 -0.434109,5.13783 -0.482907,3.71759 -0.431774,4.15128 0.643164,5.45536 0.754079,0.91483 2.267969,1.72202 2.876947,1.53395 0.235778,-0.0728 0.907971,-0.37223 1.493756,-0.66537 z m 55.995088,-5.88262 c 1.73257,-1.23786 4.56014,-4.09464 6.13999,-6.20344 6.04824,-8.07323 9.35167,-19.04918 9.87293,-32.80384 0.28408,-7.495781 -0.62458,-11.987651 -3.21242,-15.880311 -2.67757,-4.02765 -6.44092,-5.10274 -7.91162,-2.26014 -1.05963,2.04808 -1.20039,4.92202 -0.3834,7.8278 0.29574,1.05185 1.45349,4.52141 2.57278,7.71014 1.11929,3.188741 2.40574,7.064241 2.85878,8.612251 1.64849,5.63271 2.45778,11.05993 1.93535,12.97863 -0.62058,2.27916 -4.57689,4.22398 -11.24546,5.52799 -1.494,0.29214 -2.77825,0.6313 -2.85389,0.75367 -0.0756,0.12239 -0.20048,1.00486 -0.27744,1.96105 -0.21769,2.70483 -0.76035,5.60827 -1.43331,7.66884 -0.33825,1.03568 -0.615,2.04795 -0.615,2.24948 0,0.37295 2.62153,2.79034 3.02597,2.79034 0.12189,0 0.80892,-0.41961 1.52674,-0.93246 z m 1.30512,-15.78324 c 2.42547,-0.52504 6.04494,-1.63496 6.28844,-1.92838 0.17261,-0.20797 -0.21635,-0.59018 -1.64665,-1.6181 -1.02995,-0.7402 -3.57811,-2.61878 -5.66257,-4.17463 -4.06524,-3.0343 -5.96458,-4.23619 -8.99078,-5.68934 -9.68341,-4.64985 -20.72409,-4.62175 -30.460707,0.0775 -2.170464,1.04755 -3.065406,1.60303 -2.875328,1.78469 0.05843,0.0558 1.112653,-0.14322 2.342796,-0.44228 2.056317,-0.4999 2.631587,-0.54466 7.135899,-0.55513 4.75603,-0.011 4.95533,0.006 6.81638,0.57506 2.63357,0.80561 5.85616,2.41152 8.0021,3.98767 0.98805,0.72571 3.04258,2.59677 4.56561,4.15793 2.90491,2.97761 3.81598,3.61205 5.85752,4.079 1.4931,0.3415 6.56635,0.19214 8.62729,-0.254 z M 84.387117,110.2046 c 5.262466,-0.8735 6.033299,-1.05655 8.453145,-2.0074 6.776072,-2.6626 12.326808,-3.58941 18.212518,-3.04098 1.85846,0.17317 2.50509,0.13426 5.07032,-0.30513 3.31108,-0.56715 13.69736,-2.96368 19.80069,-4.56882 0.98279,-0.25847 1.05294,0.15356 -1.03631,-6.086511 -0.96762,-2.89003 -1.66118,-5.35488 -1.78782,-6.35371 -0.22846,-1.80186 -0.002,-4.08024 0.5327,-5.36 0.17556,-0.42019 0.3192,-0.9516 0.3192,-1.18092 0,-0.35796 -0.0979,-0.39652 -0.69229,-0.27269 -1.15843,0.24135 -4.43291,1.89808 -6.11549,3.09413 -0.87395,0.62125 -2.77636,2.1294 -4.22758,3.35146 -5.19496,4.37463 -9.69387,7.17361 -11.53041,7.17361 -1.14307,0 -2.84202,-1.11017 -5.49177,-3.58859 l -2.25286,-2.10719 -2.15202,0.13305 c -2.156911,0.13334 -5.197287,0.70128 -9.239565,1.72594 -6.088529,1.54336 -10.262856,3.88207 -12.483476,6.99399 -1.448347,2.02968 -1.98714,3.714391 -2.365519,7.396571 -0.202398,1.96965 0.457631,5.96434 0.985469,5.96434 0.115819,0 2.8163,-0.43252 6.001068,-0.96115 z M 113.12166,93.061729 c 2.44967,-0.92224 6.87458,-4.40425 8.79092,-6.91764 1.30093,-1.70626 2.66388,-4.24584 2.66542,-4.96646 6.4e-4,-0.27759 -0.15879,-0.53533 -0.37173,-0.6011 -4.3186,-1.33384 -5.78001,-2.85734 -6.56338,-6.84222 -0.44255,-2.25115 -0.61559,-2.61481 -1.24423,-2.61481 -0.71576,0 -5.60446,1.7218 -8.41002,2.96201 -2.51665,1.11251 -4.81343,2.52668 -5.40711,3.32929 -1.31308,1.77515 -0.49663,6.6613 1.6535,9.89554 1.23966,1.86472 3.33682,4.12928 4.87083,5.25963 1.453,1.07066 2.23297,1.16695 4.0158,0.49576 z m 12.9696,-15.35391 c 0.57367,-0.40848 1.43753,-1.68904 1.13942,-1.68904 -0.25302,0 -3.07554,2.02748 -3.07659,2.20999 -0.002,0.30088 1.25925,-0.0382 1.93717,-0.52095 z m -19.31083,-4.68565 c 0.12495,-0.12168 0.0243,-0.43453 -0.26627,-0.82752 -0.25694,-0.34753 -0.46716,-0.69507 -0.46716,-0.77231 0,-0.19435 -1.9934,-2.64419 -2.15234,-2.64517 -0.20961,-0.001 -1.01887,2.95934 -1.28748,4.71015 -0.38388,2.50222 -0.31502,2.53759 1.99545,1.02485 1.08729,-0.7119 2.06731,-1.38239 2.1778,-1.49 z m 18.13144,-10.88322 c 2.11518,-2.187621 3.42635,-3.988788 4.36696,-5.998949 1.60998,-3.440621 1.9577,-7.347261 0.98019,-11.012272 -0.6405,-2.401413 -1.33988,-4.117411 -1.61007,-3.950422 -0.10657,0.06589 -0.25817,0.719028 -0.33687,1.451466 -0.86319,8.03349 -2.20284,13.090887 -4.93527,18.631495 -1.97327,4.001252 -1.65838,4.181492 1.53506,0.878682 z" id="path825-3" inkscape:connector-curvature="0"></path></svg> 