<?xml version="1.0" encoding="UTF-8" standalone="no"?>
<!DOCTYPE svg PUBLIC "-//W3C//DTD SVG 1.1//EN" "http://www.w3.org/Graphics/SVG/1.1/DTD/svg11.dtd">
<svg xmlns="http://www.w3.org/2000/svg" xmlns:xlink="http://www.w3.org/1999/xlink" version="1.1" width="242.87999pt" height="392.88pt" viewBox="0 0 242.87999 392.88">
<g enable-background="new">
<clipPath id="cp0">
<path transform="matrix(.24,0,0,.24,0,0)" d="M 0 0 L 1012.49996 0 L 1012.49996 1635.5768 L 0 1635.5768 Z " fill-rule="evenodd"/>
</clipPath>
<g clip-path="url(#cp0)">
<path transform="matrix(.7476922,0,0,.7476922,0,0)" d="M 0 0 L 325 0 L 325 525 L 0 525 Z " fill="#ffffff"/>
</g>
<clipPath id="cp1">
<path transform="matrix(.24,0,0,.24,0,0)" d="M 0 0 L 1012.49996 0 L 1012.49996 1635.5768 L 0 1635.5768 Z " fill-rule="evenodd"/>
</clipPath>
<g clip-path="url(#cp1)">
<path transform="matrix(.124728169,0,0,.124680187,121.68886,111.12949)" d="M 4 .79999998 L 4 32.8 L -4 32.8 L -4 .79999998 M 4 64.8 L 4 96.8 L -4 96.8 L -4 64.8 M 4 128.8 L 4 160.8 L -4 160.8 L -4 128.8 M 4 192.8 L 4 224.8 L -4 224.8 L -4 192.8 M 4 256.8 L 4 288.8 L -4 288.8 L -4 256.8 M 4 320.8 L 4 352.8 L -4 352.8 L -4 320.8 M 4 384.8 L 4 416.8 L -4 416.8 L -4 384.8 M 4 448.8 L 4 480.8 L -4 480.8 L -4 448.8 M 4 512.8 L 4 544.8 L -4 544.8 L -4 512.8 M 4 576.8 L 4 608.8 L -4 608.8 L -4 576.8 M 4 640.8 L 4 672.8 L -4 672.8 L -4 640.8 M 4 704.8 L 4 736.8 L -4 736.8 L -4 704.8 M 4 768.8 L 4 800.8 L -4 800.8 L -4 768.8 M 4 832.8 L 4 864.8 L -4 864.8 L -4 832.8 M 4 896.8 L 4 928.8 L -4 928.8 L -4 896.8 M 4 960.8 L 4 992.8 L -4 992.8 L -4 960.8 M 4 1024.8 L 4 1056.8 L -4 1056.8 L -4 1024.8 M 4 1088.8 L 4 1120.8 L -4 1120.8 L -4 1088.8 M 4 1152.8 L 4 1184.8 L -4 1184.8 L -4 1152.8 M 4 1216.8 L 4 1248.8 L -4 1248.8 L -4 1216.8 M 4 1280.8 L 4 1312.8 L -4 1312.8 L -4 1280.8 M 4 1344.8 L 4 1376.8 L -4 1376.8 L -4 1344.8 M 4 1408.8 L 4 1440.8 L -4 1440.8 L -4 1408.8 M 4 1472.8 L 4 1504.8 L -4 1504.8 L -4 1472.8 M 4 1536.8 L 4 1568.8 L -4 1568.8 L -4 1536.8 M 4 1600.8 L 4 1632.8 L -4 1632.8 L -4 1600.8 M 4 1664.8 L 4 1696.8 L -4 1696.8 L -4 1664.8 M 4 1728.8 L 4 1760.8 L -4 1760.8 L -4 1728.8 M 4 1792.8 L 4 1824.8 L -4 1824.8 L -4 1792.8 M 4 1856.8 L 4 1888.8 L -4 1888.8 L -4 1856.8 M 4 1920.8 L 4 1952.8 L -4 1952.8 L -4 1920.8 M 4 1984.8 L 4 2016.8 L -4 2016.8 L -4 1984.8 M 4 2048.8 L 4 2062.4036 L -4 2062.4036 L -4 2048.8 "/>
</g>
<clipPath id="cp2">
<path transform="matrix(.24,0,0,.24,0,0)" d="M 0 0 L 1012.49996 0 L 1012.49996 1635.5768 L 0 1635.5768 Z "/>
</clipPath>
<g clip-path="url(#cp2)">
<clipPath id="cp3">
<path transform="matrix(.24,0,0,.24,0,0)" d="M 0 0 L 1012.49996 0 L 1012.49996 1635.5768 L 0 1635.5768 Z "/>
</clipPath>
<g clip-path="url(#cp3)">
<clipPath id="cp4">
<path transform="matrix(.24,0,0,.24,0,0)" d="M 223.95766 463.03959 L 790.3058 463.03959 L 790.3058 1534.8754 L 223.95766 1534.8754 Z "/>
</clipPath>
<g clip-path="url(#cp4)">
<clipPath id="cp5">
<path transform="matrix(.24,0,0,.24,0,0)" d="M 308.90989 463.03959 L 705.3536 463.03959 L 790.3058 1534.8754 L 223.95766 1534.8754 L 308.90989 463.03959 Z "/>
</clipPath>
<g clip-path="url(#cp5)">
<path transform="matrix(.124728169,0,0,.124680187,53.749837,111.12949)" d="M 163.46375 0 L 926.2945 0 L 1089.7583 2063.2034 L 0 2063.2034 L 163.46375 0 Z " fill="#808080" fill-opacity=".502" fill-rule="evenodd"/>
</g>
</g>
</g>
</g>
<clipPath id="cp6">
<path transform="matrix(.24,0,0,.24,0,0)" d="M 0 0 L 1012.49996 0 L 1012.49996 1635.5768 L 0 1635.5768 Z "/>
</clipPath>
<g clip-path="url(#cp6)">
<clipPath id="cp7">
<path transform="matrix(.24,0,0,.24,0,0)" d="M 0 0 L 1012.49996 0 L 1012.49996 1635.5768 L 0 1635.5768 Z "/>
</clipPath>
<g clip-path="url(#cp7)">
<clipPath id="cp8">
<path transform="matrix(.24,0,0,.24,0,0)" d="M 408.5529 188.76114 L 605.7151 188.76114 L 605.7151 386.13255 L 408.5529 386.13255 Z "/>
</clipPath>
<g clip-path="url(#cp8)">
<clipPath id="cp9">
<path transform="matrix(.24,0,0,.24,0,0)" d="M 507.13398 346.65827 L 447.98533 386.13255 L 457.84346 313.1051 L 408.5529 263.76228 L 477.55967 253.8937 L 507.13398 188.76114 L 536.7083 253.8937 L 605.7151 263.76228 L 556.42459 313.1051 L 566.28268 386.13255 L 507.13398 346.65827 Z "/>
</clipPath>
<g clip-path="url(#cp9)">
<path transform="matrix(.124728169,0,0,.124680187,98.05269,45.302675)" d="M 189.68822 303.9401 L 75.87529 379.9251 L 94.84411 239.35282 L 0 144.37154 L 132.78176 125.37528 L 189.68822 0 L 246.5947 125.37528 L 379.37644 144.37154 L 284.53236 239.35282 L 303.50117 379.9251 L 189.68822 303.9401 Z " fill="#fef445" fill-rule="evenodd"/>
<path transform="matrix(.124728169,0,0,.124680187,98.05269,45.302675)" stroke-width="8" stroke-linecap="butt" stroke-miterlimit="4" stroke-linejoin="miter" fill="none" stroke="#1a1a1a" d="M 189.68822 303.9401 L 75.87529 379.9251 L 94.84411 239.35282 L 0 144.37154 L 132.78176 125.37528 L 189.68822 0 L 246.5947 125.37528 L 379.37644 144.37154 L 284.53236 239.35282 L 303.50117 379.9251 L 189.68822 303.9401 Z "/>
</g>
</g>
</g>
</g>
<clipPath id="cp10">
<path transform="matrix(.24,0,0,.24,0,0)" d="M 0 0 L 1012.49996 0 L 1012.49996 1635.5768 L 0 1635.5768 Z " fill-rule="evenodd"/>
</clipPath>
<g clip-path="url(#cp10)">
<text fill="#1a1a1a" xml:space="preserve" transform="matrix(.7492204 0 0 .7476922 110.352687 61.40818)" font-size="9.17" font-family="OpenSans"><tspan y="16.856017" x="2.361751 7.811687 10.127575 14.495571 16.811459 22.34187">Vision</tspan></text>
</g>
<clipPath id="cp11">
<path transform="matrix(.24,0,0,.24,0,0)" d="M 0 0 L 1012.49996 0 L 1012.49996 1635.5768 L 0 1635.5768 Z "/>
</clipPath>
<g clip-path="url(#cp11)">
<clipPath id="cp12">
<path transform="matrix(.24,0,0,.24,0,0)" d="M 0 0 L 1012.49996 0 L 1012.49996 1635.5768 L 0 1635.5768 Z "/>
</clipPath>
<g clip-path="url(#cp12)">
<clipPath id="cp13">
<path transform="matrix(.24,0,0,.24,0,0)" d="M 388.5756 519.6149 L 625.66128 519.6149 L 625.66128 721.63528 L 388.5756 721.63528 Z "/>
</clipPath>
<g clip-path="url(#cp13)">
<clipPath id="cp14">
<path transform="matrix(.24,0,0,.24,0,0)" d="M 507.11845 519.6149 L 625.66128 721.63528 L 388.5756 721.63528 L 507.11845 519.6149 Z "/>
</clipPath>
<g clip-path="url(#cp14)">
<path transform="matrix(.124728169,0,0,.124680187,93.25814,124.70758)" d="M 228.0983 0 L 456.1966 388.874 L 0 388.874 L 228.0983 0 Z " fill="#2d9bf0" fill-rule="evenodd"/>
<path transform="matrix(.124728169,0,0,.124680187,93.25814,124.70758)" stroke-width="8" stroke-linecap="butt" stroke-miterlimit="4" stroke-linejoin="miter" fill="none" stroke="#1a1a1a" d="M 228.0983 0 L 456.1966 388.874 L 0 388.874 L 228.0983 0 Z "/>
</g>
</g>
</g>
</g>
<clipPath id="cp15">
<path transform="matrix(.24,0,0,.24,0,0)" d="M 0 0 L 1012.49996 0 L 1012.49996 1635.5768 L 0 1635.5768 Z " fill-rule="evenodd"/>
</clipPath>
<g clip-path="url(#cp15)">
<text fill="#1a1a1a" xml:space="preserve" transform="matrix(.7492204 0 0 .7476922 107.48006 148.95003)" font-size="9.17" font-family="OpenSans"><tspan y="12.876444" x="2.598613 10.865169 13.181056 17.549054 21.91705 24.232937 29.763348">Mission</tspan></text>
</g>
<clipPath id="cp16">
<path transform="matrix(.24,0,0,.24,0,0)" d="M 0 0 L 1012.49996 0 L 1012.49996 1635.5768 L 0 1635.5768 Z "/>
</clipPath>
<g clip-path="url(#cp16)">
<clipPath id="cp17">
<path transform="matrix(.24,0,0,.24,0,0)" d="M 0 0 L 1012.49996 0 L 1012.49996 1635.5768 L 0 1635.5768 Z "/>
</clipPath>
<g clip-path="url(#cp17)">
<clipPath id="cp18">
<path transform="matrix(.24,0,0,.24,0,0)" d="M 406.0908 897.94729 L 608.18887 897.94729 L 608.18887 1099.9677 L 406.0908 1099.9677 Z "/>
</clipPath>
<g clip-path="url(#cp18)">
<clipPath id="cp19">
<path transform="matrix(.24,0,0,.24,0,0)" d="M 406.0908 998.95748 C 406.0908 992.325 406.738 985.7563 408.0324 979.2513 C 409.3268 972.7463 411.24357 966.43 413.78266 960.3024 C 416.32176 954.17489 419.4344 948.35379 423.12059 942.8391 C 426.80677 937.32449 430.9957 932.2222 435.68736 927.5324 C 440.37898 922.8425 445.4832 918.6552 450.99995 914.97048 C 456.51673 911.28567 462.3401 908.1742 468.47 905.6361 C 474.5999 903.098 480.9186 901.182 487.4261 899.88809 C 493.9336 898.5942 500.50486 897.94729 507.13984 897.94729 C 513.7748 897.94729 520.346 898.59426 526.85348 899.8881 C 533.36099 901.182 539.6796 903.098 545.8096 905.63619 C 551.93948 908.17428 557.7628 911.2857 563.2796 914.97048 C 568.7964 918.6552 573.9006 922.8425 578.5922 927.5324 C 583.2838 932.2222 587.4727 937.32449 591.1589 942.8391 C 594.8451 948.35379 597.9577 954.17489 600.4968 960.3024 C 603.03598 966.43 604.95278 972.7463 606.24716 979.2513 C 607.54159 985.7563 608.1888 992.325 608.18887 998.95748 C 608.1888 1005.58987 607.54159 1012.1585 606.24716 1018.66348 C 604.95278 1025.1685 603.03598 1031.4846 600.4968 1037.6122 C 597.9577 1043.7398 594.8451 1049.5609 591.1589 1055.0756 C 587.4727 1060.5902 583.2838 1065.6925 578.5922 1070.3823 C 573.9006 1075.0722 568.7964 1079.2594 563.2796 1082.9442 C 557.7628 1086.6289 551.93948 1089.7404 545.8096 1092.2786 C 539.6796 1094.8167 533.36099 1096.7327 526.85348 1098.0266 C 520.346 1099.3206 513.7748 1099.9675 507.13984 1099.9677 C 500.50486 1099.9675 493.9336 1099.3206 487.4261 1098.0266 C 480.9186 1096.7327 474.5999 1094.8167 468.47 1092.2786 C 462.3401 1089.7404 456.51673 1086.6289 450.99998 1082.9442 C 445.4832 1079.2594 440.37898 1075.0722 435.68736 1070.3823 C 430.9957 1065.6925 426.8068 1060.5902 423.1206 1055.0756 C 419.4344 1049.5609 416.32176 1043.7398 413.78266 1037.6122 C 411.24357 1031.4846 409.3268 1025.1685 408.0324 1018.66348 C 406.738 1012.1585 406.0908 1005.58987 406.0908 998.95748 Z "/>
</clipPath>
<g clip-path="url(#cp19)">
<path transform="matrix(.124728169,0,0,.124680187,97.461788,215.50734)" d="M 388.874 194.437 C 388.87403 200.80506 388.56196 207.15776 387.93778 213.49515 C 387.3136 219.83254 386.3803 226.12407 385.1379 232.36975 C 383.89558 238.61544 382.35014 244.7852 380.5016 250.87903 C 378.653 256.97288 376.51026 262.96147 374.0733 268.84477 C 371.63636 274.7281 368.91694 280.4778 365.91508 286.09394 C 362.9132 291.71006 359.6433 297.16554 356.1054 302.46037 C 352.56755 307.7552 348.77867 312.86393 344.7388 317.7865 C 340.69895 322.70909 336.42759 327.42179 331.92469 331.92469 C 327.42179 336.42759 322.70909 340.69895 317.7865 344.7388 C 312.86393 348.77864 307.7552 352.5675 302.46037 356.10539 C 297.16554 359.64329 291.71006 362.91319 286.09394 365.91508 C 280.4778 368.91694 274.7281 371.63636 268.84477 374.0733 C 262.96147 376.51026 256.9729 378.653 250.87905 380.5016 C 244.7852 382.35014 238.61544 383.89558 232.36975 385.1379 C 226.12407 386.3803 219.83254 387.3136 213.49515 387.93778 C 207.15776 388.56193 200.80506 388.874 194.437 388.874 C 188.06894 388.874 181.71622 388.56193 175.37883 387.93778 C 169.04145 387.3136 162.7499 386.3803 156.5042 385.1379 C 150.25852 383.89558 144.08875 382.35014 137.9949 380.5016 C 131.90106 378.653 125.91248 376.51026 120.029178 374.0733 C 114.14587 371.63636 108.39615 368.91694 102.78003 365.91508 C 97.16392 362.9132 91.708438 359.6433 86.41359 356.1054 C 81.11875 352.56755 76.01005 348.77867 71.08748 344.7388 C 66.1649 340.69895 61.45217 336.42759 56.949277 331.92469 C 52.446386 327.42179 48.175016 322.70909 44.135168 317.7865 C 40.095319 312.86393 36.306444 307.7552 32.76854 302.46037 C 29.230643 297.16554 25.960755 291.71006 22.958876 286.09394 C 19.956997 280.4778 17.237584 274.7281 14.800633 268.84477 C 12.363687 262.96147 10.220939 256.9729 8.372391 250.87905 C 6.5238435 244.7852 4.9783976 238.61544 3.7360519 232.36975 C 2.4937068 226.12407 1.5604453 219.83254 .9362672 213.49515 C .31208904 207.15776 0 200.80506 0 194.437 C 0 188.06894 .31208904 181.71622 .9362672 175.37883 C 1.5604453 169.04145 2.4937068 162.7499 3.7360519 156.5042 C 4.9783976 150.25852 6.5238435 144.08875 8.372391 137.9949 C 10.220939 131.90106 12.363687 125.91248 14.800633 120.029178 C 17.237584 114.14587 19.956995 108.39615 22.958874 102.78003 C 25.960753 97.16392 29.230643 91.708438 32.76854 86.41359 C 36.306444 81.11875 40.095319 76.01005 44.135168 71.08748 C 48.175016 66.1649 52.446386 61.45217 56.949277 56.949277 C 61.45217 52.446386 66.1649 48.175016 71.08748 44.135168 C 76.01005 40.095319 81.11875 36.306444 86.41359 32.76854 C 91.708438 29.230643 97.16392 25.960755 102.78004 22.958876 C 108.39615 19.956997 114.14587 17.237584 120.029178 14.800633 C 125.91248 12.363687 131.90106 10.220939 137.9949 8.372391 C 144.08875 6.5238435 150.25852 4.9783976 156.5042 3.7360519 C 162.7499 2.4937068 169.04145 1.5604453 175.37883 .9362672 C 181.71622 .31208904 188.06894 0 194.437 0 C 200.80506 0 207.15776 .31208904 213.49515 .9362672 C 219.83254 1.5604453 226.12407 2.4937068 232.36975 3.7360519 C 238.61544 4.9783976 244.7852 6.5238435 250.87903 8.372391 C 256.97288 10.220939 262.96147 12.363687 268.84477 14.800633 C 274.7281 17.237584 280.4778 19.956995 286.09394 22.958874 C 291.71006 25.960753 297.16554 29.230643 302.46037 32.76854 C 307.7552 36.306444 312.86393 40.095319 317.7865 44.135168 C 322.70909 48.175016 327.42179 52.446386 331.92469 56.949277 C 336.42759 61.45217 340.69895 66.1649 344.7388 71.08748 C 348.77864 76.01005 352.5675 81.11875 356.10539 86.41359 C 359.64329 91.708438 362.91319 97.16392 365.91508 102.78004 C 368.91694 108.39615 371.63636 114.14587 374.0733 120.029178 C 376.51026 125.91248 378.653 131.90106 380.5016 137.9949 C 382.35014 144.08875 383.89558 150.25852 385.1379 156.5042 C 386.3803 162.7499 387.3136 169.04145 387.93778 175.37883 C 388.56196 181.71622 388.87403 188.06894 388.874 194.437 Z " fill="#fac710"/>
<path transform="matrix(.124728169,0,0,.124680187,97.461788,215.50734)" stroke-width="8" stroke-linecap="butt" stroke-miterlimit="4" stroke-linejoin="miter" fill="none" stroke="#1a1a1a" d="M 388.874 194.437 C 388.87403 200.80506 388.56196 207.15776 387.93778 213.49515 C 387.3136 219.83254 386.3803 226.12407 385.1379 232.36975 C 383.89558 238.61544 382.35014 244.7852 380.5016 250.87903 C 378.653 256.97288 376.51026 262.96147 374.0733 268.84477 C 371.63636 274.7281 368.91694 280.4778 365.91508 286.09394 C 362.9132 291.71006 359.6433 297.16554 356.1054 302.46037 C 352.56755 307.7552 348.77867 312.86393 344.7388 317.7865 C 340.69895 322.70909 336.42759 327.42179 331.92469 331.92469 C 327.42179 336.42759 322.70909 340.69895 317.7865 344.7388 C 312.86393 348.77864 307.7552 352.5675 302.46037 356.10539 C 297.16554 359.64329 291.71006 362.91319 286.09394 365.91508 C 280.4778 368.91694 274.7281 371.63636 268.84477 374.0733 C 262.96147 376.51026 256.9729 378.653 250.87905 380.5016 C 244.7852 382.35014 238.61544 383.89558 232.36975 385.1379 C 226.12407 386.3803 219.83254 387.3136 213.49515 387.93778 C 207.15776 388.56193 200.80506 388.874 194.437 388.874 C 188.06894 388.874 181.71622 388.56193 175.37883 387.93778 C 169.04145 387.3136 162.7499 386.3803 156.5042 385.1379 C 150.25852 383.89558 144.08875 382.35014 137.9949 380.5016 C 131.90106 378.653 125.91248 376.51026 120.029178 374.0733 C 114.14587 371.63636 108.39615 368.91694 102.78003 365.91508 C 97.16392 362.9132 91.708438 359.6433 86.41359 356.1054 C 81.11875 352.56755 76.01005 348.77867 71.08748 344.7388 C 66.1649 340.69895 61.45217 336.42759 56.949277 331.92469 C 52.446386 327.42179 48.175016 322.70909 44.135168 317.7865 C 40.095319 312.86393 36.306444 307.7552 32.76854 302.46037 C 29.230643 297.16554 25.960755 291.71006 22.958876 286.09394 C 19.956997 280.4778 17.237584 274.7281 14.800633 268.84477 C 12.363687 262.96147 10.220939 256.9729 8.372391 250.87905 C 6.5238435 244.7852 4.9783976 238.61544 3.7360519 232.36975 C 2.4937068 226.12407 1.5604453 219.83254 .9362672 213.49515 C .31208904 207.15776 0 200.80506 0 194.437 C 0 188.06894 .31208904 181.71622 .9362672 175.37883 C 1.5604453 169.04145 2.4937068 162.7499 3.7360519 156.5042 C 4.9783976 150.25852 6.5238435 144.08875 8.372391 137.9949 C 10.220939 131.90106 12.363687 125.91248 14.800633 120.029178 C 17.237584 114.14587 19.956995 108.39615 22.958874 102.78003 C 25.960753 97.16392 29.230643 91.708438 32.76854 86.41359 C 36.306444 81.11875 40.095319 76.01005 44.135168 71.08748 C 48.175016 66.1649 52.446386 61.45217 56.949277 56.949277 C 61.45217 52.446386 66.1649 48.175016 71.08748 44.135168 C 76.01005 40.095319 81.11875 36.306444 86.41359 32.76854 C 91.708438 29.230643 97.16392 25.960755 102.78004 22.958876 C 108.39615 19.956997 114.14587 17.237584 120.029178 14.800633 C 125.91248 12.363687 131.90106 10.220939 137.9949 8.372391 C 144.08875 6.5238435 150.25852 4.9783976 156.5042 3.7360519 C 162.7499 2.4937068 169.04145 1.5604453 175.37883 .9362672 C 181.71622 .31208904 188.06894 0 194.437 0 C 200.80506 0 207.15776 .31208904 213.49515 .9362672 C 219.83254 1.5604453 226.12407 2.4937068 232.36975 3.7360519 C 238.61544 4.9783976 244.7852 6.5238435 250.87903 8.372391 C 256.97288 10.220939 262.96147 12.363687 268.84477 14.800633 C 274.7281 17.237584 280.4778 19.956995 286.09394 22.958874 C 291.71006 25.960753 297.16554 29.230643 302.46037 32.76854 C 307.7552 36.306444 312.86393 40.095319 317.7865 44.135168 C 322.70909 48.175016 327.42179 52.446386 331.92469 56.949277 C 336.42759 61.45217 340.69895 66.1649 344.7388 71.08748 C 348.77864 76.01005 352.5675 81.11875 356.10539 86.41359 C 359.64329 91.708438 362.91319 97.16392 365.91508 102.78004 C 368.91694 108.39615 371.63636 114.14587 374.0733 120.029178 C 376.51026 125.91248 378.653 131.90106 380.5016 137.9949 C 382.35014 144.08875 383.89558 150.25852 385.1379 156.5042 C 386.3803 162.7499 387.3136 169.04145 387.93778 175.37883 C 388.56196 181.71622 388.87403 188.06894 388.874 194.437 Z "/>
</g>
</g>
</g>
</g>
<clipPath id="cp20">
<path transform="matrix(.24,0,0,.24,0,0)" d="M 0 0 L 1012.49996 0 L 1012.49996 1635.5768 L 0 1635.5768 Z " fill-rule="evenodd"/>
</clipPath>
<g clip-path="url(#cp20)">
<text fill="#1a1a1a" xml:space="preserve" transform="matrix(.7492204 0 0 .7476922 104.562808 222.60779)" font-size="9.17" font-family="OpenSans"><tspan y="25.84472" x="1.7444658 6.7696735 10.00208 13.73969 18.831959 22.064366 27.201344 32.21761 34.533498 39.670476">Strategies</tspan></text>
</g>
<clipPath id="cp21">
<path transform="matrix(.24,0,0,.24,0,0)" d="M 406.0908 1260.2352 L 608.18887 1260.2352 L 608.18887 1462.2556 L 406.0908 1462.2556 Z " fill-rule="evenodd"/>
</clipPath>
<g clip-path="url(#cp21)">
<path transform="matrix(.124728169,0,0,.124680187,97.461788,302.45646)" d="M 0 0 L 388.874 0 L 388.874 388.874 L 0 388.874 Z " fill="#e57236"/>
<path transform="matrix(.124728169,0,0,.124680187,97.461788,302.45646)" stroke-width="8" stroke-linecap="butt" stroke-miterlimit="4" stroke-linejoin="miter" fill="none" stroke="#1a1a1a" d="M 0 0 L 388.874 0 L 388.874 388.874 L 0 388.874 Z "/>
</g>
<clipPath id="cp22">
<path transform="matrix(.24,0,0,.24,0,0)" d="M 0 0 L 1012.49996 0 L 1012.49996 1635.5768 L 0 1635.5768 Z " fill-rule="evenodd"/>
</clipPath>
<g clip-path="url(#cp22)">
<text fill="#1a1a1a" xml:space="preserve" transform="matrix(.7492204 0 0 .7476922 99.86865 304.8807)" font-size="9.17" font-family="OpenSans"><tspan y="32.098905" x="14.760789 19.826233 24.918503 29.277558 32.509965 34.82585 39.184907">Tactics</tspan></text>
</g>
<clipPath id="cp23">
<path transform="matrix(.24,0,0,.24,0,0)" d="M 0 0 L 1012.49996 0 L 1012.49996 1635.5768 L 0 1635.5768 Z "/>
</clipPath>
<g clip-path="url(#cp23)">
<clipPath id="cp24">
<path transform="matrix(.24,0,0,.24,0,0)" d="M 0 0 L 1012.49996 0 L 1012.49996 1635.5768 L 0 1635.5768 Z "/>
</clipPath>
<g clip-path="url(#cp24)">
<clipPath id="cp25">
<path transform="matrix(.24,0,0,.24,0,0)" d="M 170.95204 1530.6105 L 255.48677 458.47779 L 309.34498 462.72108 L 224.81024 1534.8538 L 170.95204 1530.6105 Z "/>
</clipPath>
<g clip-path="url(#cp25)">
<clipPath id="cp26">
<path transform="matrix(.24,0,0,.24,0,0)" d="M 170.95204 1530.6105 L 255.48677 458.47779 L 309.34498 462.72108 L 224.81024 1534.8538 L 170.95204 1530.6105 Z "/>
</clipPath>
<g clip-path="url(#cp26)">
<path transform="matrix(.009800298,-.124294709,.124342549,.009796528,41.02849,367.3465)" d="M 0 0 L 2070.1754 0 L 2070.1754 103.954509 L 0 103.954509 Z " fill="#8fd14f"/>
<path transform="matrix(.009800298,-.124294709,.124342549,.009796528,41.02849,367.3465)" stroke-width="8" stroke-linecap="butt" stroke-miterlimit="4" stroke-linejoin="miter" fill="none" stroke="#1a1a1a" d="M 0 0 L 2070.1754 0 L 2070.1754 103.954509 L 0 103.954509 Z "/>
</g>
</g>
</g>
</g>
<clipPath id="cp27">
<path transform="matrix(.24,0,0,.24,0,0)" d="M 0 0 L 1012.49996 0 L 1012.49996 1635.5768 L 0 1635.5768 Z " fill-rule="evenodd"/>
</clipPath>
<g clip-path="url(#cp27)">
<text fill="#1a1a1a" xml:space="preserve" transform="matrix(.058868689 -.74661669 .7456674 .058748615 41.71035 366.94636)" font-size="9.17" font-family="OpenSans"><tspan y="10.718826" x="157.72295 163.17288 168.26515 170.58104 176.20087 181.33785">Values</tspan></text>
</g>
<clipPath id="cp28">
<path transform="matrix(.24,0,0,.24,0,0)" d="M 0 0 L 1012.49996 0 L 1012.49996 1635.5768 L 0 1635.5768 Z "/>
</clipPath>
<g clip-path="url(#cp28)">
<clipPath id="cp29">
<path transform="matrix(.24,0,0,.24,0,0)" d="M 0 0 L 1012.49996 0 L 1012.49996 1635.5768 L 0 1635.5768 Z "/>
</clipPath>
<g clip-path="url(#cp29)">
<clipPath id="cp30">
<path transform="matrix(.24,0,0,.24,0,0)" d="M 759.58218 458.9738 L 842.7304 1531.21 L 788.69766 1535.3969 L 705.5494 463.1606 L 759.58218 458.9738 Z "/>
</clipPath>
<g clip-path="url(#cp30)">
<clipPath id="cp31">
<path transform="matrix(.24,0,0,.24,0,0)" d="M 759.58218 458.9738 L 842.7304 1531.21 L 788.69766 1535.3969 L 705.5494 463.1606 L 759.58218 458.9738 Z "/>
</clipPath>
<g clip-path="url(#cp31)">
<path transform="matrix(.009639602,.12430727,-.1243551,.009635894,182.29972,110.15371)" d="M 0 0 L 2070.166 0 L 2070.166 104.28091 L 0 104.28091 Z " fill="#8fd14f"/>
<path transform="matrix(.009639602,.12430727,-.1243551,.009635894,182.29972,110.15371)" stroke-width="8" stroke-linecap="butt" stroke-miterlimit="4" stroke-linejoin="miter" fill="none" stroke="#1a1a1a" d="M 0 0 L 2070.166 0 L 2070.166 104.28091 L 0 104.28091 Z "/>
</g>
</g>
</g>
</g>
<clipPath id="cp32">
<path transform="matrix(.24,0,0,.24,0,0)" d="M 0 0 L 1012.49996 0 L 1012.49996 1635.5768 L 0 1635.5768 Z " fill-rule="evenodd"/>
</clipPath>
<g clip-path="url(#cp32)">
<text fill="#1a1a1a" xml:space="preserve" transform="matrix(.057903418 .74669209 -.7457428 .05778531 181.68647 110.657138)" font-size="9.17" font-family="OpenSans"><tspan y="10.7433199" x="157.71945 163.16939 168.26166 170.57755 176.19738 181.33435">Values</tspan></text>
</g>
<clipPath id="cp33">
<path transform="matrix(.24,0,0,.24,0,0)" d="M .84147748 0 L 1012.49996 0 L 1012.49996 1574.4412 L .84147748 1574.4412 Z " fill-rule="evenodd"/>
</clipPath>
<g clip-path="url(#cp33)">
<path transform="matrix(.124728169,0,0,.124680187,.20195459,-.119630757)" d="M 0 0 L 1948.3408 0 L 1948.3408 3031.6405 L 0 3031.6405 Z " fill="#ffffff" fill-opacity=".2"/>
</g>
<clipPath id="cp34">
<path transform="matrix(.24,0,0,.24,0,0)" d="M 0 0 L 1012.49996 0 L 1012.49996 1635.5768 L 0 1635.5768 Z " fill-rule="evenodd"/>
</clipPath>
<g clip-path="url(#cp34)">
<text fill="#1a1a1a" xml:space="preserve" transform="matrix(.7486612 0 0 .7476923 12.081706 11.81579)" font-size="13.34" font-family="OpenSans"><tspan y="13.340271" x="88.45731 96.865489 105.04589 108.41697 113.12217 121.302577 126.74316 134.15564 137.52672 140.9889 149.42311 152.79419 156.16527 163.4671 171.6475 184.04502 191.52257 199.70298">Cultural Alignment</tspan></text>
<text fill="#1a1a1a" xml:space="preserve" transform="matrix(.7483691 0 0 .7476922 64.28983 27.497807)" font-size="4" font-family="OpenSans"><tspan y="4.002081" x="30.035336 32.559335 34.975336 37.427335 39.443334 41.075334 42.087335 44.279336 46.735338 48.147336 49.187337 52.515336 53.555337 55.843339 58.13134 60.419343 62.707345 63.747346 64.815349 67.05935 69.77135 70.81135 73.72735 76.14335 78.55935 79.57135 80.58335 81.99535 83.40736 84.41936 86.66336 87.72736 88.767368 91.29936 92.31136 93.323368 94.363368 95.99537 97.00737 99.19937 101.65537 103.067378 104.97537 106.01537 107.64738 109.89138 111.79938 114.04338 115.675388 117.67938 119.923389 122.37539">Copyright &#x00a9; 2021 Je&#xfb00; Doolittle. All rights reserved.</tspan></text>
<path transform="matrix(.21393097,0,0,.21373748,105.14118,377.00654)" d="M .32226563 15.05 L 154.59748 15.05 L 154.59748 15.75 L .32226563 15.75 Z " fill="#1a1a1a"/>
<text fill="#1a1a1a" xml:space="preserve" transform="matrix(.7483691 0 0 .7476922 105.14118 377.00654)" font-size="4" font-family="OpenSans"><tspan y="4.002081" x=".09212379 2.5481239 3.960124 5.372124 7.8241245 9.732124 10.796124 12.264125 13.732125 14.744125 16.988125 19.700125 22.152125 24.568125 26.984126 27.996125 29.008126 30.420126 31.832127 32.844129 35.088129 36.152128 38.056127 40.472127">https://je&#xfb00;doolittle.com</tspan></text>
</g>
</g>
</svg>
