<?xml version="1.0" encoding="utf-8"?>
<!-- Generator: Adobe Illustrator 19.0.0, SVG Export Plug-In . SVG Version: 6.00 Build 0)  -->
<svg version="1.1" id="Layer_1" xmlns="http://www.w3.org/2000/svg" xmlns:xlink="http://www.w3.org/1999/xlink" x="0px" y="0px"
	 viewBox="0 0 96 96" style="enable-background:new 0 0 96 96;" xml:space="preserve">
<style type="text/css">
	.st0{fill:#333333;}
</style>
<g id="XMLID_1_">
	<path id="XMLID_18_" class="st0" d="M48,20.5c-15.2,0-27.5,12.3-27.5,27.5c0,15.2,12.3,27.5,27.5,27.5c15.2,0,27.5-12.3,27.5-27.5
		C75.5,32.8,63.2,20.5,48,20.5z M29.6,51.7l-0.2,0.1l-0.2-0.1L29,49.6l0.3-2.1l0.2-0.2l0.2,0.2l0.3,2.1L29.6,51.7z M31,53l-0.2,0.2
		L30.7,53l-0.4-3.4l0.4-3.5l0.2-0.2l0.2,0.2l0.4,3.5L31,53z M32.6,53.6c0,0.1-0.1,0.2-0.2,0.2c-0.1,0-0.2-0.1-0.2-0.2l-0.4-4
		l0.4-4.1c0-0.1,0.1-0.2,0.2-0.2c0.1,0,0.2,0.1,0.2,0.2l0.4,4.1L32.6,53.6z M34.1,53.7c0,0.1-0.1,0.2-0.2,0.2
		c-0.1,0-0.2-0.1-0.2-0.2l-0.3-4.1l0.3-4.2c0-0.1,0.1-0.2,0.2-0.2c0.1,0,0.2,0.1,0.2,0.2l0.4,4.2L34.1,53.7z M35.7,53.7
		c0,0.1-0.1,0.3-0.3,0.3c-0.1,0-0.3-0.1-0.3-0.3l-0.3-4.1l0.3-3.9c0-0.1,0.1-0.3,0.3-0.3c0.1,0,0.2,0.1,0.3,0.3l0.4,3.9L35.7,53.7z
		 M37.3,53.7L37.3,53.7c0,0.2-0.1,0.3-0.3,0.3c-0.2,0-0.3-0.1-0.3-0.3l-0.3-4.1l0.3-6.4c0-0.2,0.1-0.3,0.3-0.3
		c0.2,0,0.3,0.1,0.3,0.3l0.3,6.4L37.3,53.7z M38.9,53.7L38.9,53.7c0,0.2-0.2,0.3-0.3,0.3c-0.2,0-0.3-0.1-0.3-0.3l-0.3-4.1l0.3-7.8
		c0-0.2,0.2-0.3,0.3-0.3c0.2,0,0.3,0.1,0.3,0.3l0.3,7.8L38.9,53.7z M40.5,53.7L40.5,53.7c0,0.2-0.2,0.4-0.4,0.4
		c-0.2,0-0.4-0.2-0.4-0.4l-0.3-4l0.3-8.5c0-0.2,0.2-0.4,0.4-0.4c0.2,0,0.3,0.2,0.4,0.4l0.3,8.5L40.5,53.7z M42.1,53.7L42.1,53.7
		L42.1,53.7c0,0.2-0.2,0.4-0.4,0.4c-0.2,0-0.4-0.2-0.4-0.4l-0.2-4l0.2-8.8c0-0.2,0.2-0.4,0.4-0.4c0.2,0,0.4,0.2,0.4,0.4l0.3,8.8
		L42.1,53.7L42.1,53.7z M43.7,53.6L43.7,53.6c0,0.2-0.2,0.4-0.4,0.4c-0.2,0-0.4-0.2-0.4-0.4l-0.2-4l0.2-8.5c0-0.2,0.2-0.4,0.4-0.4
		c0.2,0,0.4,0.2,0.4,0.4l0.3,8.5L43.7,53.6z M45.4,53.6L45.4,53.6c0,0.3-0.2,0.5-0.5,0.5c-0.3,0-0.5-0.2-0.5-0.5l-0.2-4l0.2-8.2
		c0-0.3,0.2-0.5,0.5-0.5c0.2,0,0.4,0.2,0.5,0.5l0.2,8.2L45.4,53.6z M47,53.6L47,53.6c0,0.3-0.2,0.5-0.5,0.5c-0.3,0-0.5-0.2-0.5-0.5
		l-0.2-3.9l0.2-9.8c0-0.3,0.2-0.5,0.5-0.5c0.3,0,0.5,0.2,0.5,0.5l0.2,9.8L47,53.6z M48.7,53.5L48.7,53.5c0,0.3-0.2,0.5-0.5,0.5
		c-0.3,0-0.5-0.2-0.5-0.5l-0.2-3.9L47.6,39c0-0.3,0.2-0.5,0.5-0.5c0.3,0,0.5,0.2,0.5,0.5l0.2,10.7L48.7,53.5z M62.8,54.1l-13.1,0
		c-0.3,0-0.5-0.3-0.5-0.6v-15c0-0.3,0.1-0.4,0.5-0.6c0.9-0.4,2-0.6,3-0.6c4.4,0,8,3.4,8.3,7.6c0.6-0.2,1.2-0.4,1.8-0.4
		c2.6,0,4.7,2.1,4.7,4.7C67.5,51.9,65.4,54.1,62.8,54.1z"/>
</g>
</svg>
