<svg version="1.1" viewBox="0.0 0.0 543.0 502.0" fill="none" stroke="none" stroke-linecap="square" stroke-miterlimit="10" xmlns:xlink="http://www.w3.org/1999/xlink" xmlns="http://www.w3.org/2000/svg"><clipPath id="p.0"><path d="m0 0l543.0 0l0 502.0l-543.0 0l0 -502.0z" clip-rule="nonzero"/></clipPath><g clip-path="url(#p.0)"><path fill="#000000" fill-opacity="0.0" d="m0 0l543.0 0l0 502.0l-543.0 0z" fill-rule="evenodd"/><path fill="#d9d9d9" d="m102.20735 297.33286l0 -159.811l40.661407 0l0 159.811z" fill-rule="evenodd"/><path fill="#434343" d="m125.75493 246.33363q1.1875 0 2.0625 0.578125q0.875 0.5625 1.359375 1.671875q0.46875 1.09375 0.46875 2.65625q0 0.6875 -0.09375 1.359375q-0.09375 0.65625 -0.265625 1.265625q-0.1875 0.59375 -0.453125 1.140625l-2.625 0q0.421875 -0.9375 0.765625 -1.953125q0.328125 -1.03125 0.328125 -2.03125q0 -0.6875 -0.171875 -1.109375q-0.1875 -0.4375 -0.5 -0.625q-0.328125 -0.1875 -0.734375 -0.1875q-0.5 0 -0.84375 0.34375q-0.359375 0.328125 -0.671875 0.921875q-0.3125 0.578125 -0.671875 1.3125q-0.21875 0.46875 -0.53125 1.015625q-0.3125 0.546875 -0.765625 1.046875q-0.453125 0.484375 -1.109375 0.796875q-0.65625 0.3125 -1.5625 0.3125q-1.1875 0 -2.03125 -0.546875q-0.859375 -0.546875 -1.3125 -1.5625q-0.453125 -1.015625 -0.453125 -2.390625q0 -1.046875 0.25 -1.984375q0.234375 -0.9375 0.6875 -1.96875l2.203125 0.90625q-0.375 0.921875 -0.578125 1.65625q-0.203125 0.71875 -0.203125 1.484375q0 0.515625 0.171875 0.890625q0.15625 0.375 0.46875 0.578125q0.296875 0.1875 0.703125 0.1875q0.46875 0 0.796875 -0.28125q0.328125 -0.28125 0.625 -0.84375q0.296875 -0.5625 0.703125 -1.390625q0.484375 -1.03125 1.015625 -1.75q0.515625 -0.71875 1.21875 -1.109375q0.703125 -0.390625 1.75 -0.390625zm-6.484375 -0.7442627l0 -3.046875l5.734375 -1.921875q0.265625 -0.09375 0.5625 -0.15625q0.28125 -0.0625 0.578125 -0.109375q0.296875 -0.046875 0.625 -0.0625l0 -0.0625q-0.484375 -0.046875 -0.90625 -0.140625q-0.4375 -0.109375 -0.859375 -0.25l-5.734375 -1.890625l0 -2.96875l11.484375 4.3125q1.0625 0.390625 1.765625 1.015625q0.703125 0.625 1.0625 1.4375q0.359375 0.8125 0.359375 1.796875q0 0.46875 -0.0625 0.8125q-0.046875 0.34375 -0.09375 0.59375l-2.203125 0q0.046875 -0.1875 0.078125 -0.46875q0.03125 -0.296875 0.03125 -0.625q0 -0.578125 -0.25 -1.0q-0.234375 -0.421875 -0.65625 -0.703125q-0.40625 -0.28125 -0.90625 -0.4375l-0.5 -0.171875l-10.109375 4.046875zm7.15625 -19.175064q1.046875 0 1.765625 0.484375q0.703125 0.484375 1.078125 1.453125q0.375 0.96875 0.375 2.40625q0 1.0625 -0.140625 1.828125q-0.140625 0.765625 -0.453125 1.53125l-2.296875 0q0.375 -0.828125 0.625 -1.78125q0.234375 -0.953125 0.234375 -1.671875q0 -0.8125 -0.234375 -1.15625q-0.25 -0.359375 -0.640625 -0.359375q-0.265625 0 -0.46875 0.15625q-0.203125 0.140625 -0.453125 0.609375q-0.265625 0.453125 -0.6875 1.453125q-0.40625 0.953125 -0.8125 1.5625q-0.40625 0.609375 -0.96875 0.90625q-0.5625 0.296875 -1.421875 0.296875q-1.421875 0 -2.125 -1.09375q-0.71875 -1.09375 -0.71875 -2.9375q0 -0.953125 0.1875 -1.8125q0.1875 -0.859375 0.609375 -1.765625l2.015625 0.84375q-0.328125 0.75 -0.53125 1.421875q-0.21875 0.671875 -0.21875 1.359375q0 0.609375 0.171875 0.921875q0.15625 0.3125 0.484375 0.3125q0.25 0 0.453125 -0.15625q0.1875 -0.171875 0.421875 -0.625q0.21875 -0.46875 0.59375 -1.359375q0.34375 -0.859375 0.734375 -1.5q0.390625 -0.640625 0.96875 -0.984375q0.5625 -0.34375 1.453125 -0.34375zm1.0 -6.460968q0 -0.453125 -0.09375 -0.875q-0.09375 -0.4375 -0.21875 -0.875l2.0625 0q0.203125 0.453125 0.328125 1.109375q0.140625 0.65625 0.140625 1.4375q0 0.921875 -0.296875 1.640625q-0.296875 0.71875 -1.03125 1.140625q-0.734375 0.40625 -2.046875 0.40625l-4.90625 0l0 1.34375l-1.1875 0l-0.921875 -1.53125l-2.15625 -0.8125l0 -1.765625l2.171875 0l0 -2.859375l2.09375 0l0 2.859375l4.90625 0q0.578125 0 0.875 -0.328125q0.28125 -0.34375 0.28125 -0.890625zm-8.34375 -8.004593q0 -1.40625 0.546875 -2.421875q0.53125 -1.03125 1.5625 -1.578125q1.03125 -0.5625 2.515625 -0.5625l1.34375 0l0 6.5625q1.1875 -0.046875 1.859375 -0.703125q0.65625 -0.65625 0.65625 -1.828125q0 -0.984375 -0.1875 -1.796875q-0.203125 -0.8125 -0.609375 -1.65625l2.15625 0q0.375 0.75 0.546875 1.578125q0.171875 0.828125 0.171875 2.0q0 1.53125 -0.5625 2.71875q-0.578125 1.171875 -1.734375 1.84375q-1.15625 0.65625 -2.90625 0.65625q-1.796875 0 -2.984375 -0.59375q-1.1875 -0.609375 -1.78125 -1.6875q-0.59375 -1.09375 -0.59375 -2.53125zm1.96875 -0.015625q0 0.8125 0.53125 1.34375q0.515625 0.53125 1.625 0.609375l0 -3.890625q-0.625 0 -1.09375 0.21875q-0.484375 0.21875 -0.765625 0.640625q-0.296875 0.421875 -0.296875 1.078125zm-1.96875 -18.772491q0 -1.734375 0.890625 -2.609375q0.890625 -0.890625 2.84375 -0.890625l6.640625 0l0 2.78125l-5.953125 0q-1.09375 0 -1.640625 0.375q-0.5625 0.375 -0.5625 1.15625q0 1.109375 0.796875 1.578125q0.78125 0.453125 2.25 0.453125l5.109375 0l0 2.78125l-5.953125 0q-0.71875 0 -1.203125 0.171875q-0.5 0.15625 -0.75 0.5q-0.25 0.328125 -0.25 0.859375q0 0.765625 0.390625 1.21875q0.390625 0.4375 1.140625 0.625q0.75 0.1875 1.828125 0.1875l4.796875 0l0 2.78125l-10.1875 0l0 -2.125l1.3125 -0.375l0 -0.15625q-0.53125 -0.3125 -0.859375 -0.78125q-0.328125 -0.46875 -0.484375 -1.03125q-0.15625 -0.5625 -0.15625 -1.140625q0 -1.125 0.375 -1.90625q0.359375 -0.78125 1.125 -1.203125l0 -0.234375q-0.796875 -0.46875 -1.140625 -1.296875q-0.359375 -0.828125 -0.359375 -1.71875zm7.34375 -13.459824q1.046875 0 1.765625 0.484375q0.703125 0.484375 1.078125 1.453125q0.375 0.96875 0.375 2.40625q0 1.0625 -0.140625 1.828125q-0.140625 0.765625 -0.453125 1.53125l-2.296875 0q0.375 -0.828125 0.625 -1.78125q0.234375 -0.953125 0.234375 -1.671875q0 -0.8125 -0.234375 -1.15625q-0.25 -0.359375 -0.640625 -0.359375q-0.265625 0 -0.46875 0.15625q-0.203125 0.140625 -0.453125 0.609375q-0.265625 0.453125 -0.6875 1.453125q-0.40625 0.953125 -0.8125 1.5625q-0.40625 0.609375 -0.96875 0.90625q-0.5625 0.296875 -1.421875 0.296875q-1.421875 0 -2.125 -1.09375q-0.71875 -1.09375 -0.71875 -2.9375q0 -0.953125 0.1875 -1.8125q0.1875 -0.859375 0.609375 -1.765625l2.015625 0.84375q-0.328125 0.75 -0.53125 1.421875q-0.21875 0.671875 -0.21875 1.359375q0 0.609375 0.171875 0.921875q0.15625 0.3125 0.484375 0.3125q0.25 0 0.453125 -0.15625q0.1875 -0.171875 0.421875 -0.625q0.21875 -0.46875 0.59375 -1.359375q0.34375 -0.859375 0.734375 -1.5q0.390625 -0.640625 0.96875 -0.984375q0.5625 -0.34375 1.453125 -0.34375z" fill-rule="nonzero"/><path fill="#d9d9d9" d="m102.20735 468.3969l0 -159.81104l40.661407 0l0 159.81104z" fill-rule="evenodd"/><path fill="#434343" d="m129.45805 442.3117l0 2.828125l-10.96875 0l0 3.609375l-2.34375 0l0 -10.0625l2.34375 0l0 3.625l10.96875 0zm-10.375 -9.647614q0 -1.40625 0.546875 -2.421875q0.53125 -1.03125 1.5625 -1.578125q1.03125 -0.5625 2.515625 -0.5625l1.34375 0l0 6.5625q1.1875 -0.046875 1.859375 -0.703125q0.65625 -0.65625 0.65625 -1.828125q0 -0.984375 -0.1875 -1.796875q-0.203125 -0.8125 -0.609375 -1.65625l2.15625 0q0.375 0.75 0.546875 1.578125q0.171875 0.828125 0.171875 2.0q0 1.53125 -0.5625 2.71875q-0.578125 1.171875 -1.734375 1.84375q-1.15625 0.65625 -2.90625 0.65625q-1.796875 0 -2.984375 -0.59375q-1.1875 -0.609375 -1.78125 -1.6875q-0.59375 -1.09375 -0.59375 -2.53125zm1.96875 -0.015625q0 0.8125 0.53125 1.34375q0.515625 0.53125 1.625 0.609375l0 -3.890625q-0.625 0 -1.09375 0.21875q-0.484375 0.21875 -0.765625 0.640625q-0.296875 0.421875 -0.296875 1.078125zm8.59375 -10.944366q0 1.515625 -0.546875 2.578125q-0.5625 1.0625 -1.71875 1.625q-1.15625 0.546875 -2.953125 0.546875q-1.875 0 -3.046875 -0.625q-1.1875 -0.640625 -1.734375 -1.765625q-0.5625 -1.125 -0.5625 -2.609375q0 -1.046875 0.203125 -1.8125q0.203125 -0.78125 0.484375 -1.359375l2.15625 0.828125q-0.265625 0.65625 -0.4375 1.21875q-0.171875 0.5625 -0.171875 1.125q0 0.734375 0.34375 1.21875q0.34375 0.484375 1.03125 0.71875q0.6875 0.234375 1.703125 0.234375q1.015625 0 1.6875 -0.25q0.65625 -0.265625 0.984375 -0.734375q0.328125 -0.484375 0.328125 -1.1875q0 -0.859375 -0.234375 -1.53125q-0.234375 -0.671875 -0.65625 -1.3125l2.375 0q0.40625 0.640625 0.578125 1.34375q0.1875 0.6875 0.1875 1.75zm-14.359375 -8.23291l2.890625 0q0.75 0 1.4375 0.046875q0.671875 0.046875 0.96875 0.078125l0 -0.140625q-0.53125 -0.328125 -0.859375 -0.78125q-0.328125 -0.453125 -0.484375 -1.0q-0.15625 -0.546875 -0.15625 -1.171875q0 -1.109375 0.390625 -1.921875q0.390625 -0.828125 1.21875 -1.28125q0.8125 -0.453125 2.125 -0.453125l6.640625 0l0 2.78125l-5.953125 0q-1.09375 0 -1.640625 0.40625q-0.5625 0.390625 -0.5625 1.234375q0 0.828125 0.390625 1.3125q0.390625 0.484375 1.140625 0.6875q0.75 0.203125 1.828125 0.203125l4.796875 0l0 2.78125l-14.171875 0l0 -2.78125zm3.796875 -15.261383q0 -1.640625 0.890625 -2.625q0.890625 -1.0 2.84375 -1.0l6.640625 0l0 2.78125l-5.953125 0q-1.09375 0 -1.640625 0.40625q-0.5625 0.390625 -0.5625 1.234375q0 1.265625 0.875 1.734375q0.859375 0.46875 2.484375 0.46875l4.796875 0l0 2.78125l-10.1875 0l0 -2.125l1.3125 -0.375l0 -0.15625q-0.53125 -0.328125 -0.859375 -0.8125q-0.328125 -0.484375 -0.484375 -1.078125q-0.15625 -0.609375 -0.15625 -1.234375zm5.265625 -15.745758q1.28125 0 2.265625 0.34375q0.96875 0.34375 1.65625 1.0q0.671875 0.640625 1.03125 1.5625q0.34375 0.921875 0.34375 2.0625q0 1.078125 -0.34375 1.984375q-0.359375 0.890625 -1.03125 1.546875q-0.6875 0.65625 -1.65625 1.015625q-0.984375 0.359375 -2.265625 0.359375q-1.703125 0 -2.875 -0.59375q-1.171875 -0.609375 -1.78125 -1.71875q-0.609375 -1.109375 -0.609375 -2.640625q0 -1.4375 0.609375 -2.546875q0.609375 -1.109375 1.78125 -1.734375q1.171875 -0.640625 2.875 -0.640625zm0 7.046875q1.0 0 1.6875 -0.21875q0.6875 -0.21875 1.03125 -0.671875q0.34375 -0.46875 0.34375 -1.21875q0 -0.734375 -0.34375 -1.1875q-0.34375 -0.46875 -1.03125 -0.6875q-0.6875 -0.21875 -1.6875 -0.21875q-1.015625 0 -1.671875 0.21875q-0.671875 0.21875 -1.015625 0.6875q-0.34375 0.453125 -0.34375 1.203125q0 1.09375 0.765625 1.59375q0.75 0.5 2.265625 0.5zm5.109375 -12.113342l0 2.78125l-14.171875 0l0 -2.78125l14.171875 0zm-5.109375 -12.177826q1.28125 0 2.265625 0.34375q0.96875 0.34375 1.65625 1.0q0.671875 0.640625 1.03125 1.5625q0.34375 0.921875 0.34375 2.0625q0 1.078125 -0.34375 1.984375q-0.359375 0.890625 -1.03125 1.546875q-0.6875 0.65625 -1.65625 1.015625q-0.984375 0.359375 -2.265625 0.359375q-1.703125 0 -2.875 -0.59375q-1.171875 -0.609375 -1.78125 -1.71875q-0.609375 -1.109375 -0.609375 -2.640625q0 -1.4375 0.609375 -2.546875q0.609375 -1.109375 1.78125 -1.734375q1.171875 -0.640625 2.875 -0.640625zm0 7.046875q1.0 0 1.6875 -0.21875q0.6875 -0.21875 1.03125 -0.671875q0.34375 -0.46875 0.34375 -1.21875q0 -0.734375 -0.34375 -1.1875q-0.34375 -0.46875 -1.03125 -0.6875q-0.6875 -0.21875 -1.6875 -0.21875q-1.015625 0 -1.671875 0.21875q-0.671875 0.21875 -1.015625 0.6875q-0.34375 0.453125 -0.34375 1.203125q0 1.09375 0.765625 1.59375q0.75 0.5 2.265625 0.5zm9.59375 -12.316467q0 2.125 -0.75 3.265625q-0.734375 1.125 -2.078125 1.125q-0.921875 0 -1.546875 -0.578125q-0.609375 -0.578125 -0.875 -1.6875q-0.1875 0.421875 -0.59375 0.75q-0.421875 0.3125 -0.875 0.3125q-0.59375 0 -0.96875 -0.328125q-0.390625 -0.34375 -0.765625 -0.984375q-0.34375 0.796875 -1.109375 1.28125q-0.765625 0.46875 -1.8125 0.46875q-1.109375 0 -1.890625 -0.484375q-0.78125 -0.5 -1.1875 -1.421875q-0.40625 -0.9375 -0.40625 -2.28125q0 -0.28125 0.046875 -0.65625q0.03125 -0.375 0.078125 -0.6875q0.03125 -0.3125 0.0625 -0.421875l0 -3.5625l1.421875 0l0.40625 1.59375q0.328125 -0.21875 0.71875 -0.328125q0.375 -0.109375 0.8125 -0.109375q1.640625 0 2.5625 1.15625q0.90625 1.140625 0.90625 3.171875q-0.03125 0.484375 -0.078125 0.90625q0.171875 0.21875 0.359375 0.328125q0.171875 0.109375 0.375 0.109375q0.203125 0 0.34375 -0.171875q0.125 -0.171875 0.1875 -0.515625q0.0625 -0.34375 0.0625 -0.84375l0 -1.734375q0 -1.671875 0.71875 -2.546875q0.71875 -0.890625 2.125 -0.890625q1.78125 0 2.765625 1.5q0.984375 1.484375 0.984375 4.265625zm-1.8125 -0.125q0 -0.984375 -0.1875 -1.703125q-0.1875 -0.71875 -0.53125 -1.09375q-0.34375 -0.390625 -0.8125 -0.390625q-0.390625 0 -0.609375 0.234375q-0.21875 0.21875 -0.3125 0.671875q-0.09375 0.453125 -0.09375 1.15625l0 1.4375q0 0.5 0.15625 0.90625q0.171875 0.40625 0.46875 0.65625q0.296875 0.234375 0.6875 0.234375q0.578125 0 0.90625 -0.546875q0.328125 -0.5625 0.328125 -1.5625zm-7.734375 -0.4375q0 -0.78125 -0.46875 -1.140625q-0.484375 -0.375 -1.3125 -0.375q-0.921875 0 -1.375 0.390625q-0.46875 0.375 -0.46875 1.125q0 0.765625 0.46875 1.15625q0.453125 0.375 1.375 0.375q0.828125 0 1.3125 -0.375q0.46875 -0.390625 0.46875 -1.15625zm-5.125 -9.774048l10.1875 0l0 2.78125l-10.1875 0l0 -2.78125zm-3.984375 1.390625q0 -0.625 0.296875 -1.0625q0.28125 -0.453125 1.0625 -0.453125q0.765625 0 1.0625 0.453125q0.296875 0.4375 0.296875 1.0625q0 0.625 -0.296875 1.0625q-0.296875 0.4375 -1.0625 0.4375q-0.78125 0 -1.0625 -0.4375q-0.296875 -0.4375 -0.296875 -1.0625zm3.796875 -8.505951q0 -1.40625 0.546875 -2.421875q0.53125 -1.03125 1.5625 -1.578125q1.03125 -0.5625 2.515625 -0.5625l1.34375 0l0 6.5625q1.1875 -0.046875 1.859375 -0.703125q0.65625 -0.65625 0.65625 -1.828125q0 -0.984375 -0.1875 -1.796875q-0.203125 -0.8125 -0.609375 -1.65625l2.15625 0q0.375 0.75 0.546875 1.578125q0.171875 0.828125 0.171875 2.0q0 1.53125 -0.5625 2.71875q-0.578125 1.171875 -1.734375 1.84375q-1.15625 0.65625 -2.90625 0.65625q-1.796875 0 -2.984375 -0.59375q-1.1875 -0.609375 -1.78125 -1.6875q-0.59375 -1.09375 -0.59375 -2.53125zm1.96875 -0.015625q0 0.8125 0.53125 1.34375q0.515625 0.53125 1.625 0.609375l0 -3.890625q-0.625 0 -1.09375 0.21875q-0.484375 0.21875 -0.765625 0.640625q-0.296875 0.421875 -0.296875 1.078125zm5.375 -13.913116q1.046875 0 1.765625 0.484375q0.703125 0.484375 1.078125 1.453125q0.375 0.96875 0.375 2.40625q0 1.0625 -0.140625 1.828125q-0.140625 0.765625 -0.453125 1.53125l-2.296875 0q0.375 -0.828125 0.625 -1.78125q0.234375 -0.953125 0.234375 -1.671875q0 -0.8125 -0.234375 -1.15625q-0.25 -0.359375 -0.640625 -0.359375q-0.265625 0 -0.46875 0.15625q-0.203125 0.140625 -0.453125 0.609375q-0.265625 0.453125 -0.6875 1.453125q-0.40625 0.953125 -0.8125 1.5625q-0.40625 0.609375 -0.96875 0.90625q-0.5625 0.296875 -1.421875 0.296875q-1.421875 0 -2.125 -1.09375q-0.71875 -1.09375 -0.71875 -2.9375q0 -0.953125 0.1875 -1.8125q0.1875 -0.859375 0.609375 -1.765625l2.015625 0.84375q-0.328125 0.75 -0.53125 1.421875q-0.21875 0.671875 -0.21875 1.359375q0 0.609375 0.171875 0.921875q0.15625 0.3125 0.484375 0.3125q0.25 0 0.453125 -0.15625q0.1875 -0.171875 0.421875 -0.625q0.21875 -0.46875 0.59375 -1.359375q0.34375 -0.859375 0.734375 -1.5q0.390625 -0.640625 0.96875 -0.984375q0.5625 -0.34375 1.453125 -0.34375z" fill-rule="nonzero"/><path fill="#d9d9d9" d="m156.89685 81.2336l159.81104 0l0 40.661415l-159.81104 0z" fill-rule="evenodd"/><path fill="#434343" d="m189.52817 97.32805q-0.8125 0 -1.4375 0.3125q-0.609375 0.3125 -1.046875 0.90625q-0.421875 0.59375 -0.640625 1.4375q-0.21875 0.828125 -0.21875 1.875q0 1.421875 0.34375 2.421875q0.359375 0.984375 1.09375 1.515625q0.75 0.515625 1.90625 0.515625q0.8125 0 1.625 -0.171875q0.828125 -0.1875 1.78125 -0.53125l0 2.375q-0.890625 0.359375 -1.75 0.515625q-0.84375 0.171875 -1.921875 0.171875q-2.046875 0 -3.375 -0.84375q-1.328125 -0.859375 -1.96875 -2.390625q-0.640625 -1.546875 -0.640625 -3.59375q0 -1.515625 0.40625 -2.765625q0.421875 -1.265625 1.203125 -2.171875q0.796875 -0.921875 1.96875 -1.421875q1.171875 -0.515625 2.671875 -0.515625q1.0 0 2.0 0.25q1.0 0.25 1.90625 0.6875l-0.90625 2.296875q-0.75 -0.34375 -1.515625 -0.609375q-0.75 -0.265625 -1.484375 -0.265625zm10.184769 0.765625q2.046875 0 3.140625 0.890625q1.09375 0.890625 1.09375 2.71875l0 6.78125l-1.9375 0l-0.53125 -1.390625l-0.078125 0q-0.4375 0.546875 -0.890625 0.90625q-0.453125 0.34375 -1.046875 0.5q-0.59375 0.171875 -1.4375 0.171875q-0.90625 0 -1.625 -0.34375q-0.703125 -0.359375 -1.125 -1.0625q-0.40625 -0.71875 -0.40625 -1.828125q0 -1.625 1.140625 -2.390625q1.140625 -0.765625 3.421875 -0.84375l1.765625 -0.0625l0 -0.4375q0 -0.8125 -0.421875 -1.171875q-0.421875 -0.375 -1.171875 -0.375q-0.734375 0 -1.453125 0.203125q-0.703125 0.203125 -1.40625 0.53125l-0.921875 -1.875q0.8125 -0.4375 1.8125 -0.671875q1.015625 -0.25 2.078125 -0.25zm1.484375 5.671875l-1.078125 0.03125q-1.34375 0.046875 -1.875 0.5q-0.515625 0.4375 -0.515625 1.15625q0 0.640625 0.359375 0.921875q0.375 0.265625 0.984375 0.265625q0.890625 0 1.5 -0.53125q0.625 -0.53125 0.625 -1.5l0 -0.84375zm11.284073 -5.65625q1.71875 0 2.78125 1.34375q1.0625 1.328125 1.0625 3.921875q0 1.734375 -0.5 2.921875q-0.5 1.171875 -1.390625 1.78125q-0.875 0.59375 -2.03125 0.59375q-0.734375 0 -1.265625 -0.1875q-0.53125 -0.1875 -0.90625 -0.484375q-0.359375 -0.296875 -0.640625 -0.640625l-0.140625 0q0.0625 0.375 0.09375 0.765625q0.046875 0.375 0.046875 0.734375l0 4.109375l-2.78125 0l0 -14.671875l2.265625 0l0.390625 1.328125l0.125 0q0.28125 -0.421875 0.671875 -0.765625q0.390625 -0.34375 0.9375 -0.546875q0.546875 -0.203125 1.28125 -0.203125zm-0.890625 2.21875q-0.734375 0 -1.171875 0.3125q-0.421875 0.296875 -0.625 0.90625q-0.1875 0.59375 -0.203125 1.515625l0 0.296875q0 0.984375 0.1875 1.671875q0.1875 0.671875 0.625 1.03125q0.453125 0.359375 1.21875 0.359375q0.640625 0 1.046875 -0.359375q0.40625 -0.359375 0.609375 -1.046875q0.21875 -0.6875 0.21875 -1.671875q0 -1.5 -0.46875 -2.25q-0.46875 -0.765625 -1.4375 -0.765625zm11.196533 -2.234375q2.046875 0 3.140625 0.890625q1.09375 0.890625 1.09375 2.71875l0 6.78125l-1.9375 0l-0.53125 -1.390625l-0.078125 0q-0.4375 0.546875 -0.890625 0.90625q-0.453125 0.34375 -1.046875 0.5q-0.59375 0.171875 -1.4375 0.171875q-0.90625 0 -1.625 -0.34375q-0.703125 -0.359375 -1.125 -1.0625q-0.40625 -0.71875 -0.40625 -1.828125q0 -1.625 1.140625 -2.390625q1.140625 -0.765625 3.421875 -0.84375l1.765625 -0.0625l0 -0.4375q0 -0.8125 -0.421875 -1.171875q-0.421875 -0.375 -1.171875 -0.375q-0.734375 0 -1.453125 0.203125q-0.703125 0.203125 -1.40625 0.53125l-0.921875 -1.875q0.8125 -0.4375 1.8125 -0.671875q1.015625 -0.25 2.078125 -0.25zm1.484375 5.671875l-1.078125 0.03125q-1.34375 0.046875 -1.875 0.5q-0.515625 0.4375 -0.515625 1.15625q0 0.640625 0.359375 0.921875q0.375 0.265625 0.984375 0.265625q0.890625 0 1.5 -0.53125q0.625 -0.53125 0.625 -1.5l0 -0.84375zm8.393448 -9.453125l0 3.296875q0 0.578125 -0.03125 1.140625q-0.03125 0.5625 -0.078125 0.875l0.109375 0q0.40625 -0.625 1.09375 -1.0625q0.6875 -0.453125 1.796875 -0.453125q1.71875 0 2.78125 1.34375q1.0625 1.328125 1.0625 3.921875q0 1.734375 -0.5 2.921875q-0.484375 1.171875 -1.375 1.78125q-0.875 0.59375 -2.046875 0.59375q-1.109375 0 -1.765625 -0.40625q-0.640625 -0.40625 -1.046875 -0.90625l-0.1875 0l-0.46875 1.125l-2.125 0l0 -14.171875l2.78125 0zm2.0 6.015625q-0.734375 0 -1.171875 0.3125q-0.421875 0.296875 -0.625 0.90625q-0.1875 0.59375 -0.203125 1.515625l0 0.296875q0 1.484375 0.4375 2.28125q0.4375 0.78125 1.59375 0.78125q0.859375 0 1.359375 -0.796875q0.515625 -0.796875 0.515625 -2.28125q0 -1.5 -0.515625 -2.25q-0.515625 -0.765625 -1.390625 -0.765625zm9.805908 -2.03125l0 10.1875l-2.78125 0l0 -10.1875l2.78125 0zm-1.390625 -3.984375q0.625 0 1.0625 0.296875q0.453125 0.28125 0.453125 1.0625q0 0.765625 -0.453125 1.0625q-0.4375 0.296875 -1.0625 0.296875q-0.625 0 -1.0625 -0.296875q-0.4375 -0.296875 -0.4375 -1.0625q0 -0.78125 0.4375 -1.0625q0.4375 -0.296875 1.0625 -0.296875zm7.0840607 14.171875l-2.78125 0l0 -14.171875l2.78125 0l0 14.171875zm5.6934357 -10.1875l0 10.1875l-2.78125 0l0 -10.1875l2.78125 0zm-1.390625 -3.984375q0.625 0 1.0625 0.296875q0.453125 0.28125 0.453125 1.0625q0 0.765625 -0.453125 1.0625q-0.4375 0.296875 -1.0625 0.296875q-0.625 0 -1.0625 -0.296875q-0.4375 -0.296875 -0.4375 -1.0625q0 -0.78125 0.4375 -1.0625q0.4375 -0.296875 1.0625 -0.296875zm8.599686 12.140625q0.453125 0 0.875 -0.09375q0.4375 -0.09375 0.875 -0.21875l0 2.0625q-0.453125 0.203125 -1.109375 0.328125q-0.65625 0.140625 -1.4375 0.140625q-0.921875 0 -1.640625 -0.296875q-0.71875 -0.296875 -1.140625 -1.03125q-0.40625 -0.734375 -0.40625 -2.046875l0 -4.90625l-1.34375 0l0 -1.1875l1.53125 -0.921875l0.8125 -2.15625l1.765625 0l0 2.171875l2.859375 0l0 2.09375l-2.859375 0l0 4.90625q0 0.578125 0.328125 0.875q0.34375 0.28125 0.890625 0.28125zm6.5827026 -8.15625l0 10.1875l-2.78125 0l0 -10.1875l2.78125 0zm-1.390625 -3.984375q0.625 0 1.0625 0.296875q0.453125 0.28125 0.453125 1.0625q0 0.765625 -0.453125 1.0625q-0.4375 0.296875 -1.0625 0.296875q-0.625 0 -1.0625 -0.296875q-0.4375 -0.296875 -0.4375 -1.0625q0 -0.78125 0.4375 -1.0625q0.4375 -0.296875 1.0625 -0.296875zm8.505951 3.796875q1.40625 0 2.421875 0.546875q1.03125 0.53125 1.578125 1.5625q0.5625 1.03125 0.5625 2.515625l0 1.34375l-6.5625 0q0.046875 1.1875 0.703125 1.859375q0.65625 0.65625 1.828125 0.65625q0.984375 0 1.796875 -0.1875q0.8125 -0.203125 1.65625 -0.609375l0 2.15625q-0.75 0.375 -1.578125 0.546875q-0.828125 0.171875 -2.0 0.171875q-1.53125 0 -2.71875 -0.5625q-1.171875 -0.578125 -1.84375 -1.734375q-0.65625 -1.15625 -0.65625 -2.90625q0 -1.796875 0.59375 -2.984375q0.609375 -1.1875 1.6875 -1.78125q1.09375 -0.59375 2.53125 -0.59375zm0.015625 1.96875q-0.8125 0 -1.34375 0.53125q-0.53125 0.515625 -0.609375 1.625l3.890625 0q0 -0.625 -0.21875 -1.09375q-0.21875 -0.484375 -0.640625 -0.765625q-0.421875 -0.296875 -1.078125 -0.296875zm13.913116 5.375q0 1.046875 -0.484375 1.765625q-0.484375 0.703125 -1.453125 1.078125q-0.96875 0.375 -2.40625 0.375q-1.0625 0 -1.828125 -0.140625q-0.765625 -0.140625 -1.53125 -0.453125l0 -2.296875q0.828125 0.375 1.78125 0.625q0.953125 0.234375 1.671875 0.234375q0.8125 0 1.15625 -0.234375q0.359375 -0.25 0.359375 -0.640625q0 -0.265625 -0.15625 -0.46875q-0.140625 -0.203125 -0.609375 -0.453125q-0.453125 -0.265625 -1.453125 -0.6875q-0.953125 -0.40625 -1.5625 -0.8125q-0.609375 -0.40625 -0.90625 -0.96875q-0.296875 -0.5625 -0.296875 -1.421875q0 -1.421875 1.09375 -2.125q1.09375 -0.71875 2.9375 -0.71875q0.953125 0 1.8125 0.1875q0.859375 0.1875 1.765625 0.609375l-0.84375 2.015625q-0.75 -0.328125 -1.421875 -0.53125q-0.671875 -0.21875 -1.359375 -0.21875q-0.609375 0 -0.921875 0.171875q-0.3125 0.15625 -0.3125 0.484375q0 0.25 0.15625 0.453125q0.171875 0.1875 0.625 0.421875q0.46875 0.21875 1.359375 0.59375q0.859375 0.34375 1.5 0.734375q0.640625 0.390625 0.984375 0.96875q0.34375 0.5625 0.34375 1.453125z" fill-rule="nonzero"/><path fill="#d9d9d9" d="m331.8195 81.2336l159.811 0l0 40.661415l-159.811 0z" fill-rule="evenodd"/><path fill="#434343" d="m387.9921 101.70305q0 2.25 -0.859375 3.765625q-0.859375 1.5 -2.484375 2.265625q-1.625 0.75 -3.921875 0.75l-3.78125 0l0 -13.3125l4.1875 0q2.09375 0 3.625 0.75q1.546875 0.734375 2.390625 2.1875q0.84375 1.453125 0.84375 3.59375zm-2.921875 0.0625q0 -1.46875 -0.4375 -2.421875q-0.4375 -0.953125 -1.28125 -1.40625q-0.84375 -0.453125 -2.078125 -0.453125l-1.5 0l0 8.671875l1.21875 0q2.0625 0 3.0625 -1.09375q1.015625 -1.109375 1.015625 -3.296875zm14.731873 1.609375q0 1.28125 -0.34375 2.265625q-0.34375 0.96875 -1.0 1.65625q-0.640625 0.671875 -1.5625 1.03125q-0.921875 0.34375 -2.0625 0.34375q-1.078125 0 -1.984375 -0.34375q-0.890625 -0.359375 -1.546875 -1.03125q-0.65625 -0.6875 -1.015625 -1.65625q-0.359375 -0.984375 -0.359375 -2.265625q0 -1.703125 0.59375 -2.875q0.609375 -1.171875 1.71875 -1.78125q1.109375 -0.609375 2.640625 -0.609375q1.4375 0 2.546875 0.609375q1.109375 0.609375 1.734375 1.78125q0.640625 1.171875 0.640625 2.875zm-7.046875 0q0 1.0 0.21875 1.6875q0.21875 0.6875 0.671875 1.03125q0.46875 0.34375 1.21875 0.34375q0.734375 0 1.1875 -0.34375q0.46875 -0.34375 0.6875 -1.03125q0.21875 -0.6875 0.21875 -1.6875q0 -1.015625 -0.21875 -1.671875q-0.21875 -0.671875 -0.6875 -1.015625q-0.453125 -0.34375 -1.203125 -0.34375q-1.09375 0 -1.59375 0.765625q-0.5 0.75 -0.5 2.265625zm21.300842 -5.265625q1.734375 0 2.609375 0.890625q0.890625 0.890625 0.890625 2.84375l0 6.640625l-2.78125 0l0 -5.953125q0 -1.09375 -0.375 -1.640625q-0.375 -0.5625 -1.15625 -0.5625q-1.109375 0 -1.578125 0.796875q-0.453125 0.78125 -0.453125 2.25l0 5.109375l-2.78125 0l0 -5.953125q0 -0.71875 -0.171875 -1.203125q-0.15625 -0.5 -0.5 -0.75q-0.328125 -0.25 -0.859375 -0.25q-0.765625 0 -1.21875 0.390625q-0.4375 0.390625 -0.625 1.140625q-0.1875 0.75 -0.1875 1.828125l0 4.796875l-2.78125 0l0 -10.1875l2.125 0l0.375 1.3125l0.15625 0q0.3125 -0.53125 0.78125 -0.859375q0.46875 -0.328125 1.03125 -0.484375q0.5625 -0.15625 1.140625 -0.15625q1.125 0 1.90625 0.375q0.78125 0.359375 1.203125 1.125l0.234375 0q0.46875 -0.796875 1.296875 -1.140625q0.828125 -0.359375 1.71875 -0.359375zm10.522308 -0.015625q2.046875 0 3.140625 0.890625q1.09375 0.890625 1.09375 2.71875l0 6.78125l-1.9375 0l-0.53125 -1.390625l-0.078125 0q-0.4375 0.546875 -0.890625 0.90625q-0.453125 0.34375 -1.046875 0.5q-0.59375 0.171875 -1.4375 0.171875q-0.90625 0 -1.625 -0.34375q-0.703125 -0.359375 -1.125 -1.0625q-0.40625 -0.71875 -0.40625 -1.828125q0 -1.625 1.140625 -2.390625q1.140625 -0.765625 3.421875 -0.84375l1.765625 -0.0625l0 -0.4375q0 -0.8125 -0.421875 -1.171875q-0.421875 -0.375 -1.171875 -0.375q-0.734375 0 -1.453125 0.203125q-0.703125 0.203125 -1.40625 0.53125l-0.921875 -1.875q0.8125 -0.4375 1.8125 -0.671875q1.015625 -0.25 2.078125 -0.25zm1.484375 5.671875l-1.078125 0.03125q-1.34375 0.046875 -1.875 0.5q-0.515625 0.4375 -0.515625 1.15625q0 0.640625 0.359375 0.921875q0.375 0.265625 0.984375 0.265625q0.890625 0 1.5 -0.53125q0.625 -0.53125 0.625 -1.5l0 -0.84375zm8.393463 -5.46875l0 10.1875l-2.78125 0l0 -10.1875l2.78125 0zm-1.390625 -3.984375q0.625 0 1.0625 0.296875q0.453125 0.28125 0.453125 1.0625q0 0.765625 -0.453125 1.0625q-0.4375 0.296875 -1.0625 0.296875q-0.625 0 -1.0625 -0.296875q-0.4375 -0.296875 -0.4375 -1.0625q0 -0.78125 0.4375 -1.0625q0.4375 -0.296875 1.0625 -0.296875zm10.084045 3.796875q1.640625 0 2.625 0.890625q1.0 0.890625 1.0 2.84375l0 6.640625l-2.78125 0l0 -5.953125q0 -1.09375 -0.40625 -1.640625q-0.390625 -0.5625 -1.234375 -0.5625q-1.265625 0 -1.734375 0.875q-0.46875 0.859375 -0.46875 2.484375l0 4.796875l-2.78125 0l0 -10.1875l2.125 0l0.375 1.3125l0.15625 0q0.328125 -0.53125 0.8125 -0.859375q0.484375 -0.328125 1.078125 -0.484375q0.609375 -0.15625 1.234375 -0.15625z" fill-rule="nonzero"/><path fill="#666666" d="m51.362206 470.30444l0 -332.56693l40.661415 0l0 332.56693z" fill-rule="evenodd"/><path fill="#ffffff" d="m78.61291 326.0264l0 2.78125l-13.3125 0l0 -7.640625l2.3125 0l0 4.859375l3.4375 0l0 -4.515625l2.296875 0l0 4.515625l5.265625 0zm-5.109375 -16.5047q1.28125 0 2.265625 0.34375q0.96875 0.34375 1.65625 1.0q0.671875 0.640625 1.03125 1.5625q0.34375 0.921875 0.34375 2.0625q0 1.078125 -0.34375 1.984375q-0.359375 0.890625 -1.03125 1.546875q-0.6875 0.65625 -1.65625 1.015625q-0.984375 0.359375 -2.265625 0.359375q-1.703125 0 -2.875 -0.59375q-1.171875 -0.609375 -1.78125 -1.71875q-0.609375 -1.109375 -0.609375 -2.640625q0 -1.4375 0.609375 -2.546875q0.609375 -1.109375 1.78125 -1.734375q1.171875 -0.640625 2.875 -0.640625zm0 7.046875q1.0 0 1.6875 -0.21875q0.6875 -0.21875 1.03125 -0.671875q0.34375 -0.46875 0.34375 -1.21875q0 -0.734375 -0.34375 -1.1875q-0.34375 -0.46875 -1.03125 -0.6875q-0.6875 -0.21875 -1.6875 -0.21875q-1.015625 0 -1.671875 0.21875q-0.671875 0.21875 -1.015625 0.6875q-0.34375 0.453125 -0.34375 1.203125q0 1.09375 0.765625 1.59375q0.75 0.5 2.265625 0.5zm5.296875 -13.472717q0 1.515625 -0.546875 2.578125q-0.5625 1.0625 -1.71875 1.625q-1.15625 0.546875 -2.953125 0.546875q-1.875 0 -3.046875 -0.625q-1.1875 -0.640625 -1.734375 -1.765625q-0.5625 -1.125 -0.5625 -2.609375q0 -1.046875 0.203125 -1.8125q0.203125 -0.78125 0.484375 -1.359375l2.15625 0.828125q-0.265625 0.65625 -0.4375 1.21875q-0.171875 0.5625 -0.171875 1.125q0 0.734375 0.34375 1.21875q0.34375 0.484375 1.03125 0.71875q0.6875 0.234375 1.703125 0.234375q1.015625 0 1.6875 -0.25q0.65625 -0.265625 0.984375 -0.734375q0.328125 -0.484375 0.328125 -1.1875q0 -0.859375 -0.234375 -1.53125q-0.234375 -0.671875 -0.65625 -1.3125l2.375 0q0.40625 0.640625 0.578125 1.34375q0.1875 0.6875 0.1875 1.75zm-10.375 -14.79541l10.1875 0l0 2.125l-1.296875 0.375l0 0.140625q0.515625 0.328125 0.84375 0.828125q0.328125 0.484375 0.484375 1.078125q0.15625 0.59375 0.15625 1.234375q0 1.09375 -0.390625 1.90625q-0.390625 0.796875 -1.203125 1.25q-0.828125 0.453125 -2.140625 0.453125l-6.640625 0l0 -2.78125l5.953125 0q1.09375 0 1.65625 -0.390625q0.546875 -0.390625 0.546875 -1.25q0 -0.84375 -0.390625 -1.328125q-0.390625 -0.484375 -1.140625 -0.671875q-0.75 -0.203125 -1.828125 -0.203125l-4.796875 0l0 -2.765625zm7.15625 -10.027008q1.046875 0 1.765625 0.484375q0.703125 0.484375 1.078125 1.453125q0.375 0.96875 0.375 2.40625q0 1.0625 -0.140625 1.828125q-0.140625 0.765625 -0.453125 1.53125l-2.296875 0q0.375 -0.828125 0.625 -1.78125q0.234375 -0.953125 0.234375 -1.671875q0 -0.8125 -0.234375 -1.15625q-0.25 -0.359375 -0.640625 -0.359375q-0.265625 0 -0.46875 0.15625q-0.203125 0.140625 -0.453125 0.609375q-0.265625 0.453125 -0.6875 1.453125q-0.40625 0.953125 -0.8125 1.5625q-0.40625 0.609375 -0.96875 0.90625q-0.5625 0.296875 -1.421875 0.296875q-1.421875 0 -2.125 -1.09375q-0.71875 -1.09375 -0.71875 -2.9375q0 -0.953125 0.1875 -1.8125q0.1875 -0.859375 0.609375 -1.765625l2.015625 0.84375q-0.328125 0.75 -0.53125 1.421875q-0.21875 0.671875 -0.21875 1.359375q0 0.609375 0.171875 0.921875q0.15625 0.3125 0.484375 0.3125q0.25 0 0.453125 -0.15625q0.1875 -0.171875 0.421875 -0.625q0.21875 -0.46875 0.59375 -1.359375q0.34375 -0.859375 0.734375 -1.5q0.390625 -0.640625 0.96875 -0.984375q0.5625 -0.34375 1.453125 -0.34375z" fill-rule="nonzero"/><path fill="#666666" d="m156.8985 31.696098l334.74014 0l0 40.661415l-334.74014 0z" fill-rule="evenodd"/><path fill="#ffffff" d="m283.4 52.27493q0 1.53125 -0.390625 2.796875q-0.375 1.265625 -1.15625 2.171875q-0.78125 0.90625 -1.96875 1.40625q-1.1875 0.484375 -2.828125 0.484375q-1.625 0 -2.828125 -0.484375q-1.1875 -0.5 -1.96875 -1.40625q-0.78125 -0.90625 -1.171875 -2.171875q-0.375 -1.265625 -0.375 -2.828125q0 -2.0625 0.671875 -3.59375q0.6875 -1.53125 2.09375 -2.375q1.421875 -0.859375 3.59375 -0.859375q2.171875 0 3.5625 0.859375q1.40625 0.84375 2.078125 2.390625q0.6875 1.53125 0.6875 3.609375zm-9.71875 0q0 1.390625 0.34375 2.40625q0.359375 1.0 1.09375 1.546875q0.75 0.53125 1.9375 0.53125q1.203125 0 1.953125 -0.53125q0.75 -0.546875 1.078125 -1.546875q0.34375 -1.015625 0.34375 -2.40625q0 -2.09375 -0.78125 -3.296875q-0.78125 -1.203125 -2.578125 -1.203125q-1.1875 0 -1.9375 0.546875q-0.75 0.53125 -1.109375 1.546875q-0.34375 1.0 -0.34375 2.40625zm17.94223 -3.703125q0.203125 0 0.484375 0.03125q0.28125 0.015625 0.453125 0.046875l-0.203125 2.609375q-0.140625 -0.046875 -0.390625 -0.0625q-0.25 -0.03125 -0.4375 -0.03125q-0.53125 0 -1.046875 0.140625q-0.5 0.140625 -0.90625 0.453125q-0.390625 0.296875 -0.625 0.796875q-0.234375 0.484375 -0.234375 1.203125l0 5.1875l-2.78125 0l0 -10.1875l2.109375 0l0.40625 1.71875l0.140625 0q0.296875 -0.515625 0.75 -0.953125q0.453125 -0.4375 1.03125 -0.6875q0.578125 -0.265625 1.25 -0.265625zm5.5655823 0.1875l0 10.1875l-2.78125 0l0 -10.1875l2.78125 0zm-1.390625 -3.984375q0.625 0 1.0625 0.296875q0.453125 0.28125 0.453125 1.0625q0 0.765625 -0.453125 1.0625q-0.4375 0.296875 -1.0625 0.296875q-0.625 0 -1.0625 -0.296875q-0.4375 -0.296875 -0.4375 -1.0625q0 -0.78125 0.4375 -1.0625q0.4375 -0.296875 1.0625 -0.296875zm8.50592 3.796875q1.40625 0 2.421875 0.546875q1.03125 0.53125 1.578125 1.5625q0.5625 1.03125 0.5625 2.515625l0 1.34375l-6.5625 0q0.046875 1.1875 0.703125 1.859375q0.65625 0.65625 1.828125 0.65625q0.984375 0 1.796875 -0.1875q0.8125 -0.203125 1.65625 -0.609375l0 2.15625q-0.75 0.375 -1.578125 0.546875q-0.828125 0.171875 -2.0 0.171875q-1.53125 0 -2.71875 -0.5625q-1.171875 -0.578125 -1.84375 -1.734375q-0.65625 -1.15625 -0.65625 -2.90625q0 -1.796875 0.59375 -2.984375q0.609375 -1.1875 1.6875 -1.78125q1.09375 -0.59375 2.53125 -0.59375zm0.015625 1.96875q-0.8125 0 -1.34375 0.53125q-0.53125 0.515625 -0.609375 1.625l3.890625 0q0 -0.625 -0.21875 -1.09375q-0.21875 -0.484375 -0.640625 -0.765625q-0.421875 -0.296875 -1.078125 -0.296875zm12.584991 -1.96875q1.640625 0 2.625 0.890625q1.0 0.890625 1.0 2.84375l0 6.640625l-2.78125 0l0 -5.953125q0 -1.09375 -0.40625 -1.640625q-0.390625 -0.5625 -1.234375 -0.5625q-1.265625 0 -1.734375 0.875q-0.46875 0.859375 -0.46875 2.484375l0 4.796875l-2.78125 0l0 -10.1875l2.125 0l0.375 1.3125l0.15625 0q0.328125 -0.53125 0.8125 -0.859375q0.484375 -0.328125 1.078125 -0.484375q0.609375 -0.15625 1.234375 -0.15625zm10.777008 8.34375q0.453125 0 0.875 -0.09375q0.4375 -0.09375 0.875 -0.21875l0 2.0625q-0.453125 0.203125 -1.109375 0.328125q-0.65625 0.140625 -1.4375 0.140625q-0.921875 0 -1.640625 -0.296875q-0.71875 -0.296875 -1.140625 -1.03125q-0.40625 -0.734375 -0.40625 -2.046875l0 -4.90625l-1.34375 0l0 -1.1875l1.53125 -0.921875l0.8125 -2.15625l1.765625 0l0 2.171875l2.859375 0l0 2.09375l-2.859375 0l0 4.90625q0 0.578125 0.328125 0.875q0.34375 0.28125 0.890625 0.28125zm7.973358 -8.359375q2.046875 0 3.140625 0.890625q1.09375 0.890625 1.09375 2.71875l0 6.78125l-1.9375 0l-0.53125 -1.390625l-0.078125 0q-0.4375 0.546875 -0.890625 0.90625q-0.453125 0.34375 -1.046875 0.5q-0.59375 0.171875 -1.4375 0.171875q-0.90625 0 -1.625 -0.34375q-0.703125 -0.359375 -1.125 -1.0625q-0.40625 -0.71875 -0.40625 -1.828125q0 -1.625 1.140625 -2.390625q1.140625 -0.765625 3.421875 -0.84375l1.765625 -0.0625l0 -0.4375q0 -0.8125 -0.421875 -1.171875q-0.421875 -0.375 -1.171875 -0.375q-0.734375 0 -1.453125 0.203125q-0.703125 0.203125 -1.40625 0.53125l-0.921875 -1.875q0.8125 -0.4375 1.8125 -0.671875q1.015625 -0.25 2.078125 -0.25zm1.484375 5.671875l-1.078125 0.03125q-1.34375 0.046875 -1.875 0.5q-0.515625 0.4375 -0.515625 1.15625q0 0.640625 0.359375 0.921875q0.375 0.265625 0.984375 0.265625q0.890625 0 1.5 -0.53125q0.625 -0.53125 0.625 -1.5l0 -0.84375zm9.909058 2.6875q0.453125 0 0.875 -0.09375q0.4375 -0.09375 0.875 -0.21875l0 2.0625q-0.453125 0.203125 -1.109375 0.328125q-0.65625 0.140625 -1.4375 0.140625q-0.921875 0 -1.640625 -0.296875q-0.71875 -0.296875 -1.140625 -1.03125q-0.40625 -0.734375 -0.40625 -2.046875l0 -4.90625l-1.34375 0l0 -1.1875l1.53125 -0.921875l0.8125 -2.15625l1.765625 0l0 2.171875l2.859375 0l0 2.09375l-2.859375 0l0 4.90625q0 0.578125 0.328125 0.875q0.34375 0.28125 0.890625 0.28125zm6.582733 -8.15625l0 10.1875l-2.78125 0l0 -10.1875l2.78125 0zm-1.390625 -3.984375q0.625 0 1.0625 0.296875q0.453125 0.28125 0.453125 1.0625q0 0.765625 -0.453125 1.0625q-0.4375 0.296875 -1.0625 0.296875q-0.625 0 -1.0625 -0.296875q-0.4375 -0.296875 -0.4375 -1.0625q0 -0.78125 0.4375 -1.0625q0.4375 -0.296875 1.0625 -0.296875zm13.56842 9.0625q0 1.28125 -0.34375 2.265625q-0.34375 0.96875 -1.0 1.65625q-0.640625 0.671875 -1.5625 1.03125q-0.921875 0.34375 -2.0625 0.34375q-1.078125 0 -1.984375 -0.34375q-0.890625 -0.359375 -1.546875 -1.03125q-0.65625 -0.6875 -1.015625 -1.65625q-0.359375 -0.984375 -0.359375 -2.265625q0 -1.703125 0.59375 -2.875q0.609375 -1.171875 1.71875 -1.78125q1.109375 -0.609375 2.640625 -0.609375q1.4375 0 2.546875 0.609375q1.109375 0.609375 1.734375 1.78125q0.640625 1.171875 0.640625 2.875zm-7.046875 0q0 1.0 0.21875 1.6875q0.21875 0.6875 0.671875 1.03125q0.46875 0.34375 1.21875 0.34375q0.734375 0 1.1875 -0.34375q0.46875 -0.34375 0.6875 -1.03125q0.21875 -0.6875 0.21875 -1.6875q0 -1.015625 -0.21875 -1.671875q-0.21875 -0.671875 -0.6875 -1.015625q-0.453125 -0.34375 -1.203125 -0.34375q-1.09375 0 -1.59375 0.765625q-0.5 0.75 -0.5 2.265625zm15.113342 -5.265625q1.640625 0 2.625 0.890625q1.0 0.890625 1.0 2.84375l0 6.640625l-2.78125 0l0 -5.953125q0 -1.09375 -0.40625 -1.640625q-0.390625 -0.5625 -1.234375 -0.5625q-1.265625 0 -1.734375 0.875q-0.46875 0.859375 -0.46875 2.484375l0 4.796875l-2.78125 0l0 -10.1875l2.125 0l0.375 1.3125l0.15625 0q0.328125 -0.53125 0.8125 -0.859375q0.484375 -0.328125 1.078125 -0.484375q0.609375 -0.15625 1.234375 -0.15625z" fill-rule="nonzero"/><path fill="#000000" fill-opacity="0.0" d="m156.89781 138.55272l162.07875 0l0 159.87401l-162.07875 0z" fill-rule="evenodd"/><path fill="#c77640" d="m211.09535 210.69223q0 1.109375 -0.53125 1.921875q-0.53125 0.8125 -1.5625 1.25q-1.015625 0.4375 -2.46875 0.4375q-0.640625 0 -1.265625 -0.09375q-0.609375 -0.078125 -1.171875 -0.234375q-0.5625 -0.171875 -1.0625 -0.421875l0 -2.4375q0.875 0.390625 1.828125 0.703125q0.953125 0.3125 1.875 0.3125q0.640625 0 1.03125 -0.15625q0.40625 -0.171875 0.578125 -0.46875q0.171875 -0.296875 0.171875 -0.6875q0 -0.46875 -0.3125 -0.796875q-0.3125 -0.328125 -0.859375 -0.609375q-0.546875 -0.296875 -1.21875 -0.625q-0.4375 -0.203125 -0.953125 -0.484375q-0.5 -0.296875 -0.96875 -0.71875q-0.453125 -0.421875 -0.75 -1.03125q-0.28125 -0.609375 -0.28125 -1.453125q0 -1.109375 0.5 -1.890625q0.515625 -0.78125 1.453125 -1.203125q0.953125 -0.421875 2.234375 -0.421875q0.96875 0 1.84375 0.234375q0.875 0.21875 1.828125 0.640625l-0.84375 2.03125q-0.859375 -0.34375 -1.53125 -0.53125q-0.671875 -0.1875 -1.375 -0.1875q-0.5 0 -0.84375 0.15625q-0.34375 0.15625 -0.53125 0.4375q-0.171875 0.28125 -0.171875 0.65625q0 0.4375 0.25 0.734375q0.265625 0.296875 0.78125 0.578125q0.53125 0.28125 1.3125 0.65625q0.9375 0.453125 1.609375 0.9375q0.671875 0.484375 1.03125 1.140625q0.375 0.65625 0.375 1.625zm0.68463135 -6.015625l2.828125 0l1.78125 5.3125q0.09375 0.25 0.140625 0.515625q0.0625 0.265625 0.109375 0.546875q0.046875 0.28125 0.0625 0.578125l0.046875 0q0.0625 -0.453125 0.140625 -0.84375q0.09375 -0.40625 0.234375 -0.796875l1.75 -5.3125l2.765625 0l-4.0 10.65625q-0.375 0.984375 -0.953125 1.640625q-0.578125 0.65625 -1.34375 0.984375q-0.75 0.328125 -1.65625 0.328125q-0.4375 0 -0.765625 -0.046875q-0.3125 -0.046875 -0.546875 -0.09375l0 -2.046875q0.171875 0.046875 0.4375 0.078125q0.28125 0.03125 0.578125 0.03125q0.546875 0 0.921875 -0.234375q0.390625 -0.21875 0.65625 -0.609375q0.265625 -0.375 0.421875 -0.84375l0.140625 -0.453125l-3.75 -9.390625zm17.810196 6.640625q0 0.96875 -0.453125 1.640625q-0.453125 0.65625 -1.359375 1.0q-0.890625 0.34375 -2.21875 0.34375q-1.0 0 -1.703125 -0.125q-0.703125 -0.125 -1.421875 -0.421875l0 -2.140625q0.765625 0.34375 1.640625 0.578125q0.890625 0.21875 1.5625 0.21875q0.75 0 1.078125 -0.21875q0.328125 -0.234375 0.328125 -0.59375q0 -0.234375 -0.140625 -0.421875q-0.125 -0.1875 -0.5625 -0.421875q-0.421875 -0.25 -1.34375 -0.640625q-0.890625 -0.375 -1.46875 -0.75q-0.5625 -0.390625 -0.84375 -0.90625q-0.265625 -0.515625 -0.265625 -1.328125q0 -1.3125 1.015625 -1.96875q1.015625 -0.671875 2.734375 -0.671875q0.875 0 1.671875 0.1875q0.796875 0.171875 1.65625 0.5625l-0.78125 1.859375q-0.703125 -0.296875 -1.328125 -0.484375q-0.625 -0.203125 -1.265625 -0.203125q-0.5625 0 -0.859375 0.15625q-0.28125 0.140625 -0.28125 0.453125q0 0.234375 0.140625 0.421875q0.15625 0.171875 0.578125 0.390625q0.4375 0.203125 1.265625 0.546875q0.796875 0.328125 1.390625 0.6875q0.59375 0.359375 0.90625 0.890625q0.328125 0.53125 0.328125 1.359375zm6.0039215 0.921875q0.421875 0 0.8125 -0.078125q0.40625 -0.09375 0.8125 -0.21875l0 1.921875q-0.421875 0.1875 -1.03125 0.3125q-0.609375 0.125 -1.34375 0.125q-0.84375 0 -1.515625 -0.265625q-0.671875 -0.28125 -1.0625 -0.96875q-0.375 -0.6875 -0.375 -1.90625l0 -4.546875l-1.25 0l0 -1.09375l1.421875 -0.859375l0.75 -2.0l1.65625 0l0 2.015625l2.640625 0l0 1.9375l-2.640625 0l0 4.546875q0 0.546875 0.296875 0.8125q0.3125 0.265625 0.828125 0.265625zm7.4280853 -7.75q1.3125 0 2.265625 0.515625q0.953125 0.5 1.46875 1.453125q0.515625 0.953125 0.515625 2.328125l0 1.25l-6.109375 0q0.046875 1.09375 0.65625 1.71875q0.609375 0.625 1.703125 0.625q0.90625 0 1.65625 -0.1875q0.765625 -0.1875 1.546875 -0.5625l0 2.0q-0.6875 0.34375 -1.46875 0.5q-0.765625 0.171875 -1.84375 0.171875q-1.421875 0 -2.53125 -0.515625q-1.09375 -0.53125 -1.71875 -1.609375q-0.609375 -1.078125 -0.609375 -2.703125q0 -1.671875 0.5625 -2.765625q0.5625 -1.109375 1.5625 -1.65625q1.015625 -0.5625 2.34375 -0.5625zm0.015625 1.84375q-0.75 0 -1.25 0.484375q-0.484375 0.46875 -0.5625 1.515625l3.625 0q-0.015625 -0.578125 -0.21875 -1.03125q-0.1875 -0.453125 -0.59375 -0.703125q-0.390625 -0.265625 -1.0 -0.265625zm17.440948 -1.84375q1.609375 0 2.421875 0.828125q0.828125 0.828125 0.828125 2.640625l0 6.171875l-2.59375 0l0 -5.53125q0 -1.015625 -0.34375 -1.53125q-0.34375 -0.515625 -1.078125 -0.515625q-1.015625 0 -1.453125 0.734375q-0.421875 0.734375 -0.421875 2.09375l0 4.75l-2.5781403 0l0 -5.53125q0 -0.671875 -0.15625 -1.125q-0.15625 -0.453125 -0.46875 -0.6875q-0.3125 -0.234375 -0.796875 -0.234375q-0.71875 0 -1.140625 0.359375q-0.40625 0.359375 -0.578125 1.0625q-0.171875 0.703125 -0.171875 1.703125l0 4.453125l-2.578125 0l0 -9.453125l1.96875 0l0.34375 1.203125l0.140625 0q0.296875 -0.484375 0.71875 -0.78125q0.4375 -0.3125 0.96875 -0.453125q0.53125 -0.15625 1.0625 -0.15625q1.046875 0 1.7656403 0.34375q0.71875 0.34375 1.109375 1.046875l0.234375 0q0.421875 -0.734375 1.1875 -1.0625q0.78125 -0.328125 1.609375 -0.328125zm12.499451 6.828125q0 0.96875 -0.453125 1.640625q-0.453125 0.65625 -1.359375 1.0q-0.890625 0.34375 -2.21875 0.34375q-1.0 0 -1.703125 -0.125q-0.703125 -0.125 -1.421875 -0.421875l0 -2.140625q0.765625 0.34375 1.640625 0.578125q0.890625 0.21875 1.5625 0.21875q0.75 0 1.078125 -0.21875q0.328125 -0.234375 0.328125 -0.59375q0 -0.234375 -0.140625 -0.421875q-0.125 -0.1875 -0.5625 -0.421875q-0.421875 -0.25 -1.34375 -0.640625q-0.890625 -0.375 -1.46875 -0.75q-0.5625 -0.390625 -0.84375 -0.90625q-0.265625 -0.515625 -0.265625 -1.328125q0 -1.3125 1.015625 -1.96875q1.015625 -0.671875 2.734375 -0.671875q0.875 0 1.671875 0.1875q0.796875 0.171875 1.65625 0.5625l-0.78125 1.859375q-0.703125 -0.296875 -1.328125 -0.484375q-0.625 -0.203125 -1.265625 -0.203125q-0.5625 0 -0.859375 0.15625q-0.28125 0.140625 -0.28125 0.453125q0 0.234375 0.140625 0.421875q0.15625 0.171875 0.578125 0.390625q0.4375 0.203125 1.265625 0.546875q0.796875 0.328125 1.390625 0.6875q0.59375 0.359375 0.90625 0.890625q0.328125 0.53125 0.328125 1.359375z" fill-rule="nonzero"/><path fill="#c77640" d="m207.26161 235.12973l-0.890625 -2.9375l-4.515625 0l-0.890625 2.9375l-2.828125 0l4.359375 -12.421875l3.21875 0l4.375 12.421875l-2.828125 0zm-1.515625 -5.140625l-0.90625 -2.875q-0.078125 -0.296875 -0.21875 -0.75q-0.140625 -0.453125 -0.28125 -0.921875q-0.140625 -0.46875 -0.21875 -0.8125q-0.09375 0.34375 -0.25 0.859375q-0.140625 0.515625 -0.28125 0.96875q-0.125 0.453125 -0.1875 0.65625l-0.890625 2.875l3.234375 0zm10.986649 -4.5q0.1875 0 0.4375 0.03125q0.265625 0.015625 0.421875 0.046875l-0.1875 2.421875q-0.125 -0.046875 -0.359375 -0.0625q-0.234375 -0.015625 -0.40625 -0.015625q-0.5 0 -0.96875 0.125q-0.46875 0.125 -0.84375 0.40625q-0.375 0.28125 -0.59375 0.75q-0.203125 0.453125 -0.203125 1.125l0 4.8125l-2.578125 0l0 -9.453125l1.953125 0l0.375 1.578125l0.125 0q0.28125 -0.46875 0.703125 -0.875q0.421875 -0.40625 0.953125 -0.640625q0.53125 -0.25 1.171875 -0.25zm6.4156036 9.8125q-1.390625 0 -2.390625 -0.515625q-0.984375 -0.515625 -1.5 -1.578125q-0.515625 -1.078125 -0.515625 -2.75q0 -1.734375 0.578125 -2.828125q0.59375 -1.109375 1.640625 -1.625q1.046875 -0.515625 2.421875 -0.515625q0.984375 0 1.6875 0.203125q0.71875 0.1875 1.265625 0.4375l-0.765625 2.0q-0.609375 -0.25 -1.140625 -0.40625q-0.515625 -0.15625 -1.046875 -0.15625q-0.671875 0 -1.125 0.328125q-0.453125 0.3125 -0.671875 0.953125q-0.21875 0.625 -0.21875 1.578125q0 0.953125 0.234375 1.578125q0.25 0.609375 0.6875 0.90625q0.453125 0.296875 1.09375 0.296875q0.8125 0 1.4375 -0.21875q0.625 -0.21875 1.21875 -0.59375l0 2.203125q-0.59375 0.375 -1.25 0.53125q-0.640625 0.171875 -1.640625 0.171875zm7.659439 -13.34375l0 2.6875q0 0.703125 -0.046875 1.34375q-0.046875 0.625 -0.078125 0.890625l0.140625 0q0.296875 -0.484375 0.71875 -0.78125q0.421875 -0.3125 0.921875 -0.453125q0.515625 -0.15625 1.09375 -0.15625q1.03125 0 1.78125 0.359375q0.765625 0.359375 1.1875 1.125q0.421875 0.765625 0.421875 1.984375l0 6.171875l-2.578125 0l0 -5.53125q0 -1.015625 -0.375 -1.53125q-0.359375 -0.515625 -1.140625 -0.515625q-0.78125 0 -1.234375 0.359375q-0.4375 0.359375 -0.625 1.0625q-0.1875 0.703125 -0.1875 1.703125l0 4.453125l-2.578125 0l0 -13.171875l2.578125 0zm11.388504 3.71875l0 9.453125l-2.578125 0l0 -9.453125l2.578125 0zm-1.296875 -3.71875q0.578125 0 0.984375 0.28125q0.421875 0.265625 0.421875 0.984375q0 0.71875 -0.421875 1.0q-0.40625 0.265625 -0.984375 0.265625q-0.578125 0 -0.984375 -0.265625q-0.40625 -0.28125 -0.40625 -1.0q0 -0.71875 0.40625 -0.984375q0.40625 -0.28125 0.984375 -0.28125zm7.9912567 11.28125q0.421875 0 0.8125 -0.078125q0.40625 -0.09375 0.8125 -0.21875l0 1.921875q-0.421875 0.1875 -1.03125 0.3125q-0.609375 0.125 -1.34375 0.125q-0.84375 0 -1.515625 -0.265625q-0.671875 -0.28125 -1.0625 -0.96875q-0.375 -0.6875 -0.375 -1.90625l0 -4.546875l-1.25 0l0 -1.09375l1.421875 -0.859375l0.75 -2.0l1.65625 0l0 2.015625l2.640625 0l0 1.9375l-2.640625 0l0 4.546875q0 0.546875 0.296875 0.8125q0.3125 0.265625 0.828125 0.265625zm7.4281006 -7.75q1.3125 0 2.265625 0.515625q0.953125 0.5 1.46875 1.453125q0.515625 0.953125 0.515625 2.328125l0 1.25l-6.1093903 0q0.046875 1.09375 0.65625 1.71875q0.609375 0.625 1.7031403 0.625q0.90625 0 1.65625 -0.1875q0.765625 -0.1875 1.546875 -0.5625l0 2.0q-0.6875 0.34375 -1.46875 0.5q-0.765625 0.171875 -1.84375 0.171875q-1.4218903 0 -2.5312653 -0.515625q-1.09375 -0.53125 -1.71875 -1.609375q-0.609375 -1.078125 -0.609375 -2.703125q0 -1.671875 0.5625 -2.765625q0.5625 -1.109375 1.5625 -1.65625q1.015625 -0.5625 2.3437653 -0.5625zm0.015625 1.84375q-0.75001526 0 -1.2500153 0.484375q-0.484375 0.46875 -0.5625 1.515625l3.6250153 0q-0.015625 -0.578125 -0.21875 -1.03125q-0.1875 -0.453125 -0.59375 -0.703125q-0.390625 -0.265625 -1.0 -0.265625zm10.159668 7.96875q-1.390625 0 -2.390625 -0.515625q-0.984375 -0.515625 -1.5 -1.578125q-0.515625 -1.078125 -0.515625 -2.75q0 -1.734375 0.578125 -2.828125q0.59375 -1.109375 1.640625 -1.625q1.046875 -0.515625 2.421875 -0.515625q0.984375 0 1.6875 0.203125q0.71875 0.1875 1.265625 0.4375l-0.765625 2.0q-0.609375 -0.25 -1.140625 -0.40625q-0.515625 -0.15625 -1.046875 -0.15625q-0.671875 0 -1.125 0.328125q-0.453125 0.3125 -0.671875 0.953125q-0.21875 0.625 -0.21875 1.578125q0 0.953125 0.234375 1.578125q0.25 0.609375 0.6875 0.90625q0.453125 0.296875 1.09375 0.296875q0.8125 0 1.4375 -0.21875q0.625 -0.21875 1.21875 -0.59375l0 2.203125q-0.59375 0.375 -1.25 0.53125q-0.640625 0.171875 -1.640625 0.171875zm9.065704 -2.0625q0.421875 0 0.8125 -0.078125q0.40625 -0.09375 0.8125 -0.21875l0 1.921875q-0.421875 0.1875 -1.03125 0.3125q-0.609375 0.125 -1.34375 0.125q-0.84375 0 -1.515625 -0.265625q-0.671875 -0.28125 -1.0625 -0.96875q-0.375 -0.6875 -0.375 -1.90625l0 -4.546875l-1.25 0l0 -1.09375l1.421875 -0.859375l0.75 -2.0l1.65625 0l0 2.015625l2.640625 0l0 1.9375l-2.640625 0l0 4.546875q0 0.546875 0.296875 0.8125q0.3125 0.265625 0.828125 0.265625z" fill-rule="nonzero"/><path fill="#000000" fill-opacity="0.0" d="m331.82 138.55272l162.07874 0l0 159.87401l-162.07874 0z" fill-rule="evenodd"/><path fill="#c77640" d="m376.52927 201.75473l3.84375 0q2.46875 0 3.734375 0.703125q1.28125 0.6875 1.28125 2.4375q0 0.703125 -0.234375 1.265625q-0.21875 0.5625 -0.640625 0.9375q-0.421875 0.359375 -1.03125 0.46875l0 0.078125q0.609375 0.125 1.109375 0.4375q0.5 0.3125 0.796875 0.90625q0.3125 0.578125 0.3125 1.546875q0 1.125 -0.5625 1.9375q-0.546875 0.796875 -1.5625 1.234375q-1.015625 0.421875 -2.421875 0.421875l-4.625 0l0 -12.375zm2.625 4.90625l1.515625 0q1.140625 0 1.578125 -0.359375q0.4375 -0.359375 0.4375 -1.0625q0 -0.71875 -0.515625 -1.015625q-0.515625 -0.3125 -1.640625 -0.3125l-1.375 0l0 2.75zm0 2.078125l0 3.21875l1.703125 0q1.1875 0 1.640625 -0.453125q0.46875 -0.453125 0.46875 -1.21875q0 -0.46875 -0.203125 -0.8125q-0.203125 -0.34375 -0.6875 -0.53125q-0.46875 -0.203125 -1.3125 -0.203125l-1.609375 0zm17.486084 -4.0625l0 9.453125l-1.96875 0l-0.359375 -1.203125l-0.125 0q-0.3125 0.46875 -0.765625 0.78125q-0.453125 0.296875 -1.015625 0.4375q-0.546875 0.15625 -1.140625 0.15625q-1.015625 0 -1.765625 -0.359375q-0.75 -0.359375 -1.171875 -1.125q-0.421875 -0.765625 -0.421875 -1.984375l0 -6.15625l2.59375 0l0 5.515625q0 1.015625 0.359375 1.53125q0.359375 0.515625 1.15625 0.515625q0.78125 0 1.234375 -0.359375q0.453125 -0.359375 0.625 -1.046875q0.1875 -0.703125 0.1875 -1.71875l0 -4.4375l2.578125 0zm9.310394 6.640625q0 0.96875 -0.453125 1.640625q-0.453125 0.65625 -1.359375 1.0q-0.890625 0.34375 -2.21875 0.34375q-1.0 0 -1.703125 -0.125q-0.703125 -0.125 -1.421875 -0.421875l0 -2.140625q0.765625 0.34375 1.640625 0.578125q0.890625 0.21875 1.5625 0.21875q0.75 0 1.078125 -0.21875q0.328125 -0.234375 0.328125 -0.59375q0 -0.234375 -0.140625 -0.421875q-0.125 -0.1875 -0.5625 -0.421875q-0.421875 -0.25 -1.34375 -0.640625q-0.890625 -0.375 -1.46875 -0.75q-0.5625 -0.390625 -0.84375 -0.90625q-0.265625 -0.515625 -0.265625 -1.328125q0 -1.3125 1.015625 -1.96875q1.015625 -0.671875 2.734375 -0.671875q0.875 0 1.671875 0.1875q0.796875 0.171875 1.65625 0.5625l-0.78125 1.859375q-0.703125 -0.296875 -1.328125 -0.484375q-0.625 -0.203125 -1.265625 -0.203125q-0.5625 0 -0.859375 0.15625q-0.28125 0.140625 -0.28125 0.453125q0 0.234375 0.140625 0.421875q0.15625 0.171875 0.578125 0.390625q0.4375 0.203125 1.265625 0.546875q0.796875 0.328125 1.390625 0.6875q0.59375 0.359375 0.90625 0.890625q0.328125 0.53125 0.328125 1.359375zm4.5976562 -6.640625l0 9.453125l-2.578125 0l0 -9.453125l2.578125 0zm-1.296875 -3.71875q0.578125 0 0.984375 0.28125q0.421875 0.265625 0.421875 0.984375q0 0.71875 -0.421875 1.0q-0.40625 0.265625 -0.984375 0.265625q-0.578125 0 -0.984375 -0.265625q-0.40625 -0.28125 -0.40625 -1.0q0 -0.71875 0.40625 -0.984375q0.40625 -0.28125 0.984375 -0.28125zm9.366272 3.53125q1.515625 0 2.4375 0.828125q0.921875 0.828125 0.921875 2.640625l0 6.171875l-2.578125 0l0 -5.53125q0 -1.015625 -0.375 -1.53125q-0.359375 -0.515625 -1.140625 -0.515625q-1.1875 0 -1.625 0.8125q-0.421875 0.796875 -0.421875 2.3125l0 4.453125l-2.578125 0l0 -9.453125l1.96875 0l0.34375 1.203125l0.140625 0q0.3125 -0.484375 0.765625 -0.78125q0.453125 -0.3125 1.0 -0.453125q0.5625 -0.15625 1.140625 -0.15625zm9.919739 0q1.3125 0 2.265625 0.515625q0.953125 0.5 1.46875 1.453125q0.515625 0.953125 0.515625 2.328125l0 1.25l-6.109375 0q0.046875 1.09375 0.65625 1.71875q0.609375 0.625 1.703125 0.625q0.90625 0 1.65625 -0.1875q0.765625 -0.1875 1.546875 -0.5625l0 2.0q-0.6875 0.34375 -1.46875 0.5q-0.765625 0.171875 -1.84375 0.171875q-1.421875 0 -2.53125 -0.515625q-1.09375 -0.53125 -1.71875 -1.609375q-0.609375 -1.078125 -0.609375 -2.703125q0 -1.671875 0.5625 -2.765625q0.5625 -1.109375 1.5625 -1.65625q1.015625 -0.5625 2.34375 -0.5625zm0.015625 1.84375q-0.75 0 -1.25 0.484375q-0.484375 0.46875 -0.5625 1.515625l3.625 0q-0.015625 -0.578125 -0.21875 -1.03125q-0.1875 -0.453125 -0.59375 -0.703125q-0.390625 -0.265625 -1.0 -0.265625zm12.9253235 4.984375q0 0.96875 -0.453125 1.640625q-0.453125 0.65625 -1.359375 1.0q-0.890625 0.34375 -2.21875 0.34375q-1.0 0 -1.703125 -0.125q-0.703125 -0.125 -1.421875 -0.421875l0 -2.140625q0.765625 0.34375 1.640625 0.578125q0.890625 0.21875 1.5625 0.21875q0.75 0 1.078125 -0.21875q0.328125 -0.234375 0.328125 -0.59375q0 -0.234375 -0.140625 -0.421875q-0.125 -0.1875 -0.5625 -0.421875q-0.421875 -0.25 -1.34375 -0.640625q-0.890625 -0.375 -1.46875 -0.75q-0.5625 -0.390625 -0.84375 -0.90625q-0.265625 -0.515625 -0.265625 -1.328125q0 -1.3125 1.015625 -1.96875q1.015625 -0.671875 2.734375 -0.671875q0.875 0 1.671875 0.1875q0.796875 0.171875 1.65625 0.5625l-0.78125 1.859375q-0.703125 -0.296875 -1.328125 -0.484375q-0.625 -0.203125 -1.265625 -0.203125q-0.5625 0 -0.859375 0.15625q-0.28125 0.140625 -0.28125 0.453125q0 0.234375 0.140625 0.421875q0.15625 0.171875 0.578125 0.390625q0.4375 0.203125 1.265625 0.546875q0.796875 0.328125 1.390625 0.6875q0.59375 0.359375 0.90625 0.890625q0.328125 0.53125 0.328125 1.359375zm8.613281 0q0 0.96875 -0.453125 1.640625q-0.453125 0.65625 -1.359375 1.0q-0.890625 0.34375 -2.21875 0.34375q-1.0 0 -1.703125 -0.125q-0.703125 -0.125 -1.421875 -0.421875l0 -2.140625q0.765625 0.34375 1.640625 0.578125q0.890625 0.21875 1.5625 0.21875q0.75 0 1.078125 -0.21875q0.328125 -0.234375 0.328125 -0.59375q0 -0.234375 -0.140625 -0.421875q-0.125 -0.1875 -0.5625 -0.421875q-0.421875 -0.25 -1.34375 -0.640625q-0.890625 -0.375 -1.46875 -0.75q-0.5625 -0.390625 -0.84375 -0.90625q-0.265625 -0.515625 -0.265625 -1.328125q0 -1.3125 1.015625 -1.96875q1.015625 -0.671875 2.734375 -0.671875q0.875 0 1.671875 0.1875q0.796875 0.171875 1.65625 0.5625l-0.78125 1.859375q-0.703125 -0.296875 -1.328125 -0.484375q-0.625 -0.203125 -1.265625 -0.203125q-0.5625 0 -0.859375 0.15625q-0.28125 0.140625 -0.28125 0.453125q0 0.234375 0.140625 0.421875q0.15625 0.171875 0.578125 0.390625q0.4375 0.203125 1.265625 0.546875q0.796875 0.328125 1.390625 0.6875q0.59375 0.359375 0.90625 0.890625q0.328125 0.53125 0.328125 1.359375z" fill-rule="nonzero"/><path fill="#c77640" d="m382.1838 235.12973l-0.890625 -2.9375l-4.515625 0l-0.890625 2.9375l-2.828125 0l4.359375 -12.421875l3.21875 0l4.375 12.421875l-2.828125 0zm-1.515625 -5.140625l-0.90625 -2.875q-0.078125 -0.296875 -0.21875 -0.75q-0.140625 -0.453125 -0.28125 -0.921875q-0.140625 -0.46875 -0.21875 -0.8125q-0.09375 0.34375 -0.25 0.859375q-0.140625 0.515625 -0.28125 0.96875q-0.125 0.453125 -0.1875 0.65625l-0.890625 2.875l3.234375 0zm10.986633 -4.5q0.1875 0 0.4375 0.03125q0.265625 0.015625 0.421875 0.046875l-0.1875 2.421875q-0.125 -0.046875 -0.359375 -0.0625q-0.234375 -0.015625 -0.40625 -0.015625q-0.5 0 -0.96875 0.125q-0.46875 0.125 -0.84375 0.40625q-0.375 0.28125 -0.59375 0.75q-0.203125 0.453125 -0.203125 1.125l0 4.8125l-2.578125 0l0 -9.453125l1.953125 0l0.375 1.578125l0.125 0q0.28125 -0.46875 0.703125 -0.875q0.421875 -0.40625 0.953125 -0.640625q0.53125 -0.25 1.171875 -0.25zm6.415619 9.8125q-1.390625 0 -2.390625 -0.515625q-0.984375 -0.515625 -1.5 -1.578125q-0.515625 -1.078125 -0.515625 -2.75q0 -1.734375 0.578125 -2.828125q0.59375 -1.109375 1.640625 -1.625q1.046875 -0.515625 2.421875 -0.515625q0.984375 0 1.6875 0.203125q0.71875 0.1875 1.265625 0.4375l-0.765625 2.0q-0.609375 -0.25 -1.140625 -0.40625q-0.515625 -0.15625 -1.046875 -0.15625q-0.671875 0 -1.125 0.328125q-0.453125 0.3125 -0.671875 0.953125q-0.21875 0.625 -0.21875 1.578125q0 0.953125 0.234375 1.578125q0.25 0.609375 0.6875 0.90625q0.453125 0.296875 1.09375 0.296875q0.8125 0 1.4375 -0.21875q0.625 -0.21875 1.21875 -0.59375l0 2.203125q-0.59375 0.375 -1.25 0.53125q-0.640625 0.171875 -1.640625 0.171875zm7.659424 -13.34375l0 2.6875q0 0.703125 -0.046875 1.34375q-0.046875 0.625 -0.078125 0.890625l0.140625 0q0.296875 -0.484375 0.71875 -0.78125q0.421875 -0.3125 0.921875 -0.453125q0.515625 -0.15625 1.09375 -0.15625q1.03125 0 1.78125 0.359375q0.765625 0.359375 1.1875 1.125q0.421875 0.765625 0.421875 1.984375l0 6.171875l-2.578125 0l0 -5.53125q0 -1.015625 -0.375 -1.53125q-0.359375 -0.515625 -1.140625 -0.515625q-0.78125 0 -1.234375 0.359375q-0.4375 0.359375 -0.625 1.0625q-0.1875 0.703125 -0.1875 1.703125l0 4.453125l-2.578125 0l0 -13.171875l2.578125 0zm11.388519 3.71875l0 9.453125l-2.578125 0l0 -9.453125l2.578125 0zm-1.296875 -3.71875q0.578125 0 0.984375 0.28125q0.421875 0.265625 0.421875 0.984375q0 0.71875 -0.421875 1.0q-0.40625 0.265625 -0.984375 0.265625q-0.578125 0 -0.984375 -0.265625q-0.40625 -0.28125 -0.40625 -1.0q0 -0.71875 0.40625 -0.984375q0.40625 -0.28125 0.984375 -0.28125zm7.9912415 11.28125q0.421875 0 0.8125 -0.078125q0.40625 -0.09375 0.8125 -0.21875l0 1.921875q-0.421875 0.1875 -1.03125 0.3125q-0.609375 0.125 -1.34375 0.125q-0.84375 0 -1.515625 -0.265625q-0.671875 -0.28125 -1.0625 -0.96875q-0.375 -0.6875 -0.375 -1.90625l0 -4.546875l-1.25 0l0 -1.09375l1.421875 -0.859375l0.75 -2.0l1.65625 0l0 2.015625l2.640625 0l0 1.9375l-2.640625 0l0 4.546875q0 0.546875 0.296875 0.8125q0.3125 0.265625 0.828125 0.265625zm7.4281006 -7.75q1.3125 0 2.265625 0.515625q0.953125 0.5 1.46875 1.453125q0.515625 0.953125 0.515625 2.328125l0 1.25l-6.109375 0q0.046875 1.09375 0.65625 1.71875q0.609375 0.625 1.703125 0.625q0.90625 0 1.65625 -0.1875q0.765625 -0.1875 1.546875 -0.5625l0 2.0q-0.6875 0.34375 -1.46875 0.5q-0.765625 0.171875 -1.84375 0.171875q-1.421875 0 -2.53125 -0.515625q-1.09375 -0.53125 -1.71875 -1.609375q-0.609375 -1.078125 -0.609375 -2.703125q0 -1.671875 0.5625 -2.765625q0.5625 -1.109375 1.5625 -1.65625q1.015625 -0.5625 2.34375 -0.5625zm0.015625 1.84375q-0.75 0 -1.25 0.484375q-0.484375 0.46875 -0.5625 1.515625l3.625 0q-0.015625 -0.578125 -0.21875 -1.03125q-0.1875 -0.453125 -0.59375 -0.703125q-0.390625 -0.265625 -1.0 -0.265625zm10.159668 7.96875q-1.390625 0 -2.390625 -0.515625q-0.984375 -0.515625 -1.5 -1.578125q-0.515625 -1.078125 -0.515625 -2.75q0 -1.734375 0.578125 -2.828125q0.59375 -1.109375 1.640625 -1.625q1.046875 -0.515625 2.421875 -0.515625q0.984375 0 1.6875 0.203125q0.71875 0.1875 1.265625 0.4375l-0.765625 2.0q-0.609375 -0.25 -1.140625 -0.40625q-0.515625 -0.15625 -1.046875 -0.15625q-0.671875 0 -1.125 0.328125q-0.453125 0.3125 -0.671875 0.953125q-0.21875 0.625 -0.21875 1.578125q0 0.953125 0.234375 1.578125q0.25 0.609375 0.6875 0.90625q0.453125 0.296875 1.09375 0.296875q0.8125 0 1.4375 -0.21875q0.625 -0.21875 1.21875 -0.59375l0 2.203125q-0.59375 0.375 -1.25 0.53125q-0.640625 0.171875 -1.640625 0.171875zm9.065704 -2.0625q0.421875 0 0.8125 -0.078125q0.40625 -0.09375 0.8125 -0.21875l0 1.921875q-0.421875 0.1875 -1.03125 0.3125q-0.609375 0.125 -1.34375 0.125q-0.84375 0 -1.515625 -0.265625q-0.671875 -0.28125 -1.0625 -0.96875q-0.375 -0.6875 -0.375 -1.90625l0 -4.546875l-1.25 0l0 -1.09375l1.421875 -0.859375l0.75 -2.0l1.65625 0l0 2.015625l2.640625 0l0 1.9375l-2.640625 0l0 4.546875q0 0.546875 0.296875 0.8125q0.3125 0.265625 0.828125 0.265625z" fill-rule="nonzero"/><path fill="#000000" fill-opacity="0.0" d="m156.89796 309.61523l162.07875 0l0 159.87402l-162.07875 0z" fill-rule="evenodd"/><path fill="#c77640" d="m203.30998 385.19226l-2.625 0l0 -10.1875l-3.359375 0l0 -2.1875l9.34375 0l0 2.1875l-3.359375 0l0 10.1875zm8.956619 -9.640625q1.3125 0 2.265625 0.515625q0.953125 0.5 1.46875 1.453125q0.515625 0.953125 0.515625 2.328125l0 1.25l-6.109375 0q0.046875 1.09375 0.65625 1.71875q0.609375 0.625 1.703125 0.625q0.90625 0 1.65625 -0.1875q0.765625 -0.1875 1.546875 -0.5625l0 2.0q-0.6875 0.34375 -1.46875 0.5q-0.765625 0.171875 -1.84375 0.171875q-1.421875 0 -2.53125 -0.515625q-1.09375 -0.53125 -1.71875 -1.609375q-0.609375 -1.078125 -0.609375 -2.703125q0 -1.671875 0.5625 -2.765625q0.5625 -1.109375 1.5625 -1.65625q1.015625 -0.5625 2.34375 -0.5625zm0.015625 1.84375q-0.75 0 -1.25 0.484375q-0.484375 0.46875 -0.5625 1.515625l3.625 0q-0.015625 -0.578125 -0.21875 -1.03125q-0.1875 -0.453125 -0.59375 -0.703125q-0.390625 -0.265625 -1.0 -0.265625zm10.159683 7.96875q-1.390625 0 -2.390625 -0.515625q-0.984375 -0.515625 -1.5 -1.578125q-0.515625 -1.078125 -0.515625 -2.75q0 -1.734375 0.578125 -2.828125q0.59375 -1.109375 1.640625 -1.625q1.046875 -0.515625 2.421875 -0.515625q0.984375 0 1.6875 0.203125q0.71875 0.1875 1.265625 0.4375l-0.765625 2.0q-0.609375 -0.25 -1.140625 -0.40625q-0.515625 -0.15625 -1.046875 -0.15625q-0.671875 0 -1.125 0.328125q-0.453125 0.3125 -0.671875 0.953125q-0.21875 0.625 -0.21875 1.578125q0 0.953125 0.234375 1.578125q0.25 0.609375 0.6875 0.90625q0.453125 0.296875 1.09375 0.296875q0.8125 0 1.4375 -0.21875q0.625 -0.21875 1.21875 -0.59375l0 2.203125q-0.59375 0.375 -1.25 0.53125q-0.640625 0.171875 -1.640625 0.171875zm7.659439 -13.34375l0 2.6875q0 0.703125 -0.046875 1.34375q-0.046875 0.625 -0.078125 0.890625l0.140625 0q0.296875 -0.484375 0.71875 -0.78125q0.421875 -0.3125 0.921875 -0.453125q0.515625 -0.15625 1.09375 -0.15625q1.03125 0 1.78125 0.359375q0.765625 0.359375 1.1875 1.125q0.421875 0.765625 0.421875 1.984375l0 6.171875l-2.578125 0l0 -5.53125q0 -1.015625 -0.375 -1.53125q-0.359375 -0.515625 -1.140625 -0.515625q-0.78125 0 -1.234375 0.359375q-0.4375 0.359375 -0.625 1.0625q-0.1875 0.703125 -0.1875 1.703125l0 4.453125l-2.578125 0l0 -13.171875l2.578125 0zm14.169754 3.53125q1.515625 0 2.4375 0.828125q0.921875 0.828125 0.921875 2.640625l0 6.171875l-2.578125 0l0 -5.53125q0 -1.015625 -0.375 -1.53125q-0.359375 -0.515625 -1.140625 -0.515625q-1.1875 0 -1.625 0.8125q-0.421875 0.796875 -0.421875 2.3125l0 4.453125l-2.578125 0l0 -9.453125l1.96875 0l0.34375 1.203125l0.140625 0q0.3125 -0.484375 0.765625 -0.78125q0.453125 -0.3125 1.0 -0.453125q0.5625 -0.15625 1.140625 -0.15625zm8.607254 0.1875l0 9.453125l-2.578125 0l0 -9.453125l2.578125 0zm-1.296875 -3.71875q0.578125 0 0.984375 0.28125q0.421875 0.265625 0.421875 0.984375q0 0.71875 -0.421875 1.0q-0.40625 0.265625 -0.984375 0.265625q-0.578125 0 -0.984375 -0.265625q-0.40625 -0.28125 -0.40625 -1.0q0 -0.71875 0.40625 -0.984375q0.40625 -0.28125 0.984375 -0.28125zm7.8349915 13.34375q-1.390625 0 -2.390625 -0.515625q-0.984375 -0.515625 -1.4999847 -1.578125q-0.515625 -1.078125 -0.515625 -2.75q0 -1.734375 0.578125 -2.828125q0.59373474 -1.109375 1.6406097 -1.625q1.046875 -0.515625 2.421875 -0.515625q0.984375 0 1.6875 0.203125q0.71875 0.1875 1.265625 0.4375l-0.765625 2.0q-0.609375 -0.25 -1.140625 -0.40625q-0.515625 -0.15625 -1.046875 -0.15625q-0.671875 0 -1.125 0.328125q-0.453125 0.3125 -0.671875 0.953125q-0.21875 0.625 -0.21875 1.578125q0 0.953125 0.234375 1.578125q0.25 0.609375 0.6875 0.90625q0.453125 0.296875 1.09375 0.296875q0.8125 0 1.4375 -0.21875q0.625 -0.21875 1.21875 -0.59375l0 2.203125q-0.59375 0.375 -1.25 0.53125q-0.640625 0.171875 -1.640625 0.171875zm8.956329 -9.828125q1.890625 0 2.90625 0.828125q1.015625 0.828125 1.015625 2.53125l0 6.296875l-1.796875 0l-0.5 -1.28125l-0.0625 0q-0.40625 0.5 -0.828125 0.828125q-0.421875 0.3125 -0.984375 0.46875q-0.546875 0.15625 -1.328125 0.15625q-0.84375 0 -1.515625 -0.3125q-0.65625 -0.328125 -1.03125 -0.984375q-0.375 -0.671875 -0.375 -1.703125q0 -1.5 1.046875 -2.21875q1.0625 -0.71875 3.171875 -0.796875l1.640625 -0.046875l0 -0.40625q0 -0.75 -0.390625 -1.09375q-0.375 -0.34375 -1.078125 -0.34375q-0.6875 0 -1.34375 0.1875q-0.65625 0.1875 -1.3125 0.484375l-0.859375 -1.734375q0.75 -0.40625 1.6875 -0.625q0.9375 -0.234375 1.9375 -0.234375zm1.359375 5.28125l-1.0 0.03125q-1.25 0.03125 -1.734375 0.453125q-0.484375 0.40625 -0.484375 1.078125q0 0.59375 0.34375 0.84375q0.34375 0.25 0.90625 0.25q0.828125 0 1.390625 -0.484375q0.578125 -0.5 0.578125 -1.40625l0 -0.765625zm7.8099976 4.375l-2.578125 0l0 -13.171875l2.578125 0l0 13.171875z" fill-rule="nonzero"/><path fill="#c77640" d="m207.26178 406.19226l-0.890625 -2.9375l-4.515625 0l-0.890625 2.9375l-2.828125 0l4.359375 -12.421875l3.21875 0l4.375 12.421875l-2.828125 0zm-1.515625 -5.140625l-0.90625 -2.875q-0.078125 -0.296875 -0.21875 -0.75q-0.140625 -0.453125 -0.28125 -0.921875q-0.140625 -0.46875 -0.21875 -0.8125q-0.09375 0.34375 -0.25 0.859375q-0.140625 0.515625 -0.28125 0.96875q-0.125 0.453125 -0.1875 0.65625l-0.890625 2.875l3.234375 0zm10.986649 -4.5q0.1875 0 0.4375 0.03125q0.265625 0.015625 0.421875 0.046875l-0.1875 2.421875q-0.125 -0.046875 -0.359375 -0.0625q-0.234375 -0.015625 -0.40625 -0.015625q-0.5 0 -0.96875 0.125q-0.46875 0.125 -0.84375 0.40625q-0.375 0.28125 -0.59375 0.75q-0.203125 0.453125 -0.203125 1.125l0 4.8125l-2.578125 0l0 -9.453125l1.953125 0l0.375 1.578125l0.125 0q0.28125 -0.46875 0.703125 -0.875q0.421875 -0.40625 0.953125 -0.640625q0.53125 -0.25 1.171875 -0.25zm6.4156036 9.8125q-1.390625 0 -2.390625 -0.515625q-0.984375 -0.515625 -1.5 -1.578125q-0.515625 -1.078125 -0.515625 -2.75q0 -1.734375 0.578125 -2.828125q0.59375 -1.109375 1.640625 -1.625q1.046875 -0.515625 2.421875 -0.515625q0.984375 0 1.6875 0.203125q0.71875 0.1875 1.265625 0.4375l-0.765625 2.0q-0.609375 -0.25 -1.140625 -0.40625q-0.515625 -0.15625 -1.046875 -0.15625q-0.671875 0 -1.125 0.328125q-0.453125 0.3125 -0.671875 0.953125q-0.21875 0.625 -0.21875 1.578125q0 0.953125 0.234375 1.578125q0.25 0.609375 0.6875 0.90625q0.453125 0.296875 1.09375 0.296875q0.8125 0 1.4375 -0.21875q0.625 -0.21875 1.21875 -0.59375l0 2.203125q-0.59375 0.375 -1.25 0.53125q-0.640625 0.171875 -1.640625 0.171875zm7.659439 -13.34375l0 2.6875q0 0.703125 -0.046875 1.34375q-0.046875 0.625 -0.078125 0.890625l0.140625 0q0.296875 -0.484375 0.71875 -0.78125q0.421875 -0.3125 0.921875 -0.453125q0.515625 -0.15625 1.09375 -0.15625q1.03125 0 1.78125 0.359375q0.765625 0.359375 1.1875 1.125q0.421875 0.765625 0.421875 1.984375l0 6.171875l-2.578125 0l0 -5.53125q0 -1.015625 -0.375 -1.53125q-0.359375 -0.515625 -1.140625 -0.515625q-0.78125 0 -1.234375 0.359375q-0.4375 0.359375 -0.625 1.0625q-0.1875 0.703125 -0.1875 1.703125l0 4.453125l-2.578125 0l0 -13.171875l2.578125 0zm11.388504 3.71875l0 9.453125l-2.578125 0l0 -9.453125l2.578125 0zm-1.296875 -3.71875q0.578125 0 0.984375 0.28125q0.421875 0.265625 0.421875 0.984375q0 0.71875 -0.421875 1.0q-0.40625 0.265625 -0.984375 0.265625q-0.578125 0 -0.984375 -0.265625q-0.40625 -0.28125 -0.40625 -1.0q0 -0.71875 0.40625 -0.984375q0.40625 -0.28125 0.984375 -0.28125zm7.9912567 11.28125q0.421875 0 0.8125 -0.078125q0.40625 -0.09375 0.8125 -0.21875l0 1.921875q-0.421875 0.1875 -1.03125 0.3125q-0.609375 0.125 -1.34375 0.125q-0.84375 0 -1.515625 -0.265625q-0.671875 -0.28125 -1.0625 -0.96875q-0.375 -0.6875 -0.375 -1.90625l0 -4.546875l-1.25 0l0 -1.09375l1.421875 -0.859375l0.75 -2.0l1.65625 0l0 2.015625l2.640625 0l0 1.9375l-2.640625 0l0 4.546875q0 0.546875 0.296875 0.8125q0.3125 0.265625 0.828125 0.265625zm7.4280853 -7.75q1.3125 0 2.265625 0.515625q0.953125 0.5 1.46875 1.453125q0.515625 0.953125 0.515625 2.328125l0 1.25l-6.109375 0q0.046875 1.09375 0.65625 1.71875q0.609375 0.625 1.703125 0.625q0.90625 0 1.65625 -0.1875q0.765625 -0.1875 1.546875 -0.5625l0 2.0q-0.6875 0.34375 -1.46875 0.5q-0.765625 0.171875 -1.84375 0.171875q-1.421875 0 -2.53125 -0.515625q-1.09375 -0.53125 -1.71875 -1.609375q-0.609375 -1.078125 -0.609375 -2.703125q0 -1.671875 0.5625 -2.765625q0.5625 -1.109375 1.5625 -1.65625q1.015625 -0.5625 2.34375 -0.5625zm0.015625 1.84375q-0.75 0 -1.25 0.484375q-0.484375 0.46875 -0.5625 1.515625l3.625 0q-0.015625 -0.578125 -0.21875 -1.03125q-0.1875 -0.453125 -0.59375 -0.703125q-0.390625 -0.265625 -1.0 -0.265625zm10.159668 7.96875q-1.390625 0 -2.390625 -0.515625q-0.984375 -0.515625 -1.5 -1.578125q-0.515625 -1.078125 -0.515625 -2.75q0 -1.734375 0.578125 -2.828125q0.59375 -1.109375 1.640625 -1.625q1.046875 -0.515625 2.421875 -0.515625q0.984375 0 1.6875 0.203125q0.71875 0.1875 1.265625 0.4375l-0.765625 2.0q-0.609375 -0.25 -1.140625 -0.40625q-0.515625 -0.15625 -1.046875 -0.15625q-0.671875 0 -1.125 0.328125q-0.453125 0.3125 -0.671875 0.953125q-0.21875 0.625 -0.21875 1.578125q0 0.953125 0.234375 1.578125q0.25 0.609375 0.6875 0.90625q0.453125 0.296875 1.09375 0.296875q0.8125 0 1.4375 -0.21875q0.625 -0.21875 1.21875 -0.59375l0 2.203125q-0.59375 0.375 -1.25 0.53125q-0.640625 0.171875 -1.640625 0.171875zm9.065704 -2.0625q0.421875 0 0.8125 -0.078125q0.40625 -0.09375 0.8125 -0.21875l0 1.921875q-0.421875 0.1875 -1.03125 0.3125q-0.609375 0.125 -1.34375 0.125q-0.84375 0 -1.515625 -0.265625q-0.671875 -0.28125 -1.0625 -0.96875q-0.375 -0.6875 -0.375 -1.90625l0 -4.546875l-1.25 0l0 -1.09375l1.421875 -0.859375l0.75 -2.0l1.65625 0l0 2.015625l2.640625 0l0 1.9375l-2.640625 0l0 4.546875q0 0.546875 0.296875 0.8125q0.3125 0.265625 0.828125 0.265625z" fill-rule="nonzero"/><path fill="#000000" fill-opacity="0.0" d="m331.82 309.61557l162.07874 0l0 159.87402l-162.07874 0z" fill-rule="evenodd"/><path fill="#c77640" d="m385.78064 381.75507q0 1.109375 -0.53125 1.921875q-0.53125 0.8125 -1.5625 1.25q-1.015625 0.4375 -2.46875 0.4375q-0.640625 0 -1.265625 -0.09375q-0.609375 -0.078125 -1.171875 -0.234375q-0.5625 -0.171875 -1.0625 -0.421875l0 -2.4375q0.875 0.390625 1.828125 0.703125q0.953125 0.3125 1.875 0.3125q0.640625 0 1.03125 -0.15625q0.40625 -0.171875 0.578125 -0.46875q0.171875 -0.296875 0.171875 -0.6875q0 -0.46875 -0.3125 -0.796875q-0.3125 -0.328125 -0.859375 -0.609375q-0.546875 -0.296875 -1.21875 -0.625q-0.4375 -0.203125 -0.953125 -0.484375q-0.5 -0.296875 -0.96875 -0.71875q-0.453125 -0.421875 -0.75 -1.03125q-0.28125 -0.609375 -0.28125 -1.453125q0 -1.109375 0.5 -1.890625q0.515625 -0.78125 1.453125 -1.203125q0.953125 -0.421875 2.234375 -0.421875q0.96875 0 1.84375 0.234375q0.875 0.21875 1.828125 0.640625l-0.84375 2.03125q-0.859375 -0.34375 -1.53125 -0.53125q-0.671875 -0.1875 -1.375 -0.1875q-0.5 0 -0.84375 0.15625q-0.34375 0.15625 -0.53125 0.4375q-0.171875 0.28125 -0.171875 0.65625q0 0.4375 0.25 0.734375q0.265625 0.296875 0.78125 0.578125q0.53125 0.28125 1.3125 0.65625q0.9375 0.453125 1.609375 0.9375q0.671875 0.484375 1.03125 1.140625q0.375 0.65625 0.375 1.625zm10.637756 -1.3125q0 1.1875 -0.328125 2.109375q-0.3125 0.90625 -0.921875 1.546875q-0.59375 0.625 -1.453125 0.953125q-0.84375 0.3125 -1.90625 0.3125q-1.0 0 -1.84375 -0.3125q-0.828125 -0.328125 -1.4375 -0.953125q-0.609375 -0.640625 -0.953125 -1.546875q-0.328125 -0.921875 -0.328125 -2.109375q0 -1.578125 0.546875 -2.65625q0.5625 -1.09375 1.59375 -1.65625q1.03125 -0.578125 2.46875 -0.578125q1.328125 0 2.359375 0.578125q1.03125 0.5625 1.609375 1.65625q0.59375 1.078125 0.59375 2.65625zm-6.546875 0q0 0.9375 0.203125 1.578125q0.203125 0.625 0.625 0.953125q0.4375 0.3125 1.140625 0.3125q0.6875 0 1.109375 -0.3125q0.421875 -0.328125 0.625 -0.953125q0.203125 -0.640625 0.203125 -1.578125q0 -0.9375 -0.203125 -1.546875q-0.203125 -0.625 -0.640625 -0.9375q-0.421875 -0.328125 -1.109375 -0.328125q-1.03125 0 -1.5 0.703125q-0.453125 0.703125 -0.453125 2.109375zm11.259796 4.75l-2.578125 0l0 -13.171875l2.578125 0l0 13.171875zm11.381866 -9.453125l0 9.453125l-1.96875 0l-0.359375 -1.203125l-0.125 0q-0.3125 0.46875 -0.765625 0.78125q-0.453125 0.296875 -1.015625 0.4375q-0.546875 0.15625 -1.140625 0.15625q-1.015625 0 -1.765625 -0.359375q-0.75 -0.359375 -1.171875 -1.125q-0.421875 -0.765625 -0.421875 -1.984375l0 -6.15625l2.59375 0l0 5.515625q0 1.015625 0.359375 1.53125q0.359375 0.515625 1.15625 0.515625q0.78125 0 1.234375 -0.359375q0.453125 -0.359375 0.625 -1.046875q0.1875 -0.703125 0.1875 -1.71875l0 -4.4375l2.578125 0zm6.7010193 7.5625q0.421875 0 0.8125 -0.078125q0.40625 -0.09375 0.8125 -0.21875l0 1.921875q-0.421875 0.1875 -1.03125 0.3125q-0.609375 0.125 -1.34375 0.125q-0.84375 0 -1.515625 -0.265625q-0.671875 -0.28125 -1.0625 -0.96875q-0.375 -0.6875 -0.375 -1.90625l0 -4.546875l-1.25 0l0 -1.09375l1.421875 -0.859375l0.75 -2.0l1.65625 0l0 2.015625l2.640625 0l0 1.9375l-2.640625 0l0 4.546875q0 0.546875 0.296875 0.8125q0.3125 0.265625 0.828125 0.265625zm6.11557 -7.5625l0 9.453125l-2.578125 0l0 -9.453125l2.578125 0zm-1.296875 -3.71875q0.578125 0 0.984375 0.28125q0.421875 0.265625 0.421875 0.984375q0 0.71875 -0.421875 1.0q-0.40625 0.265625 -0.984375 0.265625q-0.578125 0 -0.984375 -0.265625q-0.40625 -0.28125 -0.40625 -1.0q0 -0.71875 0.40625 -0.984375q0.40625 -0.28125 0.984375 -0.28125zm12.600647 8.421875q0 1.1875 -0.328125 2.109375q-0.3125 0.90625 -0.921875 1.546875q-0.59375 0.625 -1.453125 0.953125q-0.84375 0.3125 -1.90625 0.3125q-1.0 0 -1.84375 -0.3125q-0.828125 -0.328125 -1.4375 -0.953125q-0.609375 -0.640625 -0.953125 -1.546875q-0.328125 -0.921875 -0.328125 -2.109375q0 -1.578125 0.546875 -2.65625q0.5625 -1.09375 1.59375 -1.65625q1.03125 -0.578125 2.46875 -0.578125q1.328125 0 2.359375 0.578125q1.03125 0.5625 1.609375 1.65625q0.59375 1.078125 0.59375 2.65625zm-6.546875 0q0 0.9375 0.203125 1.578125q0.203125 0.625 0.625 0.953125q0.4375 0.3125 1.140625 0.3125q0.6875 0 1.109375 -0.3125q0.421875 -0.328125 0.625 -0.953125q0.203125 -0.640625 0.203125 -1.578125q0 -0.9375 -0.203125 -1.546875q-0.203125 -0.625 -0.640625 -0.9375q-0.421875 -0.328125 -1.109375 -0.328125q-1.03125 0 -1.5 0.703125q-0.453125 0.703125 -0.453125 2.109375zm14.041046 -4.890625q1.515625 0 2.4375 0.828125q0.921875 0.828125 0.921875 2.640625l0 6.171875l-2.578125 0l0 -5.53125q0 -1.015625 -0.375 -1.53125q-0.359375 -0.515625 -1.140625 -0.515625q-1.1875 0 -1.625 0.8125q-0.421875 0.796875 -0.421875 2.3125l0 4.453125l-2.578125 0l0 -9.453125l1.96875 0l0.34375 1.203125l0.140625 0q0.3125 -0.484375 0.765625 -0.78125q0.453125 -0.3125 1.0 -0.453125q0.5625 -0.15625 1.140625 -0.15625z" fill-rule="nonzero"/><path fill="#c77640" d="m382.1838 406.19257l-0.890625 -2.9375l-4.515625 0l-0.890625 2.9375l-2.828125 0l4.359375 -12.421875l3.21875 0l4.375 12.421875l-2.828125 0zm-1.515625 -5.140625l-0.90625 -2.875q-0.078125 -0.296875 -0.21875 -0.75q-0.140625 -0.453125 -0.28125 -0.921875q-0.140625 -0.46875 -0.21875 -0.8125q-0.09375 0.34375 -0.25 0.859375q-0.140625 0.515625 -0.28125 0.96875q-0.125 0.453125 -0.1875 0.65625l-0.890625 2.875l3.234375 0zm10.986633 -4.5q0.1875 0 0.4375 0.03125q0.265625 0.015625 0.421875 0.046875l-0.1875 2.421875q-0.125 -0.046875 -0.359375 -0.0625q-0.234375 -0.015625 -0.40625 -0.015625q-0.5 0 -0.96875 0.125q-0.46875 0.125 -0.84375 0.40625q-0.375 0.28125 -0.59375 0.75q-0.203125 0.453125 -0.203125 1.125l0 4.8125l-2.578125 0l0 -9.453125l1.953125 0l0.375 1.578125l0.125 0q0.28125 -0.46875 0.703125 -0.875q0.421875 -0.40625 0.953125 -0.640625q0.53125 -0.25 1.171875 -0.25zm6.415619 9.8125q-1.390625 0 -2.390625 -0.515625q-0.984375 -0.515625 -1.5 -1.578125q-0.515625 -1.078125 -0.515625 -2.75q0 -1.734375 0.578125 -2.828125q0.59375 -1.109375 1.640625 -1.625q1.046875 -0.515625 2.421875 -0.515625q0.984375 0 1.6875 0.203125q0.71875 0.1875 1.265625 0.4375l-0.765625 2.0q-0.609375 -0.25 -1.140625 -0.40625q-0.515625 -0.15625 -1.046875 -0.15625q-0.671875 0 -1.125 0.328125q-0.453125 0.3125 -0.671875 0.953125q-0.21875 0.625 -0.21875 1.578125q0 0.953125 0.234375 1.578125q0.25 0.609375 0.6875 0.90625q0.453125 0.296875 1.09375 0.296875q0.8125 0 1.4375 -0.21875q0.625 -0.21875 1.21875 -0.59375l0 2.203125q-0.59375 0.375 -1.25 0.53125q-0.640625 0.171875 -1.640625 0.171875zm7.659424 -13.34375l0 2.6875q0 0.703125 -0.046875 1.34375q-0.046875 0.625 -0.078125 0.890625l0.140625 0q0.296875 -0.484375 0.71875 -0.78125q0.421875 -0.3125 0.921875 -0.453125q0.515625 -0.15625 1.09375 -0.15625q1.03125 0 1.78125 0.359375q0.765625 0.359375 1.1875 1.125q0.421875 0.765625 0.421875 1.984375l0 6.171875l-2.578125 0l0 -5.53125q0 -1.015625 -0.375 -1.53125q-0.359375 -0.515625 -1.140625 -0.515625q-0.78125 0 -1.234375 0.359375q-0.4375 0.359375 -0.625 1.0625q-0.1875 0.703125 -0.1875 1.703125l0 4.453125l-2.578125 0l0 -13.171875l2.578125 0zm11.388519 3.71875l0 9.453125l-2.578125 0l0 -9.453125l2.578125 0zm-1.296875 -3.71875q0.578125 0 0.984375 0.28125q0.421875 0.265625 0.421875 0.984375q0 0.71875 -0.421875 1.0q-0.40625 0.265625 -0.984375 0.265625q-0.578125 0 -0.984375 -0.265625q-0.40625 -0.28125 -0.40625 -1.0q0 -0.71875 0.40625 -0.984375q0.40625 -0.28125 0.984375 -0.28125zm7.9912415 11.28125q0.421875 0 0.8125 -0.078125q0.40625 -0.09375 0.8125 -0.21875l0 1.921875q-0.421875 0.1875 -1.03125 0.3125q-0.609375 0.125 -1.34375 0.125q-0.84375 0 -1.515625 -0.265625q-0.671875 -0.28125 -1.0625 -0.96875q-0.375 -0.6875 -0.375 -1.90625l0 -4.546875l-1.25 0l0 -1.09375l1.421875 -0.859375l0.75 -2.0l1.65625 0l0 2.015625l2.640625 0l0 1.9375l-2.640625 0l0 4.546875q0 0.546875 0.296875 0.8125q0.3125 0.265625 0.828125 0.265625zm7.4281006 -7.75q1.3125 0 2.265625 0.515625q0.953125 0.5 1.46875 1.453125q0.515625 0.953125 0.515625 2.328125l0 1.25l-6.109375 0q0.046875 1.09375 0.65625 1.71875q0.609375 0.625 1.703125 0.625q0.90625 0 1.65625 -0.1875q0.765625 -0.1875 1.546875 -0.5625l0 2.0q-0.6875 0.34375 -1.46875 0.5q-0.765625 0.171875 -1.84375 0.171875q-1.421875 0 -2.53125 -0.515625q-1.09375 -0.53125 -1.71875 -1.609375q-0.609375 -1.078125 -0.609375 -2.703125q0 -1.671875 0.5625 -2.765625q0.5625 -1.109375 1.5625 -1.65625q1.015625 -0.5625 2.34375 -0.5625zm0.015625 1.84375q-0.75 0 -1.25 0.484375q-0.484375 0.46875 -0.5625 1.515625l3.625 0q-0.015625 -0.578125 -0.21875 -1.03125q-0.1875 -0.453125 -0.59375 -0.703125q-0.390625 -0.265625 -1.0 -0.265625zm10.159668 7.96875q-1.390625 0 -2.390625 -0.515625q-0.984375 -0.515625 -1.5 -1.578125q-0.515625 -1.078125 -0.515625 -2.75q0 -1.734375 0.578125 -2.828125q0.59375 -1.109375 1.640625 -1.625q1.046875 -0.515625 2.421875 -0.515625q0.984375 0 1.6875 0.203125q0.71875 0.1875 1.265625 0.4375l-0.765625 2.0q-0.609375 -0.25 -1.140625 -0.40625q-0.515625 -0.15625 -1.046875 -0.15625q-0.671875 0 -1.125 0.328125q-0.453125 0.3125 -0.671875 0.953125q-0.21875 0.625 -0.21875 1.578125q0 0.953125 0.234375 1.578125q0.25 0.609375 0.6875 0.90625q0.453125 0.296875 1.09375 0.296875q0.8125 0 1.4375 -0.21875q0.625 -0.21875 1.21875 -0.59375l0 2.203125q-0.59375 0.375 -1.25 0.53125q-0.640625 0.171875 -1.640625 0.171875zm9.065704 -2.0625q0.421875 0 0.8125 -0.078125q0.40625 -0.09375 0.8125 -0.21875l0 1.921875q-0.421875 0.1875 -1.03125 0.3125q-0.609375 0.125 -1.34375 0.125q-0.84375 0 -1.515625 -0.265625q-0.671875 -0.28125 -1.0625 -0.96875q-0.375 -0.6875 -0.375 -1.90625l0 -4.546875l-1.25 0l0 -1.09375l1.421875 -0.859375l0.75 -2.0l1.65625 0l0 2.015625l2.640625 0l0 1.9375l-2.640625 0l0 4.546875q0 0.546875 0.296875 0.8125q0.3125 0.265625 0.828125 0.265625z" fill-rule="nonzero"/><path fill="#000000" fill-opacity="0.0" d="m325.35938 174.68745l0 264.18896" fill-rule="evenodd"/><path stroke="#cccccc" stroke-width="1.0" stroke-linejoin="round" stroke-linecap="butt" d="m325.35938 174.68745l0 264.18896" fill-rule="evenodd"/><path fill="#000000" fill-opacity="0.0" d="m184.42964 303.93054l283.62207 0" fill-rule="evenodd"/><path stroke="#cccccc" stroke-width="1.0" stroke-linejoin="round" stroke-linecap="butt" d="m184.42964 303.93054l283.62207 0" fill-rule="evenodd"/></g></svg>